M48
; DRILL file {KiCad (6.0.5)} date Tue Jan 23 17:13:28 2024
; FORMAT={-:-/ absolute / metric / decimal}
; #@! TF.CreationDate,2024-01-23T17:13:28+09:00
; #@! TF.GenerationSoftware,Kicad,Pcbnew,(6.0.5)
; #@! TF.FileFunction,Plated,1,2,PTH
FMAT,2
METRIC
; #@! TA.AperFunction,Plated,PTH,ViaDrill
T1C0.400
; #@! TA.AperFunction,Plated,PTH,ViaDrill
T2C0.500
; #@! TA.AperFunction,Plated,PTH,ComponentDrill
T3C0.600
; #@! TA.AperFunction,Plated,PTH,ViaDrill
T4C0.700
; #@! TA.AperFunction,Plated,PTH,ComponentDrill
T5C0.800
; #@! TA.AperFunction,Plated,PTH,ComponentDrill
T6C0.920
; #@! TA.AperFunction,Plated,PTH,ComponentDrill
T7C1.000
; #@! TA.AperFunction,Plated,PTH,ComponentDrill
T8C2.330
%
G90
G05
T1
X91.4Y-110.1
X92.0Y-108.4
X95.5Y-111.5
X95.56Y-106.44
X100.6Y-114.8
X102.7Y-105.7
X105.5Y-107.8
X105.5Y-112.1
X105.5Y-123.0
X105.6Y-124.6
X107.8Y-99.2
X107.8Y-109.7
X108.3Y-112.1
X110.3Y-115.7
X111.15Y-130.9
X111.8Y-110.1
X112.2Y-107.5
X112.6Y-110.9
X113.0Y-99.1
X115.5Y-112.5
X117.8Y-112.5
X118.9Y-113.9
X119.1Y-109.4
X120.0Y-103.4
X123.4Y-73.6
X124.5Y-114.6
X124.7Y-108.5
X126.4Y-92.1
X128.0Y-98.7
X128.6Y-119.1
X129.6Y-136.9
X129.7Y-109.4
X129.7Y-116.0
X130.7Y-103.3
X132.0Y-96.7
X133.4Y-81.7
X133.5Y-73.3
X135.5Y-89.5
X136.3Y-74.0
X137.3Y-68.8
X140.1Y-71.6
X140.6Y-91.4
X140.6Y-101.4
X140.7Y-109.1
X142.4Y-74.0
X145.8Y-86.6
X146.9Y-89.0
X147.3Y-81.3
X147.3Y-83.2
X147.6Y-113.5
X148.2Y-109.0
X148.5Y-100.4
X148.7Y-121.0
X149.1Y-71.6
X149.112Y-91.424
X149.2Y-87.4
X149.3Y-80.724
X149.3Y-82.8
X149.6Y-111.4
X149.7Y-103.2
X150.275Y-124.025
X150.5Y-85.6
X151.5Y-125.3
X154.0Y-71.6
X155.05Y-80.85
X159.26Y-117.46
X160.435Y-118.365
X160.6Y-91.9
X161.0Y-96.2
X161.0Y-101.0
X161.61Y-119.09
X162.975Y-119.925
X163.2Y-96.2
X163.2Y-98.9
X164.34Y-120.66
X164.4Y-73.924
X164.6Y-76.2
X164.6Y-77.6
X165.1Y-71.9
X165.3Y-70.5
X165.447Y-89.806
X165.515Y-121.485
X165.6Y-91.2
X166.4Y-70.0
X167.8Y-70.0
X168.6Y-76.4
X168.625Y-94.675
X168.7Y-88.5
X170.2Y-73.924
X170.7Y-77.9
X171.7Y-110.625
X173.0Y-79.0
X173.15Y-110.6
X174.4Y-77.8
X176.0Y-80.0
X176.9Y-73.3
X176.9Y-89.9
X177.3Y-81.5
X177.8Y-96.6
X177.8Y-103.2
X179.45Y-81.4
X181.0Y-94.1
X181.3Y-72.4
X181.8Y-92.0
X182.15Y-74.45
X182.4Y-69.6
X182.6Y-91.1
X183.1Y-84.3
X183.325Y-90.375
X183.8Y-79.1
X184.825Y-89.3
X185.2Y-85.4
X185.4Y-116.4
X185.5Y-92.0
X185.5Y-117.6
X185.5Y-118.8
X185.5Y-120.0
X185.5Y-121.1
X185.593Y-90.376
X185.8Y-124.1
X185.8Y-128.6
X186.0Y-87.7
X186.1Y-93.4
X186.1Y-122.1
X186.3Y-91.1
X187.2Y-69.6
X188.1Y-98.1
X188.2Y-126.0
X188.9Y-96.1
X189.0Y-107.0
X189.9Y-87.5
X190.0Y-88.8
X191.6Y-88.8
X191.8Y-69.6
X192.1Y-78.85
X192.4Y-87.5
X194.1Y-123.6
X194.1Y-125.1
X194.1Y-128.6
X194.1Y-132.5
X195.585Y-74.315
X195.675Y-123.5
X196.4Y-69.6
X196.4Y-79.6
X196.4Y-84.8
X196.4Y-95.9
X196.4Y-98.2
X197.8Y-121.8
X201.1Y-84.7
T2
X108.275Y-106.375
X110.675Y-105.425
X133.6Y-101.3
X181.4Y-75.5
X182.6Y-77.0
T4
X113.31Y-80.79
X120.1Y-89.6
T5
X111.875Y-133.09
X111.875Y-135.59
X111.875Y-138.09
X116.275Y-133.09
X116.275Y-135.59
X116.275Y-138.09
X120.675Y-133.09
X120.675Y-135.59
X120.675Y-138.09
X125.075Y-133.09
X125.075Y-135.59
X125.075Y-138.09
T6
X99.453Y-91.14
X99.453Y-93.64
X101.453Y-91.14
X101.453Y-93.64
T7
X122.055Y-63.6
X122.055Y-66.14
X124.595Y-63.6
X124.595Y-66.14
X127.135Y-63.6
X127.135Y-66.14
X129.675Y-63.6
X129.675Y-66.14
X131.075Y-139.665
X132.215Y-63.6
X132.215Y-66.14
X133.615Y-139.665
X134.755Y-63.6
X134.755Y-66.14
X136.155Y-139.665
X137.295Y-63.6
X137.295Y-66.14
X138.695Y-139.665
X139.835Y-63.6
X139.835Y-66.14
X141.235Y-139.665
X142.375Y-63.6
X142.375Y-66.14
X143.775Y-139.665
X146.315Y-139.665
X150.275Y-137.1
X150.275Y-139.64
X152.815Y-137.1
X152.815Y-139.64
X155.355Y-137.1
X155.355Y-139.64
X157.895Y-137.1
X157.895Y-139.64
X160.435Y-137.1
X160.435Y-139.64
X162.975Y-137.1
X162.975Y-139.64
X165.515Y-137.1
X165.515Y-139.64
X168.055Y-137.1
X168.055Y-139.64
X170.595Y-137.1
X170.595Y-139.64
X173.135Y-137.1
X173.135Y-139.64
X175.675Y-137.1
X175.675Y-139.64
X178.215Y-137.1
X178.215Y-139.64
X180.755Y-137.1
X180.755Y-139.64
X183.295Y-137.1
X183.295Y-139.64
X185.835Y-137.1
X185.835Y-139.64
X188.375Y-137.1
X188.375Y-139.64
X190.915Y-137.1
X190.915Y-139.64
X193.455Y-137.1
X193.455Y-139.64
X195.995Y-137.1
X195.995Y-139.64
X197.8Y-99.61
X197.8Y-102.15
X197.8Y-104.69
X197.8Y-125.12
X197.8Y-127.66
X197.8Y-130.2
X198.535Y-137.1
X198.535Y-139.64
X204.4Y-87.24
X204.4Y-89.78
X204.4Y-92.32
X204.4Y-94.86
X204.4Y-97.4
X204.4Y-99.94
X204.4Y-102.48
X204.4Y-105.02
X204.4Y-107.56
X204.4Y-110.1
X204.4Y-116.24
X204.4Y-118.78
X204.4Y-121.32
X204.4Y-123.86
X204.4Y-126.4
X204.4Y-128.94
X204.4Y-131.48
X204.4Y-134.02
X204.4Y-136.56
X204.4Y-139.1
T8
X96.742Y-86.37
X96.742Y-98.41
T3
G00X89.5Y-104.67
M15
G01X88.9Y-104.67
M16
G05
G00X89.5Y-113.31
M15
G01X88.9Y-113.31
M16
G05
G00X89.515Y-118.37
M15
G01X88.915Y-118.37
M16
G05
G00X89.515Y-127.01
M15
G01X88.915Y-127.01
M16
G05
G00X93.93Y-104.67
M15
G01X92.83Y-104.67
M16
G05
G00X93.93Y-113.31
M15
G01X92.83Y-113.31
M16
G05
G00X93.945Y-118.37
M15
G01X92.845Y-118.37
M16
G05
G00X93.945Y-127.01
M15
G01X92.845Y-127.01
M16
G05
T5
G00X110.575Y-65.265
M15
G01X111.775Y-65.265
M16
G05
G00X110.575Y-71.415
M15
G01X111.775Y-71.415
M16
G05
G00X110.575Y-77.065
M15
G01X111.775Y-77.065
M16
G05
G00X112.575Y-67.765
M15
G01X113.775Y-67.765
M16
G05
G00X112.575Y-73.365
M15
G01X113.775Y-73.365
M16
G05
T7
G00X90.882Y-71.64
M15
G01X90.882Y-73.64
M16
G05
G00X96.582Y-69.64
M15
G01X94.582Y-69.64
M16
G05
G00X96.582Y-75.64
M15
G01X94.582Y-75.64
M16
G05
T0
M30
