%TF.GenerationSoftware,KiCad,Pcbnew,(6.0.5)*%
%TF.CreationDate,2024-01-23T17:13:34+09:00*%
%TF.ProjectId,ESP32_S2DevelopBoard,45535033-325f-4533-9244-6576656c6f70,rev?*%
%TF.SameCoordinates,Original*%
%TF.FileFunction,Legend,Top*%
%TF.FilePolarity,Positive*%
%FSLAX46Y46*%
G04 Gerber Fmt 4.6, Leading zero omitted, Abs format (unit mm)*
G04 Created by KiCad (PCBNEW (6.0.5)) date 2024-01-23 17:13:34*
%MOMM*%
%LPD*%
G01*
G04 APERTURE LIST*
%ADD10C,0.150000*%
%ADD11C,0.250000*%
%ADD12C,0.120000*%
G04 APERTURE END LIST*
D10*
X194300000Y-131800000D02*
X149000000Y-131800000D01*
X154075000Y-97050000D02*
X173725000Y-97050000D01*
X173725000Y-97050000D02*
X173725000Y-126600000D01*
X173725000Y-126600000D02*
X154075000Y-126600000D01*
X154075000Y-126600000D02*
X154075000Y-97050000D01*
X144100000Y-71200000D02*
X120800000Y-71200000D01*
X93700000Y-131700000D02*
G75*
G03*
X93700000Y-131700000I-3000000J0D01*
G01*
X148050000Y-128650000D02*
G75*
G03*
X148050000Y-128650000I-3000000J0D01*
G01*
X190700000Y-74350000D02*
G75*
G03*
X190700000Y-74350000I-3000000J0D01*
G01*
X93200000Y-80200000D02*
G75*
G03*
X93200000Y-80200000I-3000000J0D01*
G01*
X101652380Y-130450000D02*
X100652380Y-130450000D01*
X100652380Y-129783333D02*
X100652380Y-129592857D01*
X100700000Y-129497619D01*
X100795238Y-129402380D01*
X100985714Y-129354761D01*
X101319047Y-129354761D01*
X101509523Y-129402380D01*
X101604761Y-129497619D01*
X101652380Y-129592857D01*
X101652380Y-129783333D01*
X101604761Y-129878571D01*
X101509523Y-129973809D01*
X101319047Y-130021428D01*
X100985714Y-130021428D01*
X100795238Y-129973809D01*
X100700000Y-129878571D01*
X100652380Y-129783333D01*
X100652380Y-129021428D02*
X100652380Y-128402380D01*
X101033333Y-128735714D01*
X101033333Y-128592857D01*
X101080952Y-128497619D01*
X101128571Y-128450000D01*
X101223809Y-128402380D01*
X101461904Y-128402380D01*
X101557142Y-128450000D01*
X101604761Y-128497619D01*
X101652380Y-128592857D01*
X101652380Y-128878571D01*
X101604761Y-128973809D01*
X101557142Y-129021428D01*
X199835595Y-97652380D02*
X199835595Y-96652380D01*
X200502261Y-96652380D02*
X200692738Y-96652380D01*
X200787976Y-96700000D01*
X200883214Y-96795238D01*
X200930833Y-96985714D01*
X200930833Y-97319047D01*
X200883214Y-97509523D01*
X200787976Y-97604761D01*
X200692738Y-97652380D01*
X200502261Y-97652380D01*
X200407023Y-97604761D01*
X200311785Y-97509523D01*
X200264166Y-97319047D01*
X200264166Y-96985714D01*
X200311785Y-96795238D01*
X200407023Y-96700000D01*
X200502261Y-96652380D01*
X201264166Y-96652380D02*
X201883214Y-96652380D01*
X201549880Y-97033333D01*
X201692738Y-97033333D01*
X201787976Y-97080952D01*
X201835595Y-97128571D01*
X201883214Y-97223809D01*
X201883214Y-97461904D01*
X201835595Y-97557142D01*
X201787976Y-97604761D01*
X201692738Y-97652380D01*
X201407023Y-97652380D01*
X201311785Y-97604761D01*
X201264166Y-97557142D01*
X202216547Y-96652380D02*
X202883214Y-96652380D01*
X202454642Y-97652380D01*
X191452380Y-135537976D02*
X190452380Y-135537976D01*
X190452380Y-134871309D02*
X190452380Y-134680833D01*
X190500000Y-134585595D01*
X190595238Y-134490357D01*
X190785714Y-134442738D01*
X191119047Y-134442738D01*
X191309523Y-134490357D01*
X191404761Y-134585595D01*
X191452380Y-134680833D01*
X191452380Y-134871309D01*
X191404761Y-134966547D01*
X191309523Y-135061785D01*
X191119047Y-135109404D01*
X190785714Y-135109404D01*
X190595238Y-135061785D01*
X190500000Y-134966547D01*
X190452380Y-134871309D01*
X190785714Y-133585595D02*
X191452380Y-133585595D01*
X190404761Y-133823690D02*
X191119047Y-134061785D01*
X191119047Y-133442738D01*
X190547619Y-133109404D02*
X190500000Y-133061785D01*
X190452380Y-132966547D01*
X190452380Y-132728452D01*
X190500000Y-132633214D01*
X190547619Y-132585595D01*
X190642857Y-132537976D01*
X190738095Y-132537976D01*
X190880952Y-132585595D01*
X191452380Y-133157023D01*
X191452380Y-132537976D01*
X173652380Y-131537976D02*
X172652380Y-131537976D01*
X172652380Y-130871309D02*
X172652380Y-130680833D01*
X172700000Y-130585595D01*
X172795238Y-130490357D01*
X172985714Y-130442738D01*
X173319047Y-130442738D01*
X173509523Y-130490357D01*
X173604761Y-130585595D01*
X173652380Y-130680833D01*
X173652380Y-130871309D01*
X173604761Y-130966547D01*
X173509523Y-131061785D01*
X173319047Y-131109404D01*
X172985714Y-131109404D01*
X172795238Y-131061785D01*
X172700000Y-130966547D01*
X172652380Y-130871309D01*
X173652380Y-129490357D02*
X173652380Y-130061785D01*
X173652380Y-129776071D02*
X172652380Y-129776071D01*
X172795238Y-129871309D01*
X172890476Y-129966547D01*
X172938095Y-130061785D01*
X173652380Y-129014166D02*
X173652380Y-128823690D01*
X173604761Y-128728452D01*
X173557142Y-128680833D01*
X173414285Y-128585595D01*
X173223809Y-128537976D01*
X172842857Y-128537976D01*
X172747619Y-128585595D01*
X172700000Y-128633214D01*
X172652380Y-128728452D01*
X172652380Y-128918928D01*
X172700000Y-129014166D01*
X172747619Y-129061785D01*
X172842857Y-129109404D01*
X173080952Y-129109404D01*
X173176190Y-129061785D01*
X173223809Y-129014166D01*
X173271428Y-128918928D01*
X173271428Y-128728452D01*
X173223809Y-128633214D01*
X173176190Y-128585595D01*
X173080952Y-128537976D01*
X176152380Y-131537976D02*
X175152380Y-131537976D01*
X175152380Y-130871309D02*
X175152380Y-130680833D01*
X175200000Y-130585595D01*
X175295238Y-130490357D01*
X175485714Y-130442738D01*
X175819047Y-130442738D01*
X176009523Y-130490357D01*
X176104761Y-130585595D01*
X176152380Y-130680833D01*
X176152380Y-130871309D01*
X176104761Y-130966547D01*
X176009523Y-131061785D01*
X175819047Y-131109404D01*
X175485714Y-131109404D01*
X175295238Y-131061785D01*
X175200000Y-130966547D01*
X175152380Y-130871309D01*
X175247619Y-130061785D02*
X175200000Y-130014166D01*
X175152380Y-129918928D01*
X175152380Y-129680833D01*
X175200000Y-129585595D01*
X175247619Y-129537976D01*
X175342857Y-129490357D01*
X175438095Y-129490357D01*
X175580952Y-129537976D01*
X176152380Y-130109404D01*
X176152380Y-129490357D01*
X176152380Y-128537976D02*
X176152380Y-129109404D01*
X176152380Y-128823690D02*
X175152380Y-128823690D01*
X175295238Y-128918928D01*
X175390476Y-129014166D01*
X175438095Y-129109404D01*
X181252380Y-131537976D02*
X180252380Y-131537976D01*
X180252380Y-130871309D02*
X180252380Y-130680833D01*
X180300000Y-130585595D01*
X180395238Y-130490357D01*
X180585714Y-130442738D01*
X180919047Y-130442738D01*
X181109523Y-130490357D01*
X181204761Y-130585595D01*
X181252380Y-130680833D01*
X181252380Y-130871309D01*
X181204761Y-130966547D01*
X181109523Y-131061785D01*
X180919047Y-131109404D01*
X180585714Y-131109404D01*
X180395238Y-131061785D01*
X180300000Y-130966547D01*
X180252380Y-130871309D01*
X180252380Y-130109404D02*
X180252380Y-129490357D01*
X180633333Y-129823690D01*
X180633333Y-129680833D01*
X180680952Y-129585595D01*
X180728571Y-129537976D01*
X180823809Y-129490357D01*
X181061904Y-129490357D01*
X181157142Y-129537976D01*
X181204761Y-129585595D01*
X181252380Y-129680833D01*
X181252380Y-129966547D01*
X181204761Y-130061785D01*
X181157142Y-130109404D01*
X180252380Y-128585595D02*
X180252380Y-129061785D01*
X180728571Y-129109404D01*
X180680952Y-129061785D01*
X180633333Y-128966547D01*
X180633333Y-128728452D01*
X180680952Y-128633214D01*
X180728571Y-128585595D01*
X180823809Y-128537976D01*
X181061904Y-128537976D01*
X181157142Y-128585595D01*
X181204761Y-128633214D01*
X181252380Y-128728452D01*
X181252380Y-128966547D01*
X181204761Y-129061785D01*
X181157142Y-129109404D01*
X199835595Y-102852380D02*
X199835595Y-101852380D01*
X200502261Y-101852380D02*
X200692738Y-101852380D01*
X200787976Y-101900000D01*
X200883214Y-101995238D01*
X200930833Y-102185714D01*
X200930833Y-102519047D01*
X200883214Y-102709523D01*
X200787976Y-102804761D01*
X200692738Y-102852380D01*
X200502261Y-102852380D01*
X200407023Y-102804761D01*
X200311785Y-102709523D01*
X200264166Y-102519047D01*
X200264166Y-102185714D01*
X200311785Y-101995238D01*
X200407023Y-101900000D01*
X200502261Y-101852380D01*
X201264166Y-101852380D02*
X201883214Y-101852380D01*
X201549880Y-102233333D01*
X201692738Y-102233333D01*
X201787976Y-102280952D01*
X201835595Y-102328571D01*
X201883214Y-102423809D01*
X201883214Y-102661904D01*
X201835595Y-102757142D01*
X201787976Y-102804761D01*
X201692738Y-102852380D01*
X201407023Y-102852380D01*
X201311785Y-102804761D01*
X201264166Y-102757142D01*
X202787976Y-101852380D02*
X202311785Y-101852380D01*
X202264166Y-102328571D01*
X202311785Y-102280952D01*
X202407023Y-102233333D01*
X202645119Y-102233333D01*
X202740357Y-102280952D01*
X202787976Y-102328571D01*
X202835595Y-102423809D01*
X202835595Y-102661904D01*
X202787976Y-102757142D01*
X202740357Y-102804761D01*
X202645119Y-102852380D01*
X202407023Y-102852380D01*
X202311785Y-102804761D01*
X202264166Y-102757142D01*
X140752380Y-137938095D02*
X140752380Y-137319047D01*
X141133333Y-137652380D01*
X141133333Y-137509523D01*
X141180952Y-137414285D01*
X141228571Y-137366666D01*
X141323809Y-137319047D01*
X141561904Y-137319047D01*
X141657142Y-137366666D01*
X141704761Y-137414285D01*
X141752380Y-137509523D01*
X141752380Y-137795238D01*
X141704761Y-137890476D01*
X141657142Y-137938095D01*
X140752380Y-137033333D02*
X141752380Y-136700000D01*
X140752380Y-136366666D01*
X140752380Y-136128571D02*
X140752380Y-135509523D01*
X141133333Y-135842857D01*
X141133333Y-135700000D01*
X141180952Y-135604761D01*
X141228571Y-135557142D01*
X141323809Y-135509523D01*
X141561904Y-135509523D01*
X141657142Y-135557142D01*
X141704761Y-135604761D01*
X141752380Y-135700000D01*
X141752380Y-135985714D01*
X141704761Y-136080952D01*
X141657142Y-136128571D01*
X110757142Y-113907142D02*
X110709523Y-113954761D01*
X110566666Y-114002380D01*
X110471428Y-114002380D01*
X110328571Y-113954761D01*
X110233333Y-113859523D01*
X110185714Y-113764285D01*
X110138095Y-113573809D01*
X110138095Y-113430952D01*
X110185714Y-113240476D01*
X110233333Y-113145238D01*
X110328571Y-113050000D01*
X110471428Y-113002380D01*
X110566666Y-113002380D01*
X110709523Y-113050000D01*
X110757142Y-113097619D01*
X111185714Y-114002380D02*
X111185714Y-113002380D01*
X111185714Y-113478571D02*
X111757142Y-113478571D01*
X111757142Y-114002380D02*
X111757142Y-113002380D01*
X112138095Y-113002380D02*
X112757142Y-113002380D01*
X112423809Y-113383333D01*
X112566666Y-113383333D01*
X112661904Y-113430952D01*
X112709523Y-113478571D01*
X112757142Y-113573809D01*
X112757142Y-113811904D01*
X112709523Y-113907142D01*
X112661904Y-113954761D01*
X112566666Y-114002380D01*
X112280952Y-114002380D01*
X112185714Y-113954761D01*
X112138095Y-113907142D01*
X113614285Y-113335714D02*
X113614285Y-114002380D01*
X113376190Y-112954761D02*
X113138095Y-113669047D01*
X113757142Y-113669047D01*
X114042857Y-113002380D02*
X114661904Y-113002380D01*
X114328571Y-113383333D01*
X114471428Y-113383333D01*
X114566666Y-113430952D01*
X114614285Y-113478571D01*
X114661904Y-113573809D01*
X114661904Y-113811904D01*
X114614285Y-113907142D01*
X114566666Y-113954761D01*
X114471428Y-114002380D01*
X114185714Y-114002380D01*
X114090476Y-113954761D01*
X114042857Y-113907142D01*
X115090476Y-114002380D02*
X115090476Y-113002380D01*
X115471428Y-113002380D01*
X115566666Y-113050000D01*
X115614285Y-113097619D01*
X115661904Y-113192857D01*
X115661904Y-113335714D01*
X115614285Y-113430952D01*
X115566666Y-113478571D01*
X115471428Y-113526190D01*
X115090476Y-113526190D01*
X199835595Y-95152380D02*
X199835595Y-94152380D01*
X200502261Y-94152380D02*
X200692738Y-94152380D01*
X200787976Y-94200000D01*
X200883214Y-94295238D01*
X200930833Y-94485714D01*
X200930833Y-94819047D01*
X200883214Y-95009523D01*
X200787976Y-95104761D01*
X200692738Y-95152380D01*
X200502261Y-95152380D01*
X200407023Y-95104761D01*
X200311785Y-95009523D01*
X200264166Y-94819047D01*
X200264166Y-94485714D01*
X200311785Y-94295238D01*
X200407023Y-94200000D01*
X200502261Y-94152380D01*
X201264166Y-94152380D02*
X201883214Y-94152380D01*
X201549880Y-94533333D01*
X201692738Y-94533333D01*
X201787976Y-94580952D01*
X201835595Y-94628571D01*
X201883214Y-94723809D01*
X201883214Y-94961904D01*
X201835595Y-95057142D01*
X201787976Y-95104761D01*
X201692738Y-95152380D01*
X201407023Y-95152380D01*
X201311785Y-95104761D01*
X201264166Y-95057142D01*
X202454642Y-94580952D02*
X202359404Y-94533333D01*
X202311785Y-94485714D01*
X202264166Y-94390476D01*
X202264166Y-94342857D01*
X202311785Y-94247619D01*
X202359404Y-94200000D01*
X202454642Y-94152380D01*
X202645119Y-94152380D01*
X202740357Y-94200000D01*
X202787976Y-94247619D01*
X202835595Y-94342857D01*
X202835595Y-94390476D01*
X202787976Y-94485714D01*
X202740357Y-94533333D01*
X202645119Y-94580952D01*
X202454642Y-94580952D01*
X202359404Y-94628571D01*
X202311785Y-94676190D01*
X202264166Y-94771428D01*
X202264166Y-94961904D01*
X202311785Y-95057142D01*
X202359404Y-95104761D01*
X202454642Y-95152380D01*
X202645119Y-95152380D01*
X202740357Y-95104761D01*
X202787976Y-95057142D01*
X202835595Y-94961904D01*
X202835595Y-94771428D01*
X202787976Y-94676190D01*
X202740357Y-94628571D01*
X202645119Y-94580952D01*
X178752380Y-131537976D02*
X177752380Y-131537976D01*
X177752380Y-130871309D02*
X177752380Y-130680833D01*
X177800000Y-130585595D01*
X177895238Y-130490357D01*
X178085714Y-130442738D01*
X178419047Y-130442738D01*
X178609523Y-130490357D01*
X178704761Y-130585595D01*
X178752380Y-130680833D01*
X178752380Y-130871309D01*
X178704761Y-130966547D01*
X178609523Y-131061785D01*
X178419047Y-131109404D01*
X178085714Y-131109404D01*
X177895238Y-131061785D01*
X177800000Y-130966547D01*
X177752380Y-130871309D01*
X177752380Y-130109404D02*
X177752380Y-129490357D01*
X178133333Y-129823690D01*
X178133333Y-129680833D01*
X178180952Y-129585595D01*
X178228571Y-129537976D01*
X178323809Y-129490357D01*
X178561904Y-129490357D01*
X178657142Y-129537976D01*
X178704761Y-129585595D01*
X178752380Y-129680833D01*
X178752380Y-129966547D01*
X178704761Y-130061785D01*
X178657142Y-130109404D01*
X177752380Y-129157023D02*
X177752380Y-128537976D01*
X178133333Y-128871309D01*
X178133333Y-128728452D01*
X178180952Y-128633214D01*
X178228571Y-128585595D01*
X178323809Y-128537976D01*
X178561904Y-128537976D01*
X178657142Y-128585595D01*
X178704761Y-128633214D01*
X178752380Y-128728452D01*
X178752380Y-129014166D01*
X178704761Y-129109404D01*
X178657142Y-129157023D01*
X115535595Y-73147380D02*
X115535595Y-72147380D01*
X116202261Y-72147380D02*
X116392738Y-72147380D01*
X116487976Y-72195000D01*
X116583214Y-72290238D01*
X116630833Y-72480714D01*
X116630833Y-72814047D01*
X116583214Y-73004523D01*
X116487976Y-73099761D01*
X116392738Y-73147380D01*
X116202261Y-73147380D01*
X116107023Y-73099761D01*
X116011785Y-73004523D01*
X115964166Y-72814047D01*
X115964166Y-72480714D01*
X116011785Y-72290238D01*
X116107023Y-72195000D01*
X116202261Y-72147380D01*
X117583214Y-73147380D02*
X117011785Y-73147380D01*
X117297500Y-73147380D02*
X117297500Y-72147380D01*
X117202261Y-72290238D01*
X117107023Y-72385476D01*
X117011785Y-72433095D01*
X118154642Y-72575952D02*
X118059404Y-72528333D01*
X118011785Y-72480714D01*
X117964166Y-72385476D01*
X117964166Y-72337857D01*
X118011785Y-72242619D01*
X118059404Y-72195000D01*
X118154642Y-72147380D01*
X118345119Y-72147380D01*
X118440357Y-72195000D01*
X118487976Y-72242619D01*
X118535595Y-72337857D01*
X118535595Y-72385476D01*
X118487976Y-72480714D01*
X118440357Y-72528333D01*
X118345119Y-72575952D01*
X118154642Y-72575952D01*
X118059404Y-72623571D01*
X118011785Y-72671190D01*
X117964166Y-72766428D01*
X117964166Y-72956904D01*
X118011785Y-73052142D01*
X118059404Y-73099761D01*
X118154642Y-73147380D01*
X118345119Y-73147380D01*
X118440357Y-73099761D01*
X118487976Y-73052142D01*
X118535595Y-72956904D01*
X118535595Y-72766428D01*
X118487976Y-72671190D01*
X118440357Y-72623571D01*
X118345119Y-72575952D01*
X115535595Y-74757380D02*
X115535595Y-73757380D01*
X115773690Y-73757380D01*
X115916547Y-73805000D01*
X116011785Y-73900238D01*
X116059404Y-73995476D01*
X116107023Y-74185952D01*
X116107023Y-74328809D01*
X116059404Y-74519285D01*
X116011785Y-74614523D01*
X115916547Y-74709761D01*
X115773690Y-74757380D01*
X115535595Y-74757380D01*
X116487976Y-74471666D02*
X116964166Y-74471666D01*
X116392738Y-74757380D02*
X116726071Y-73757380D01*
X117059404Y-74757380D01*
X117964166Y-74662142D02*
X117916547Y-74709761D01*
X117773690Y-74757380D01*
X117678452Y-74757380D01*
X117535595Y-74709761D01*
X117440357Y-74614523D01*
X117392738Y-74519285D01*
X117345119Y-74328809D01*
X117345119Y-74185952D01*
X117392738Y-73995476D01*
X117440357Y-73900238D01*
X117535595Y-73805000D01*
X117678452Y-73757380D01*
X117773690Y-73757380D01*
X117916547Y-73805000D01*
X117964166Y-73852619D01*
X118154642Y-74852619D02*
X118916547Y-74852619D01*
X119107023Y-73852619D02*
X119154642Y-73805000D01*
X119249880Y-73757380D01*
X119487976Y-73757380D01*
X119583214Y-73805000D01*
X119630833Y-73852619D01*
X119678452Y-73947857D01*
X119678452Y-74043095D01*
X119630833Y-74185952D01*
X119059404Y-74757380D01*
X119678452Y-74757380D01*
X188852380Y-131537976D02*
X187852380Y-131537976D01*
X187852380Y-130871309D02*
X187852380Y-130680833D01*
X187900000Y-130585595D01*
X187995238Y-130490357D01*
X188185714Y-130442738D01*
X188519047Y-130442738D01*
X188709523Y-130490357D01*
X188804761Y-130585595D01*
X188852380Y-130680833D01*
X188852380Y-130871309D01*
X188804761Y-130966547D01*
X188709523Y-131061785D01*
X188519047Y-131109404D01*
X188185714Y-131109404D01*
X187995238Y-131061785D01*
X187900000Y-130966547D01*
X187852380Y-130871309D01*
X188185714Y-129585595D02*
X188852380Y-129585595D01*
X187804761Y-129823690D02*
X188519047Y-130061785D01*
X188519047Y-129442738D01*
X188852380Y-128537976D02*
X188852380Y-129109404D01*
X188852380Y-128823690D02*
X187852380Y-128823690D01*
X187995238Y-128918928D01*
X188090476Y-129014166D01*
X188138095Y-129109404D01*
X131552380Y-137352380D02*
X131076190Y-137685714D01*
X131552380Y-137923809D02*
X130552380Y-137923809D01*
X130552380Y-137542857D01*
X130600000Y-137447619D01*
X130647619Y-137400000D01*
X130742857Y-137352380D01*
X130885714Y-137352380D01*
X130980952Y-137400000D01*
X131028571Y-137447619D01*
X131076190Y-137542857D01*
X131076190Y-137923809D01*
X131028571Y-136923809D02*
X131028571Y-136590476D01*
X131552380Y-136447619D02*
X131552380Y-136923809D01*
X130552380Y-136923809D01*
X130552380Y-136447619D01*
X131504761Y-136066666D02*
X131552380Y-135923809D01*
X131552380Y-135685714D01*
X131504761Y-135590476D01*
X131457142Y-135542857D01*
X131361904Y-135495238D01*
X131266666Y-135495238D01*
X131171428Y-135542857D01*
X131123809Y-135590476D01*
X131076190Y-135685714D01*
X131028571Y-135876190D01*
X130980952Y-135971428D01*
X130933333Y-136019047D01*
X130838095Y-136066666D01*
X130742857Y-136066666D01*
X130647619Y-136019047D01*
X130600000Y-135971428D01*
X130552380Y-135876190D01*
X130552380Y-135638095D01*
X130600000Y-135495238D01*
X131028571Y-135066666D02*
X131028571Y-134733333D01*
X131552380Y-134590476D02*
X131552380Y-135066666D01*
X130552380Y-135066666D01*
X130552380Y-134590476D01*
X130552380Y-134304761D02*
X130552380Y-133733333D01*
X131552380Y-134019047D02*
X130552380Y-134019047D01*
X197952380Y-68602380D02*
X197476190Y-68935714D01*
X197952380Y-69173809D02*
X196952380Y-69173809D01*
X196952380Y-68792857D01*
X197000000Y-68697619D01*
X197047619Y-68650000D01*
X197142857Y-68602380D01*
X197285714Y-68602380D01*
X197380952Y-68650000D01*
X197428571Y-68697619D01*
X197476190Y-68792857D01*
X197476190Y-69173809D01*
X197428571Y-68173809D02*
X197428571Y-67840476D01*
X197952380Y-67697619D02*
X197952380Y-68173809D01*
X196952380Y-68173809D01*
X196952380Y-67697619D01*
X197904761Y-67316666D02*
X197952380Y-67173809D01*
X197952380Y-66935714D01*
X197904761Y-66840476D01*
X197857142Y-66792857D01*
X197761904Y-66745238D01*
X197666666Y-66745238D01*
X197571428Y-66792857D01*
X197523809Y-66840476D01*
X197476190Y-66935714D01*
X197428571Y-67126190D01*
X197380952Y-67221428D01*
X197333333Y-67269047D01*
X197238095Y-67316666D01*
X197142857Y-67316666D01*
X197047619Y-67269047D01*
X197000000Y-67221428D01*
X196952380Y-67126190D01*
X196952380Y-66888095D01*
X197000000Y-66745238D01*
X197428571Y-66316666D02*
X197428571Y-65983333D01*
X197952380Y-65840476D02*
X197952380Y-66316666D01*
X196952380Y-66316666D01*
X196952380Y-65840476D01*
X196952380Y-65554761D02*
X196952380Y-64983333D01*
X197952380Y-65269047D02*
X196952380Y-65269047D01*
X200785595Y-121752380D02*
X200785595Y-120752380D01*
X201452261Y-120752380D02*
X201642738Y-120752380D01*
X201737976Y-120800000D01*
X201833214Y-120895238D01*
X201880833Y-121085714D01*
X201880833Y-121419047D01*
X201833214Y-121609523D01*
X201737976Y-121704761D01*
X201642738Y-121752380D01*
X201452261Y-121752380D01*
X201357023Y-121704761D01*
X201261785Y-121609523D01*
X201214166Y-121419047D01*
X201214166Y-121085714D01*
X201261785Y-120895238D01*
X201357023Y-120800000D01*
X201452261Y-120752380D01*
X202452261Y-121180952D02*
X202357023Y-121133333D01*
X202309404Y-121085714D01*
X202261785Y-120990476D01*
X202261785Y-120942857D01*
X202309404Y-120847619D01*
X202357023Y-120800000D01*
X202452261Y-120752380D01*
X202642738Y-120752380D01*
X202737976Y-120800000D01*
X202785595Y-120847619D01*
X202833214Y-120942857D01*
X202833214Y-120990476D01*
X202785595Y-121085714D01*
X202737976Y-121133333D01*
X202642738Y-121180952D01*
X202452261Y-121180952D01*
X202357023Y-121228571D01*
X202309404Y-121276190D01*
X202261785Y-121371428D01*
X202261785Y-121561904D01*
X202309404Y-121657142D01*
X202357023Y-121704761D01*
X202452261Y-121752380D01*
X202642738Y-121752380D01*
X202737976Y-121704761D01*
X202785595Y-121657142D01*
X202833214Y-121561904D01*
X202833214Y-121371428D01*
X202785595Y-121276190D01*
X202737976Y-121228571D01*
X202642738Y-121180952D01*
D11*
X105857142Y-89857142D02*
X104885714Y-89857142D01*
X104771428Y-89914285D01*
X104714285Y-89971428D01*
X104657142Y-90085714D01*
X104657142Y-90314285D01*
X104714285Y-90428571D01*
X104771428Y-90485714D01*
X104885714Y-90542857D01*
X105857142Y-90542857D01*
X104714285Y-91057142D02*
X104657142Y-91228571D01*
X104657142Y-91514285D01*
X104714285Y-91628571D01*
X104771428Y-91685714D01*
X104885714Y-91742857D01*
X105000000Y-91742857D01*
X105114285Y-91685714D01*
X105171428Y-91628571D01*
X105228571Y-91514285D01*
X105285714Y-91285714D01*
X105342857Y-91171428D01*
X105400000Y-91114285D01*
X105514285Y-91057142D01*
X105628571Y-91057142D01*
X105742857Y-91114285D01*
X105800000Y-91171428D01*
X105857142Y-91285714D01*
X105857142Y-91571428D01*
X105800000Y-91742857D01*
X105285714Y-92657142D02*
X105228571Y-92828571D01*
X105171428Y-92885714D01*
X105057142Y-92942857D01*
X104885714Y-92942857D01*
X104771428Y-92885714D01*
X104714285Y-92828571D01*
X104657142Y-92714285D01*
X104657142Y-92257142D01*
X105857142Y-92257142D01*
X105857142Y-92657142D01*
X105800000Y-92771428D01*
X105742857Y-92828571D01*
X105628571Y-92885714D01*
X105514285Y-92885714D01*
X105400000Y-92828571D01*
X105342857Y-92771428D01*
X105285714Y-92657142D01*
X105285714Y-92257142D01*
X104542857Y-93171428D02*
X104542857Y-94085714D01*
X104657142Y-95000000D02*
X104657142Y-94314285D01*
X104657142Y-94657142D02*
X105857142Y-94657142D01*
X105685714Y-94542857D01*
X105571428Y-94428571D01*
X105514285Y-94314285D01*
X138064285Y-76778571D02*
X138007142Y-76835714D01*
X137835714Y-76892857D01*
X137721428Y-76892857D01*
X137550000Y-76835714D01*
X137435714Y-76721428D01*
X137378571Y-76607142D01*
X137321428Y-76378571D01*
X137321428Y-76207142D01*
X137378571Y-75978571D01*
X137435714Y-75864285D01*
X137550000Y-75750000D01*
X137721428Y-75692857D01*
X137835714Y-75692857D01*
X138007142Y-75750000D01*
X138064285Y-75807142D01*
X138521428Y-76550000D02*
X139092857Y-76550000D01*
X138407142Y-76892857D02*
X138807142Y-75692857D01*
X139207142Y-76892857D01*
X139607142Y-76892857D02*
X139607142Y-75692857D01*
X140007142Y-76550000D01*
X140407142Y-75692857D01*
X140407142Y-76892857D01*
X140978571Y-76264285D02*
X141378571Y-76264285D01*
X141550000Y-76892857D02*
X140978571Y-76892857D01*
X140978571Y-75692857D01*
X141550000Y-75692857D01*
X142750000Y-76892857D02*
X142350000Y-76321428D01*
X142064285Y-76892857D02*
X142064285Y-75692857D01*
X142521428Y-75692857D01*
X142635714Y-75750000D01*
X142692857Y-75807142D01*
X142750000Y-75921428D01*
X142750000Y-76092857D01*
X142692857Y-76207142D01*
X142635714Y-76264285D01*
X142521428Y-76321428D01*
X142064285Y-76321428D01*
X143207142Y-76550000D02*
X143778571Y-76550000D01*
X143092857Y-76892857D02*
X143492857Y-75692857D01*
X143892857Y-76892857D01*
D10*
X199785595Y-119152380D02*
X199785595Y-118152380D01*
X200452261Y-118152380D02*
X200642738Y-118152380D01*
X200737976Y-118200000D01*
X200833214Y-118295238D01*
X200880833Y-118485714D01*
X200880833Y-118819047D01*
X200833214Y-119009523D01*
X200737976Y-119104761D01*
X200642738Y-119152380D01*
X200452261Y-119152380D01*
X200357023Y-119104761D01*
X200261785Y-119009523D01*
X200214166Y-118819047D01*
X200214166Y-118485714D01*
X200261785Y-118295238D01*
X200357023Y-118200000D01*
X200452261Y-118152380D01*
X201737976Y-118485714D02*
X201737976Y-119152380D01*
X201499880Y-118104761D02*
X201261785Y-118819047D01*
X201880833Y-118819047D01*
X202690357Y-118485714D02*
X202690357Y-119152380D01*
X202452261Y-118104761D02*
X202214166Y-118819047D01*
X202833214Y-118819047D01*
X142952380Y-69714404D02*
X141952380Y-69714404D01*
X141952380Y-69047738D02*
X141952380Y-68857261D01*
X142000000Y-68762023D01*
X142095238Y-68666785D01*
X142285714Y-68619166D01*
X142619047Y-68619166D01*
X142809523Y-68666785D01*
X142904761Y-68762023D01*
X142952380Y-68857261D01*
X142952380Y-69047738D01*
X142904761Y-69142976D01*
X142809523Y-69238214D01*
X142619047Y-69285833D01*
X142285714Y-69285833D01*
X142095238Y-69238214D01*
X142000000Y-69142976D01*
X141952380Y-69047738D01*
X142952380Y-67666785D02*
X142952380Y-68238214D01*
X142952380Y-67952500D02*
X141952380Y-67952500D01*
X142095238Y-68047738D01*
X142190476Y-68142976D01*
X142238095Y-68238214D01*
D11*
X88142857Y-68771428D02*
X88142857Y-69000000D01*
X88200000Y-69114285D01*
X88257142Y-69171428D01*
X88428571Y-69285714D01*
X88657142Y-69342857D01*
X89114285Y-69342857D01*
X89228571Y-69285714D01*
X89285714Y-69228571D01*
X89342857Y-69114285D01*
X89342857Y-68885714D01*
X89285714Y-68771428D01*
X89228571Y-68714285D01*
X89114285Y-68657142D01*
X88828571Y-68657142D01*
X88714285Y-68714285D01*
X88657142Y-68771428D01*
X88600000Y-68885714D01*
X88600000Y-69114285D01*
X88657142Y-69228571D01*
X88714285Y-69285714D01*
X88828571Y-69342857D01*
X88885714Y-67400000D02*
X88828571Y-67342857D01*
X88771428Y-67228571D01*
X88885714Y-67000000D01*
X88828571Y-66885714D01*
X88771428Y-66828571D01*
X89342857Y-64828571D02*
X89342857Y-65514285D01*
X89342857Y-65171428D02*
X88142857Y-65171428D01*
X88314285Y-65285714D01*
X88428571Y-65400000D01*
X88485714Y-65514285D01*
X88257142Y-64371428D02*
X88200000Y-64314285D01*
X88142857Y-64200000D01*
X88142857Y-63914285D01*
X88200000Y-63800000D01*
X88257142Y-63742857D01*
X88371428Y-63685714D01*
X88485714Y-63685714D01*
X88657142Y-63742857D01*
X89342857Y-64428571D01*
X89342857Y-63685714D01*
X88142857Y-63342857D02*
X89342857Y-62942857D01*
X88142857Y-62542857D01*
D10*
X150752380Y-135535595D02*
X149752380Y-135535595D01*
X149752380Y-134868928D02*
X149752380Y-134678452D01*
X149800000Y-134583214D01*
X149895238Y-134487976D01*
X150085714Y-134440357D01*
X150419047Y-134440357D01*
X150609523Y-134487976D01*
X150704761Y-134583214D01*
X150752380Y-134678452D01*
X150752380Y-134868928D01*
X150704761Y-134964166D01*
X150609523Y-135059404D01*
X150419047Y-135107023D01*
X150085714Y-135107023D01*
X149895238Y-135059404D01*
X149800000Y-134964166D01*
X149752380Y-134868928D01*
X149752380Y-133821309D02*
X149752380Y-133726071D01*
X149800000Y-133630833D01*
X149847619Y-133583214D01*
X149942857Y-133535595D01*
X150133333Y-133487976D01*
X150371428Y-133487976D01*
X150561904Y-133535595D01*
X150657142Y-133583214D01*
X150704761Y-133630833D01*
X150752380Y-133726071D01*
X150752380Y-133821309D01*
X150704761Y-133916547D01*
X150657142Y-133964166D01*
X150561904Y-134011785D01*
X150371428Y-134059404D01*
X150133333Y-134059404D01*
X149942857Y-134011785D01*
X149847619Y-133964166D01*
X149800000Y-133916547D01*
X149752380Y-133821309D01*
X173652380Y-135537976D02*
X172652380Y-135537976D01*
X172652380Y-134871309D02*
X172652380Y-134680833D01*
X172700000Y-134585595D01*
X172795238Y-134490357D01*
X172985714Y-134442738D01*
X173319047Y-134442738D01*
X173509523Y-134490357D01*
X173604761Y-134585595D01*
X173652380Y-134680833D01*
X173652380Y-134871309D01*
X173604761Y-134966547D01*
X173509523Y-135061785D01*
X173319047Y-135109404D01*
X172985714Y-135109404D01*
X172795238Y-135061785D01*
X172700000Y-134966547D01*
X172652380Y-134871309D01*
X173652380Y-133490357D02*
X173652380Y-134061785D01*
X173652380Y-133776071D02*
X172652380Y-133776071D01*
X172795238Y-133871309D01*
X172890476Y-133966547D01*
X172938095Y-134061785D01*
X173080952Y-132918928D02*
X173033333Y-133014166D01*
X172985714Y-133061785D01*
X172890476Y-133109404D01*
X172842857Y-133109404D01*
X172747619Y-133061785D01*
X172700000Y-133014166D01*
X172652380Y-132918928D01*
X172652380Y-132728452D01*
X172700000Y-132633214D01*
X172747619Y-132585595D01*
X172842857Y-132537976D01*
X172890476Y-132537976D01*
X172985714Y-132585595D01*
X173033333Y-132633214D01*
X173080952Y-132728452D01*
X173080952Y-132918928D01*
X173128571Y-133014166D01*
X173176190Y-133061785D01*
X173271428Y-133109404D01*
X173461904Y-133109404D01*
X173557142Y-133061785D01*
X173604761Y-133014166D01*
X173652380Y-132918928D01*
X173652380Y-132728452D01*
X173604761Y-132633214D01*
X173557142Y-132585595D01*
X173461904Y-132537976D01*
X173271428Y-132537976D01*
X173176190Y-132585595D01*
X173128571Y-132633214D01*
X173080952Y-132728452D01*
X176152380Y-135537976D02*
X175152380Y-135537976D01*
X175152380Y-134871309D02*
X175152380Y-134680833D01*
X175200000Y-134585595D01*
X175295238Y-134490357D01*
X175485714Y-134442738D01*
X175819047Y-134442738D01*
X176009523Y-134490357D01*
X176104761Y-134585595D01*
X176152380Y-134680833D01*
X176152380Y-134871309D01*
X176104761Y-134966547D01*
X176009523Y-135061785D01*
X175819047Y-135109404D01*
X175485714Y-135109404D01*
X175295238Y-135061785D01*
X175200000Y-134966547D01*
X175152380Y-134871309D01*
X175247619Y-134061785D02*
X175200000Y-134014166D01*
X175152380Y-133918928D01*
X175152380Y-133680833D01*
X175200000Y-133585595D01*
X175247619Y-133537976D01*
X175342857Y-133490357D01*
X175438095Y-133490357D01*
X175580952Y-133537976D01*
X176152380Y-134109404D01*
X176152380Y-133490357D01*
X175152380Y-132871309D02*
X175152380Y-132776071D01*
X175200000Y-132680833D01*
X175247619Y-132633214D01*
X175342857Y-132585595D01*
X175533333Y-132537976D01*
X175771428Y-132537976D01*
X175961904Y-132585595D01*
X176057142Y-132633214D01*
X176104761Y-132680833D01*
X176152380Y-132776071D01*
X176152380Y-132871309D01*
X176104761Y-132966547D01*
X176057142Y-133014166D01*
X175961904Y-133061785D01*
X175771428Y-133109404D01*
X175533333Y-133109404D01*
X175342857Y-133061785D01*
X175247619Y-133014166D01*
X175200000Y-132966547D01*
X175152380Y-132871309D01*
X138152380Y-137390476D02*
X138152380Y-137866666D01*
X138628571Y-137914285D01*
X138580952Y-137866666D01*
X138533333Y-137771428D01*
X138533333Y-137533333D01*
X138580952Y-137438095D01*
X138628571Y-137390476D01*
X138723809Y-137342857D01*
X138961904Y-137342857D01*
X139057142Y-137390476D01*
X139104761Y-137438095D01*
X139152380Y-137533333D01*
X139152380Y-137771428D01*
X139104761Y-137866666D01*
X139057142Y-137914285D01*
X138152380Y-137057142D02*
X139152380Y-136723809D01*
X138152380Y-136390476D01*
X163452380Y-131537976D02*
X162452380Y-131537976D01*
X162452380Y-130871309D02*
X162452380Y-130680833D01*
X162500000Y-130585595D01*
X162595238Y-130490357D01*
X162785714Y-130442738D01*
X163119047Y-130442738D01*
X163309523Y-130490357D01*
X163404761Y-130585595D01*
X163452380Y-130680833D01*
X163452380Y-130871309D01*
X163404761Y-130966547D01*
X163309523Y-131061785D01*
X163119047Y-131109404D01*
X162785714Y-131109404D01*
X162595238Y-131061785D01*
X162500000Y-130966547D01*
X162452380Y-130871309D01*
X163452380Y-129490357D02*
X163452380Y-130061785D01*
X163452380Y-129776071D02*
X162452380Y-129776071D01*
X162595238Y-129871309D01*
X162690476Y-129966547D01*
X162738095Y-130061785D01*
X163452380Y-128537976D02*
X163452380Y-129109404D01*
X163452380Y-128823690D02*
X162452380Y-128823690D01*
X162595238Y-128918928D01*
X162690476Y-129014166D01*
X162738095Y-129109404D01*
X140352380Y-74464404D02*
X139352380Y-74464404D01*
X139352380Y-73797738D02*
X139352380Y-73607261D01*
X139400000Y-73512023D01*
X139495238Y-73416785D01*
X139685714Y-73369166D01*
X140019047Y-73369166D01*
X140209523Y-73416785D01*
X140304761Y-73512023D01*
X140352380Y-73607261D01*
X140352380Y-73797738D01*
X140304761Y-73892976D01*
X140209523Y-73988214D01*
X140019047Y-74035833D01*
X139685714Y-74035833D01*
X139495238Y-73988214D01*
X139400000Y-73892976D01*
X139352380Y-73797738D01*
X140352380Y-72416785D02*
X140352380Y-72988214D01*
X140352380Y-72702500D02*
X139352380Y-72702500D01*
X139495238Y-72797738D01*
X139590476Y-72892976D01*
X139638095Y-72988214D01*
X139447619Y-72035833D02*
X139400000Y-71988214D01*
X139352380Y-71892976D01*
X139352380Y-71654880D01*
X139400000Y-71559642D01*
X139447619Y-71512023D01*
X139542857Y-71464404D01*
X139638095Y-71464404D01*
X139780952Y-71512023D01*
X140352380Y-72083452D01*
X140352380Y-71464404D01*
X135252380Y-70714404D02*
X134252380Y-70714404D01*
X134252380Y-70047738D02*
X134252380Y-69857261D01*
X134300000Y-69762023D01*
X134395238Y-69666785D01*
X134585714Y-69619166D01*
X134919047Y-69619166D01*
X135109523Y-69666785D01*
X135204761Y-69762023D01*
X135252380Y-69857261D01*
X135252380Y-70047738D01*
X135204761Y-70142976D01*
X135109523Y-70238214D01*
X134919047Y-70285833D01*
X134585714Y-70285833D01*
X134395238Y-70238214D01*
X134300000Y-70142976D01*
X134252380Y-70047738D01*
X135252380Y-68666785D02*
X135252380Y-69238214D01*
X135252380Y-68952500D02*
X134252380Y-68952500D01*
X134395238Y-69047738D01*
X134490476Y-69142976D01*
X134538095Y-69238214D01*
X134252380Y-67762023D02*
X134252380Y-68238214D01*
X134728571Y-68285833D01*
X134680952Y-68238214D01*
X134633333Y-68142976D01*
X134633333Y-67904880D01*
X134680952Y-67809642D01*
X134728571Y-67762023D01*
X134823809Y-67714404D01*
X135061904Y-67714404D01*
X135157142Y-67762023D01*
X135204761Y-67809642D01*
X135252380Y-67904880D01*
X135252380Y-68142976D01*
X135204761Y-68238214D01*
X135157142Y-68285833D01*
X155852380Y-131500000D02*
X154852380Y-131500000D01*
X154852380Y-130833333D02*
X154852380Y-130642857D01*
X154900000Y-130547619D01*
X154995238Y-130452380D01*
X155185714Y-130404761D01*
X155519047Y-130404761D01*
X155709523Y-130452380D01*
X155804761Y-130547619D01*
X155852380Y-130642857D01*
X155852380Y-130833333D01*
X155804761Y-130928571D01*
X155709523Y-131023809D01*
X155519047Y-131071428D01*
X155185714Y-131071428D01*
X154995238Y-131023809D01*
X154900000Y-130928571D01*
X154852380Y-130833333D01*
X154852380Y-129500000D02*
X154852380Y-129976190D01*
X155328571Y-130023809D01*
X155280952Y-129976190D01*
X155233333Y-129880952D01*
X155233333Y-129642857D01*
X155280952Y-129547619D01*
X155328571Y-129500000D01*
X155423809Y-129452380D01*
X155661904Y-129452380D01*
X155757142Y-129500000D01*
X155804761Y-129547619D01*
X155852380Y-129642857D01*
X155852380Y-129880952D01*
X155804761Y-129976190D01*
X155757142Y-130023809D01*
X140352380Y-70714404D02*
X139352380Y-70714404D01*
X139352380Y-70047738D02*
X139352380Y-69857261D01*
X139400000Y-69762023D01*
X139495238Y-69666785D01*
X139685714Y-69619166D01*
X140019047Y-69619166D01*
X140209523Y-69666785D01*
X140304761Y-69762023D01*
X140352380Y-69857261D01*
X140352380Y-70047738D01*
X140304761Y-70142976D01*
X140209523Y-70238214D01*
X140019047Y-70285833D01*
X139685714Y-70285833D01*
X139495238Y-70238214D01*
X139400000Y-70142976D01*
X139352380Y-70047738D01*
X140352380Y-68666785D02*
X140352380Y-69238214D01*
X140352380Y-68952500D02*
X139352380Y-68952500D01*
X139495238Y-69047738D01*
X139590476Y-69142976D01*
X139638095Y-69238214D01*
X139685714Y-67809642D02*
X140352380Y-67809642D01*
X139304761Y-68047738D02*
X140019047Y-68285833D01*
X140019047Y-67666785D01*
D11*
X97257142Y-121728571D02*
X97257142Y-121957142D01*
X97200000Y-122071428D01*
X97085714Y-122185714D01*
X96857142Y-122242857D01*
X96457142Y-122242857D01*
X96228571Y-122185714D01*
X96114285Y-122071428D01*
X96057142Y-121957142D01*
X96057142Y-121728571D01*
X96114285Y-121614285D01*
X96228571Y-121500000D01*
X96457142Y-121442857D01*
X96857142Y-121442857D01*
X97085714Y-121500000D01*
X97200000Y-121614285D01*
X97257142Y-121728571D01*
X97257142Y-122585714D02*
X97257142Y-123271428D01*
X96057142Y-122928571D02*
X97257142Y-122928571D01*
X97200000Y-124300000D02*
X97257142Y-124185714D01*
X97257142Y-124014285D01*
X97200000Y-123842857D01*
X97085714Y-123728571D01*
X96971428Y-123671428D01*
X96742857Y-123614285D01*
X96571428Y-123614285D01*
X96342857Y-123671428D01*
X96228571Y-123728571D01*
X96114285Y-123842857D01*
X96057142Y-124014285D01*
X96057142Y-124128571D01*
X96114285Y-124300000D01*
X96171428Y-124357142D01*
X96571428Y-124357142D01*
X96571428Y-124128571D01*
D10*
X194285714Y-103904761D02*
X194428571Y-103952380D01*
X194666666Y-103952380D01*
X194761904Y-103904761D01*
X194809523Y-103857142D01*
X194857142Y-103761904D01*
X194857142Y-103666666D01*
X194809523Y-103571428D01*
X194761904Y-103523809D01*
X194666666Y-103476190D01*
X194476190Y-103428571D01*
X194380952Y-103380952D01*
X194333333Y-103333333D01*
X194285714Y-103238095D01*
X194285714Y-103142857D01*
X194333333Y-103047619D01*
X194380952Y-103000000D01*
X194476190Y-102952380D01*
X194714285Y-102952380D01*
X194857142Y-103000000D01*
X195142857Y-102952380D02*
X195476190Y-103952380D01*
X195809523Y-102952380D01*
X160952380Y-131535595D02*
X159952380Y-131535595D01*
X159952380Y-130868928D02*
X159952380Y-130678452D01*
X160000000Y-130583214D01*
X160095238Y-130487976D01*
X160285714Y-130440357D01*
X160619047Y-130440357D01*
X160809523Y-130487976D01*
X160904761Y-130583214D01*
X160952380Y-130678452D01*
X160952380Y-130868928D01*
X160904761Y-130964166D01*
X160809523Y-131059404D01*
X160619047Y-131107023D01*
X160285714Y-131107023D01*
X160095238Y-131059404D01*
X160000000Y-130964166D01*
X159952380Y-130868928D01*
X160952380Y-129964166D02*
X160952380Y-129773690D01*
X160904761Y-129678452D01*
X160857142Y-129630833D01*
X160714285Y-129535595D01*
X160523809Y-129487976D01*
X160142857Y-129487976D01*
X160047619Y-129535595D01*
X160000000Y-129583214D01*
X159952380Y-129678452D01*
X159952380Y-129868928D01*
X160000000Y-129964166D01*
X160047619Y-130011785D01*
X160142857Y-130059404D01*
X160380952Y-130059404D01*
X160476190Y-130011785D01*
X160523809Y-129964166D01*
X160571428Y-129868928D01*
X160571428Y-129678452D01*
X160523809Y-129583214D01*
X160476190Y-129535595D01*
X160380952Y-129487976D01*
X97102380Y-135600000D02*
X96102380Y-135600000D01*
X96102380Y-134933333D02*
X96102380Y-134742857D01*
X96150000Y-134647619D01*
X96245238Y-134552380D01*
X96435714Y-134504761D01*
X96769047Y-134504761D01*
X96959523Y-134552380D01*
X97054761Y-134647619D01*
X97102380Y-134742857D01*
X97102380Y-134933333D01*
X97054761Y-135028571D01*
X96959523Y-135123809D01*
X96769047Y-135171428D01*
X96435714Y-135171428D01*
X96245238Y-135123809D01*
X96150000Y-135028571D01*
X96102380Y-134933333D01*
X96197619Y-134123809D02*
X96150000Y-134076190D01*
X96102380Y-133980952D01*
X96102380Y-133742857D01*
X96150000Y-133647619D01*
X96197619Y-133600000D01*
X96292857Y-133552380D01*
X96388095Y-133552380D01*
X96530952Y-133600000D01*
X97102380Y-134171428D01*
X97102380Y-133552380D01*
X145800000Y-137361904D02*
X145752380Y-137457142D01*
X145752380Y-137600000D01*
X145800000Y-137742857D01*
X145895238Y-137838095D01*
X145990476Y-137885714D01*
X146180952Y-137933333D01*
X146323809Y-137933333D01*
X146514285Y-137885714D01*
X146609523Y-137838095D01*
X146704761Y-137742857D01*
X146752380Y-137600000D01*
X146752380Y-137504761D01*
X146704761Y-137361904D01*
X146657142Y-137314285D01*
X146323809Y-137314285D01*
X146323809Y-137504761D01*
X146752380Y-136885714D02*
X145752380Y-136885714D01*
X146752380Y-136314285D01*
X145752380Y-136314285D01*
X146752380Y-135838095D02*
X145752380Y-135838095D01*
X145752380Y-135600000D01*
X145800000Y-135457142D01*
X145895238Y-135361904D01*
X145990476Y-135314285D01*
X146180952Y-135266666D01*
X146323809Y-135266666D01*
X146514285Y-135314285D01*
X146609523Y-135361904D01*
X146704761Y-135457142D01*
X146752380Y-135600000D01*
X146752380Y-135838095D01*
X186352380Y-135537976D02*
X185352380Y-135537976D01*
X185352380Y-134871309D02*
X185352380Y-134680833D01*
X185400000Y-134585595D01*
X185495238Y-134490357D01*
X185685714Y-134442738D01*
X186019047Y-134442738D01*
X186209523Y-134490357D01*
X186304761Y-134585595D01*
X186352380Y-134680833D01*
X186352380Y-134871309D01*
X186304761Y-134966547D01*
X186209523Y-135061785D01*
X186019047Y-135109404D01*
X185685714Y-135109404D01*
X185495238Y-135061785D01*
X185400000Y-134966547D01*
X185352380Y-134871309D01*
X185352380Y-134109404D02*
X185352380Y-133490357D01*
X185733333Y-133823690D01*
X185733333Y-133680833D01*
X185780952Y-133585595D01*
X185828571Y-133537976D01*
X185923809Y-133490357D01*
X186161904Y-133490357D01*
X186257142Y-133537976D01*
X186304761Y-133585595D01*
X186352380Y-133680833D01*
X186352380Y-133966547D01*
X186304761Y-134061785D01*
X186257142Y-134109404D01*
X185780952Y-132918928D02*
X185733333Y-133014166D01*
X185685714Y-133061785D01*
X185590476Y-133109404D01*
X185542857Y-133109404D01*
X185447619Y-133061785D01*
X185400000Y-133014166D01*
X185352380Y-132918928D01*
X185352380Y-132728452D01*
X185400000Y-132633214D01*
X185447619Y-132585595D01*
X185542857Y-132537976D01*
X185590476Y-132537976D01*
X185685714Y-132585595D01*
X185733333Y-132633214D01*
X185780952Y-132728452D01*
X185780952Y-132918928D01*
X185828571Y-133014166D01*
X185876190Y-133061785D01*
X185971428Y-133109404D01*
X186161904Y-133109404D01*
X186257142Y-133061785D01*
X186304761Y-133014166D01*
X186352380Y-132918928D01*
X186352380Y-132728452D01*
X186304761Y-132633214D01*
X186257142Y-132585595D01*
X186161904Y-132537976D01*
X185971428Y-132537976D01*
X185876190Y-132585595D01*
X185828571Y-132633214D01*
X185780952Y-132728452D01*
X153252380Y-135535595D02*
X152252380Y-135535595D01*
X152252380Y-134868928D02*
X152252380Y-134678452D01*
X152300000Y-134583214D01*
X152395238Y-134487976D01*
X152585714Y-134440357D01*
X152919047Y-134440357D01*
X153109523Y-134487976D01*
X153204761Y-134583214D01*
X153252380Y-134678452D01*
X153252380Y-134868928D01*
X153204761Y-134964166D01*
X153109523Y-135059404D01*
X152919047Y-135107023D01*
X152585714Y-135107023D01*
X152395238Y-135059404D01*
X152300000Y-134964166D01*
X152252380Y-134868928D01*
X152347619Y-134059404D02*
X152300000Y-134011785D01*
X152252380Y-133916547D01*
X152252380Y-133678452D01*
X152300000Y-133583214D01*
X152347619Y-133535595D01*
X152442857Y-133487976D01*
X152538095Y-133487976D01*
X152680952Y-133535595D01*
X153252380Y-134107023D01*
X153252380Y-133487976D01*
X199835595Y-90152380D02*
X199835595Y-89152380D01*
X200502261Y-89152380D02*
X200692738Y-89152380D01*
X200787976Y-89200000D01*
X200883214Y-89295238D01*
X200930833Y-89485714D01*
X200930833Y-89819047D01*
X200883214Y-90009523D01*
X200787976Y-90104761D01*
X200692738Y-90152380D01*
X200502261Y-90152380D01*
X200407023Y-90104761D01*
X200311785Y-90009523D01*
X200264166Y-89819047D01*
X200264166Y-89485714D01*
X200311785Y-89295238D01*
X200407023Y-89200000D01*
X200502261Y-89152380D01*
X201787976Y-89485714D02*
X201787976Y-90152380D01*
X201549880Y-89104761D02*
X201311785Y-89819047D01*
X201930833Y-89819047D01*
X202502261Y-89152380D02*
X202597500Y-89152380D01*
X202692738Y-89200000D01*
X202740357Y-89247619D01*
X202787976Y-89342857D01*
X202835595Y-89533333D01*
X202835595Y-89771428D01*
X202787976Y-89961904D01*
X202740357Y-90057142D01*
X202692738Y-90104761D01*
X202597500Y-90152380D01*
X202502261Y-90152380D01*
X202407023Y-90104761D01*
X202359404Y-90057142D01*
X202311785Y-89961904D01*
X202264166Y-89771428D01*
X202264166Y-89533333D01*
X202311785Y-89342857D01*
X202359404Y-89247619D01*
X202407023Y-89200000D01*
X202502261Y-89152380D01*
X193952380Y-131537976D02*
X192952380Y-131537976D01*
X192952380Y-130871309D02*
X192952380Y-130680833D01*
X193000000Y-130585595D01*
X193095238Y-130490357D01*
X193285714Y-130442738D01*
X193619047Y-130442738D01*
X193809523Y-130490357D01*
X193904761Y-130585595D01*
X193952380Y-130680833D01*
X193952380Y-130871309D01*
X193904761Y-130966547D01*
X193809523Y-131061785D01*
X193619047Y-131109404D01*
X193285714Y-131109404D01*
X193095238Y-131061785D01*
X193000000Y-130966547D01*
X192952380Y-130871309D01*
X193285714Y-129585595D02*
X193952380Y-129585595D01*
X192904761Y-129823690D02*
X193619047Y-130061785D01*
X193619047Y-129442738D01*
X192952380Y-128585595D02*
X192952380Y-129061785D01*
X193428571Y-129109404D01*
X193380952Y-129061785D01*
X193333333Y-128966547D01*
X193333333Y-128728452D01*
X193380952Y-128633214D01*
X193428571Y-128585595D01*
X193523809Y-128537976D01*
X193761904Y-128537976D01*
X193857142Y-128585595D01*
X193904761Y-128633214D01*
X193952380Y-128728452D01*
X193952380Y-128966547D01*
X193904761Y-129061785D01*
X193857142Y-129109404D01*
X132752380Y-70714404D02*
X131752380Y-70714404D01*
X131752380Y-70047738D02*
X131752380Y-69857261D01*
X131800000Y-69762023D01*
X131895238Y-69666785D01*
X132085714Y-69619166D01*
X132419047Y-69619166D01*
X132609523Y-69666785D01*
X132704761Y-69762023D01*
X132752380Y-69857261D01*
X132752380Y-70047738D01*
X132704761Y-70142976D01*
X132609523Y-70238214D01*
X132419047Y-70285833D01*
X132085714Y-70285833D01*
X131895238Y-70238214D01*
X131800000Y-70142976D01*
X131752380Y-70047738D01*
X131752380Y-69285833D02*
X131752380Y-68666785D01*
X132133333Y-69000119D01*
X132133333Y-68857261D01*
X132180952Y-68762023D01*
X132228571Y-68714404D01*
X132323809Y-68666785D01*
X132561904Y-68666785D01*
X132657142Y-68714404D01*
X132704761Y-68762023D01*
X132752380Y-68857261D01*
X132752380Y-69142976D01*
X132704761Y-69238214D01*
X132657142Y-69285833D01*
X132752380Y-68190595D02*
X132752380Y-68000119D01*
X132704761Y-67904880D01*
X132657142Y-67857261D01*
X132514285Y-67762023D01*
X132323809Y-67714404D01*
X131942857Y-67714404D01*
X131847619Y-67762023D01*
X131800000Y-67809642D01*
X131752380Y-67904880D01*
X131752380Y-68095357D01*
X131800000Y-68190595D01*
X131847619Y-68238214D01*
X131942857Y-68285833D01*
X132180952Y-68285833D01*
X132276190Y-68238214D01*
X132323809Y-68190595D01*
X132371428Y-68095357D01*
X132371428Y-67904880D01*
X132323809Y-67809642D01*
X132276190Y-67762023D01*
X132180952Y-67714404D01*
X191452380Y-131537976D02*
X190452380Y-131537976D01*
X190452380Y-130871309D02*
X190452380Y-130680833D01*
X190500000Y-130585595D01*
X190595238Y-130490357D01*
X190785714Y-130442738D01*
X191119047Y-130442738D01*
X191309523Y-130490357D01*
X191404761Y-130585595D01*
X191452380Y-130680833D01*
X191452380Y-130871309D01*
X191404761Y-130966547D01*
X191309523Y-131061785D01*
X191119047Y-131109404D01*
X190785714Y-131109404D01*
X190595238Y-131061785D01*
X190500000Y-130966547D01*
X190452380Y-130871309D01*
X190785714Y-129585595D02*
X191452380Y-129585595D01*
X190404761Y-129823690D02*
X191119047Y-130061785D01*
X191119047Y-129442738D01*
X190452380Y-129157023D02*
X190452380Y-128537976D01*
X190833333Y-128871309D01*
X190833333Y-128728452D01*
X190880952Y-128633214D01*
X190928571Y-128585595D01*
X191023809Y-128537976D01*
X191261904Y-128537976D01*
X191357142Y-128585595D01*
X191404761Y-128633214D01*
X191452380Y-128728452D01*
X191452380Y-129014166D01*
X191404761Y-129109404D01*
X191357142Y-129157023D01*
X125152380Y-70714404D02*
X124152380Y-70714404D01*
X124152380Y-70047738D02*
X124152380Y-69857261D01*
X124200000Y-69762023D01*
X124295238Y-69666785D01*
X124485714Y-69619166D01*
X124819047Y-69619166D01*
X125009523Y-69666785D01*
X125104761Y-69762023D01*
X125152380Y-69857261D01*
X125152380Y-70047738D01*
X125104761Y-70142976D01*
X125009523Y-70238214D01*
X124819047Y-70285833D01*
X124485714Y-70285833D01*
X124295238Y-70238214D01*
X124200000Y-70142976D01*
X124152380Y-70047738D01*
X124485714Y-68762023D02*
X125152380Y-68762023D01*
X124104761Y-69000119D02*
X124819047Y-69238214D01*
X124819047Y-68619166D01*
X125152380Y-67714404D02*
X125152380Y-68285833D01*
X125152380Y-68000119D02*
X124152380Y-68000119D01*
X124295238Y-68095357D01*
X124390476Y-68190595D01*
X124438095Y-68285833D01*
X158352380Y-131500000D02*
X157352380Y-131500000D01*
X157352380Y-130833333D02*
X157352380Y-130642857D01*
X157400000Y-130547619D01*
X157495238Y-130452380D01*
X157685714Y-130404761D01*
X158019047Y-130404761D01*
X158209523Y-130452380D01*
X158304761Y-130547619D01*
X158352380Y-130642857D01*
X158352380Y-130833333D01*
X158304761Y-130928571D01*
X158209523Y-131023809D01*
X158019047Y-131071428D01*
X157685714Y-131071428D01*
X157495238Y-131023809D01*
X157400000Y-130928571D01*
X157352380Y-130833333D01*
X157352380Y-130071428D02*
X157352380Y-129404761D01*
X158352380Y-129833333D01*
X197428571Y-79507142D02*
X197476190Y-79364285D01*
X197523809Y-79316666D01*
X197619047Y-79269047D01*
X197761904Y-79269047D01*
X197857142Y-79316666D01*
X197904761Y-79364285D01*
X197952380Y-79459523D01*
X197952380Y-79840476D01*
X196952380Y-79840476D01*
X196952380Y-79507142D01*
X197000000Y-79411904D01*
X197047619Y-79364285D01*
X197142857Y-79316666D01*
X197238095Y-79316666D01*
X197333333Y-79364285D01*
X197380952Y-79411904D01*
X197428571Y-79507142D01*
X197428571Y-79840476D01*
X196952380Y-78650000D02*
X196952380Y-78459523D01*
X197000000Y-78364285D01*
X197095238Y-78269047D01*
X197285714Y-78221428D01*
X197619047Y-78221428D01*
X197809523Y-78269047D01*
X197904761Y-78364285D01*
X197952380Y-78459523D01*
X197952380Y-78650000D01*
X197904761Y-78745238D01*
X197809523Y-78840476D01*
X197619047Y-78888095D01*
X197285714Y-78888095D01*
X197095238Y-78840476D01*
X197000000Y-78745238D01*
X196952380Y-78650000D01*
X196952380Y-77602380D02*
X196952380Y-77411904D01*
X197000000Y-77316666D01*
X197095238Y-77221428D01*
X197285714Y-77173809D01*
X197619047Y-77173809D01*
X197809523Y-77221428D01*
X197904761Y-77316666D01*
X197952380Y-77411904D01*
X197952380Y-77602380D01*
X197904761Y-77697619D01*
X197809523Y-77792857D01*
X197619047Y-77840476D01*
X197285714Y-77840476D01*
X197095238Y-77792857D01*
X197000000Y-77697619D01*
X196952380Y-77602380D01*
X196952380Y-76888095D02*
X196952380Y-76316666D01*
X197952380Y-76602380D02*
X196952380Y-76602380D01*
X121652380Y-73909642D02*
X121652380Y-73290595D01*
X122033333Y-73623928D01*
X122033333Y-73481071D01*
X122080952Y-73385833D01*
X122128571Y-73338214D01*
X122223809Y-73290595D01*
X122461904Y-73290595D01*
X122557142Y-73338214D01*
X122604761Y-73385833D01*
X122652380Y-73481071D01*
X122652380Y-73766785D01*
X122604761Y-73862023D01*
X122557142Y-73909642D01*
X121652380Y-73004880D02*
X122652380Y-72671547D01*
X121652380Y-72338214D01*
X121652380Y-72100119D02*
X121652380Y-71481071D01*
X122033333Y-71814404D01*
X122033333Y-71671547D01*
X122080952Y-71576309D01*
X122128571Y-71528690D01*
X122223809Y-71481071D01*
X122461904Y-71481071D01*
X122557142Y-71528690D01*
X122604761Y-71576309D01*
X122652380Y-71671547D01*
X122652380Y-71957261D01*
X122604761Y-72052500D01*
X122557142Y-72100119D01*
X143300000Y-137361904D02*
X143252380Y-137457142D01*
X143252380Y-137600000D01*
X143300000Y-137742857D01*
X143395238Y-137838095D01*
X143490476Y-137885714D01*
X143680952Y-137933333D01*
X143823809Y-137933333D01*
X144014285Y-137885714D01*
X144109523Y-137838095D01*
X144204761Y-137742857D01*
X144252380Y-137600000D01*
X144252380Y-137504761D01*
X144204761Y-137361904D01*
X144157142Y-137314285D01*
X143823809Y-137314285D01*
X143823809Y-137504761D01*
X144252380Y-136885714D02*
X143252380Y-136885714D01*
X144252380Y-136314285D01*
X143252380Y-136314285D01*
X144252380Y-135838095D02*
X143252380Y-135838095D01*
X143252380Y-135600000D01*
X143300000Y-135457142D01*
X143395238Y-135361904D01*
X143490476Y-135314285D01*
X143680952Y-135266666D01*
X143823809Y-135266666D01*
X144014285Y-135314285D01*
X144109523Y-135361904D01*
X144204761Y-135457142D01*
X144252380Y-135600000D01*
X144252380Y-135838095D01*
X127652380Y-69814404D02*
X126652380Y-69814404D01*
X126652380Y-69147738D02*
X126652380Y-68957261D01*
X126700000Y-68862023D01*
X126795238Y-68766785D01*
X126985714Y-68719166D01*
X127319047Y-68719166D01*
X127509523Y-68766785D01*
X127604761Y-68862023D01*
X127652380Y-68957261D01*
X127652380Y-69147738D01*
X127604761Y-69242976D01*
X127509523Y-69338214D01*
X127319047Y-69385833D01*
X126985714Y-69385833D01*
X126795238Y-69338214D01*
X126700000Y-69242976D01*
X126652380Y-69147738D01*
X126985714Y-67862023D02*
X127652380Y-67862023D01*
X126604761Y-68100119D02*
X127319047Y-68338214D01*
X127319047Y-67719166D01*
X171152380Y-135537976D02*
X170152380Y-135537976D01*
X170152380Y-134871309D02*
X170152380Y-134680833D01*
X170200000Y-134585595D01*
X170295238Y-134490357D01*
X170485714Y-134442738D01*
X170819047Y-134442738D01*
X171009523Y-134490357D01*
X171104761Y-134585595D01*
X171152380Y-134680833D01*
X171152380Y-134871309D01*
X171104761Y-134966547D01*
X171009523Y-135061785D01*
X170819047Y-135109404D01*
X170485714Y-135109404D01*
X170295238Y-135061785D01*
X170200000Y-134966547D01*
X170152380Y-134871309D01*
X171152380Y-133490357D02*
X171152380Y-134061785D01*
X171152380Y-133776071D02*
X170152380Y-133776071D01*
X170295238Y-133871309D01*
X170390476Y-133966547D01*
X170438095Y-134061785D01*
X170152380Y-132633214D02*
X170152380Y-132823690D01*
X170200000Y-132918928D01*
X170247619Y-132966547D01*
X170390476Y-133061785D01*
X170580952Y-133109404D01*
X170961904Y-133109404D01*
X171057142Y-133061785D01*
X171104761Y-133014166D01*
X171152380Y-132918928D01*
X171152380Y-132728452D01*
X171104761Y-132633214D01*
X171057142Y-132585595D01*
X170961904Y-132537976D01*
X170723809Y-132537976D01*
X170628571Y-132585595D01*
X170580952Y-132633214D01*
X170533333Y-132728452D01*
X170533333Y-132918928D01*
X170580952Y-133014166D01*
X170628571Y-133061785D01*
X170723809Y-133109404D01*
X168552380Y-131537976D02*
X167552380Y-131537976D01*
X167552380Y-130871309D02*
X167552380Y-130680833D01*
X167600000Y-130585595D01*
X167695238Y-130490357D01*
X167885714Y-130442738D01*
X168219047Y-130442738D01*
X168409523Y-130490357D01*
X168504761Y-130585595D01*
X168552380Y-130680833D01*
X168552380Y-130871309D01*
X168504761Y-130966547D01*
X168409523Y-131061785D01*
X168219047Y-131109404D01*
X167885714Y-131109404D01*
X167695238Y-131061785D01*
X167600000Y-130966547D01*
X167552380Y-130871309D01*
X168552380Y-129490357D02*
X168552380Y-130061785D01*
X168552380Y-129776071D02*
X167552380Y-129776071D01*
X167695238Y-129871309D01*
X167790476Y-129966547D01*
X167838095Y-130061785D01*
X167552380Y-128585595D02*
X167552380Y-129061785D01*
X168028571Y-129109404D01*
X167980952Y-129061785D01*
X167933333Y-128966547D01*
X167933333Y-128728452D01*
X167980952Y-128633214D01*
X168028571Y-128585595D01*
X168123809Y-128537976D01*
X168361904Y-128537976D01*
X168457142Y-128585595D01*
X168504761Y-128633214D01*
X168552380Y-128728452D01*
X168552380Y-128966547D01*
X168504761Y-129061785D01*
X168457142Y-129109404D01*
X194809523Y-100352380D02*
X194333333Y-100352380D01*
X194285714Y-100828571D01*
X194333333Y-100780952D01*
X194428571Y-100733333D01*
X194666666Y-100733333D01*
X194761904Y-100780952D01*
X194809523Y-100828571D01*
X194857142Y-100923809D01*
X194857142Y-101161904D01*
X194809523Y-101257142D01*
X194761904Y-101304761D01*
X194666666Y-101352380D01*
X194428571Y-101352380D01*
X194333333Y-101304761D01*
X194285714Y-101257142D01*
X195142857Y-100352380D02*
X195476190Y-101352380D01*
X195809523Y-100352380D01*
X196552380Y-135537976D02*
X195552380Y-135537976D01*
X195552380Y-134871309D02*
X195552380Y-134680833D01*
X195600000Y-134585595D01*
X195695238Y-134490357D01*
X195885714Y-134442738D01*
X196219047Y-134442738D01*
X196409523Y-134490357D01*
X196504761Y-134585595D01*
X196552380Y-134680833D01*
X196552380Y-134871309D01*
X196504761Y-134966547D01*
X196409523Y-135061785D01*
X196219047Y-135109404D01*
X195885714Y-135109404D01*
X195695238Y-135061785D01*
X195600000Y-134966547D01*
X195552380Y-134871309D01*
X195885714Y-133585595D02*
X196552380Y-133585595D01*
X195504761Y-133823690D02*
X196219047Y-134061785D01*
X196219047Y-133442738D01*
X195552380Y-132633214D02*
X195552380Y-132823690D01*
X195600000Y-132918928D01*
X195647619Y-132966547D01*
X195790476Y-133061785D01*
X195980952Y-133109404D01*
X196361904Y-133109404D01*
X196457142Y-133061785D01*
X196504761Y-133014166D01*
X196552380Y-132918928D01*
X196552380Y-132728452D01*
X196504761Y-132633214D01*
X196457142Y-132585595D01*
X196361904Y-132537976D01*
X196123809Y-132537976D01*
X196028571Y-132585595D01*
X195980952Y-132633214D01*
X195933333Y-132728452D01*
X195933333Y-132918928D01*
X195980952Y-133014166D01*
X196028571Y-133061785D01*
X196123809Y-133109404D01*
X199835595Y-100252380D02*
X199835595Y-99252380D01*
X200502261Y-99252380D02*
X200692738Y-99252380D01*
X200787976Y-99300000D01*
X200883214Y-99395238D01*
X200930833Y-99585714D01*
X200930833Y-99919047D01*
X200883214Y-100109523D01*
X200787976Y-100204761D01*
X200692738Y-100252380D01*
X200502261Y-100252380D01*
X200407023Y-100204761D01*
X200311785Y-100109523D01*
X200264166Y-99919047D01*
X200264166Y-99585714D01*
X200311785Y-99395238D01*
X200407023Y-99300000D01*
X200502261Y-99252380D01*
X201264166Y-99252380D02*
X201883214Y-99252380D01*
X201549880Y-99633333D01*
X201692738Y-99633333D01*
X201787976Y-99680952D01*
X201835595Y-99728571D01*
X201883214Y-99823809D01*
X201883214Y-100061904D01*
X201835595Y-100157142D01*
X201787976Y-100204761D01*
X201692738Y-100252380D01*
X201407023Y-100252380D01*
X201311785Y-100204761D01*
X201264166Y-100157142D01*
X202740357Y-99252380D02*
X202549880Y-99252380D01*
X202454642Y-99300000D01*
X202407023Y-99347619D01*
X202311785Y-99490476D01*
X202264166Y-99680952D01*
X202264166Y-100061904D01*
X202311785Y-100157142D01*
X202359404Y-100204761D01*
X202454642Y-100252380D01*
X202645119Y-100252380D01*
X202740357Y-100204761D01*
X202787976Y-100157142D01*
X202835595Y-100061904D01*
X202835595Y-99823809D01*
X202787976Y-99728571D01*
X202740357Y-99680952D01*
X202645119Y-99633333D01*
X202454642Y-99633333D01*
X202359404Y-99680952D01*
X202311785Y-99728571D01*
X202264166Y-99823809D01*
X125152380Y-74461438D02*
X124152380Y-74461438D01*
X124152380Y-73794772D02*
X124152380Y-73604295D01*
X124200000Y-73509057D01*
X124295238Y-73413819D01*
X124485714Y-73366200D01*
X124819047Y-73366200D01*
X125009523Y-73413819D01*
X125104761Y-73509057D01*
X125152380Y-73604295D01*
X125152380Y-73794772D01*
X125104761Y-73890010D01*
X125009523Y-73985248D01*
X124819047Y-74032867D01*
X124485714Y-74032867D01*
X124295238Y-73985248D01*
X124200000Y-73890010D01*
X124152380Y-73794772D01*
X125152380Y-72413819D02*
X125152380Y-72985248D01*
X125152380Y-72699534D02*
X124152380Y-72699534D01*
X124295238Y-72794772D01*
X124390476Y-72890010D01*
X124438095Y-72985248D01*
X124580952Y-71842391D02*
X124533333Y-71937629D01*
X124485714Y-71985248D01*
X124390476Y-72032867D01*
X124342857Y-72032867D01*
X124247619Y-71985248D01*
X124200000Y-71937629D01*
X124152380Y-71842391D01*
X124152380Y-71651914D01*
X124200000Y-71556676D01*
X124247619Y-71509057D01*
X124342857Y-71461438D01*
X124390476Y-71461438D01*
X124485714Y-71509057D01*
X124533333Y-71556676D01*
X124580952Y-71651914D01*
X124580952Y-71842391D01*
X124628571Y-71937629D01*
X124676190Y-71985248D01*
X124771428Y-72032867D01*
X124961904Y-72032867D01*
X125057142Y-71985248D01*
X125104761Y-71937629D01*
X125152380Y-71842391D01*
X125152380Y-71651914D01*
X125104761Y-71556676D01*
X125057142Y-71509057D01*
X124961904Y-71461438D01*
X124771428Y-71461438D01*
X124676190Y-71509057D01*
X124628571Y-71556676D01*
X124580952Y-71651914D01*
X160952380Y-135535595D02*
X159952380Y-135535595D01*
X159952380Y-134868928D02*
X159952380Y-134678452D01*
X160000000Y-134583214D01*
X160095238Y-134487976D01*
X160285714Y-134440357D01*
X160619047Y-134440357D01*
X160809523Y-134487976D01*
X160904761Y-134583214D01*
X160952380Y-134678452D01*
X160952380Y-134868928D01*
X160904761Y-134964166D01*
X160809523Y-135059404D01*
X160619047Y-135107023D01*
X160285714Y-135107023D01*
X160095238Y-135059404D01*
X160000000Y-134964166D01*
X159952380Y-134868928D01*
X160380952Y-133868928D02*
X160333333Y-133964166D01*
X160285714Y-134011785D01*
X160190476Y-134059404D01*
X160142857Y-134059404D01*
X160047619Y-134011785D01*
X160000000Y-133964166D01*
X159952380Y-133868928D01*
X159952380Y-133678452D01*
X160000000Y-133583214D01*
X160047619Y-133535595D01*
X160142857Y-133487976D01*
X160190476Y-133487976D01*
X160285714Y-133535595D01*
X160333333Y-133583214D01*
X160380952Y-133678452D01*
X160380952Y-133868928D01*
X160428571Y-133964166D01*
X160476190Y-134011785D01*
X160571428Y-134059404D01*
X160761904Y-134059404D01*
X160857142Y-134011785D01*
X160904761Y-133964166D01*
X160952380Y-133868928D01*
X160952380Y-133678452D01*
X160904761Y-133583214D01*
X160857142Y-133535595D01*
X160761904Y-133487976D01*
X160571428Y-133487976D01*
X160476190Y-133535595D01*
X160428571Y-133583214D01*
X160380952Y-133678452D01*
X137752380Y-74464404D02*
X136752380Y-74464404D01*
X136752380Y-73797738D02*
X136752380Y-73607261D01*
X136800000Y-73512023D01*
X136895238Y-73416785D01*
X137085714Y-73369166D01*
X137419047Y-73369166D01*
X137609523Y-73416785D01*
X137704761Y-73512023D01*
X137752380Y-73607261D01*
X137752380Y-73797738D01*
X137704761Y-73892976D01*
X137609523Y-73988214D01*
X137419047Y-74035833D01*
X137085714Y-74035833D01*
X136895238Y-73988214D01*
X136800000Y-73892976D01*
X136752380Y-73797738D01*
X137752380Y-72416785D02*
X137752380Y-72988214D01*
X137752380Y-72702500D02*
X136752380Y-72702500D01*
X136895238Y-72797738D01*
X136990476Y-72892976D01*
X137038095Y-72988214D01*
X136752380Y-72083452D02*
X136752380Y-71464404D01*
X137133333Y-71797738D01*
X137133333Y-71654880D01*
X137180952Y-71559642D01*
X137228571Y-71512023D01*
X137323809Y-71464404D01*
X137561904Y-71464404D01*
X137657142Y-71512023D01*
X137704761Y-71559642D01*
X137752380Y-71654880D01*
X137752380Y-71940595D01*
X137704761Y-72035833D01*
X137657142Y-72083452D01*
X150752380Y-131535595D02*
X149752380Y-131535595D01*
X149752380Y-130868928D02*
X149752380Y-130678452D01*
X149800000Y-130583214D01*
X149895238Y-130487976D01*
X150085714Y-130440357D01*
X150419047Y-130440357D01*
X150609523Y-130487976D01*
X150704761Y-130583214D01*
X150752380Y-130678452D01*
X150752380Y-130868928D01*
X150704761Y-130964166D01*
X150609523Y-131059404D01*
X150419047Y-131107023D01*
X150085714Y-131107023D01*
X149895238Y-131059404D01*
X149800000Y-130964166D01*
X149752380Y-130868928D01*
X150752380Y-129487976D02*
X150752380Y-130059404D01*
X150752380Y-129773690D02*
X149752380Y-129773690D01*
X149895238Y-129868928D01*
X149990476Y-129964166D01*
X150038095Y-130059404D01*
X199835595Y-87652380D02*
X199835595Y-86652380D01*
X200502261Y-86652380D02*
X200692738Y-86652380D01*
X200787976Y-86700000D01*
X200883214Y-86795238D01*
X200930833Y-86985714D01*
X200930833Y-87319047D01*
X200883214Y-87509523D01*
X200787976Y-87604761D01*
X200692738Y-87652380D01*
X200502261Y-87652380D01*
X200407023Y-87604761D01*
X200311785Y-87509523D01*
X200264166Y-87319047D01*
X200264166Y-86985714D01*
X200311785Y-86795238D01*
X200407023Y-86700000D01*
X200502261Y-86652380D01*
X201787976Y-86985714D02*
X201787976Y-87652380D01*
X201549880Y-86604761D02*
X201311785Y-87319047D01*
X201930833Y-87319047D01*
X202835595Y-87652380D02*
X202264166Y-87652380D01*
X202549880Y-87652380D02*
X202549880Y-86652380D01*
X202454642Y-86795238D01*
X202359404Y-86890476D01*
X202264166Y-86938095D01*
X181252380Y-135537976D02*
X180252380Y-135537976D01*
X180252380Y-134871309D02*
X180252380Y-134680833D01*
X180300000Y-134585595D01*
X180395238Y-134490357D01*
X180585714Y-134442738D01*
X180919047Y-134442738D01*
X181109523Y-134490357D01*
X181204761Y-134585595D01*
X181252380Y-134680833D01*
X181252380Y-134871309D01*
X181204761Y-134966547D01*
X181109523Y-135061785D01*
X180919047Y-135109404D01*
X180585714Y-135109404D01*
X180395238Y-135061785D01*
X180300000Y-134966547D01*
X180252380Y-134871309D01*
X180252380Y-134109404D02*
X180252380Y-133490357D01*
X180633333Y-133823690D01*
X180633333Y-133680833D01*
X180680952Y-133585595D01*
X180728571Y-133537976D01*
X180823809Y-133490357D01*
X181061904Y-133490357D01*
X181157142Y-133537976D01*
X181204761Y-133585595D01*
X181252380Y-133680833D01*
X181252380Y-133966547D01*
X181204761Y-134061785D01*
X181157142Y-134109404D01*
X180585714Y-132633214D02*
X181252380Y-132633214D01*
X180204761Y-132871309D02*
X180919047Y-133109404D01*
X180919047Y-132490357D01*
X163966666Y-94678571D02*
X164300000Y-94678571D01*
X164442857Y-95202380D02*
X163966666Y-95202380D01*
X163966666Y-94202380D01*
X164442857Y-94202380D01*
X164823809Y-95154761D02*
X164966666Y-95202380D01*
X165204761Y-95202380D01*
X165300000Y-95154761D01*
X165347619Y-95107142D01*
X165395238Y-95011904D01*
X165395238Y-94916666D01*
X165347619Y-94821428D01*
X165300000Y-94773809D01*
X165204761Y-94726190D01*
X165014285Y-94678571D01*
X164919047Y-94630952D01*
X164871428Y-94583333D01*
X164823809Y-94488095D01*
X164823809Y-94392857D01*
X164871428Y-94297619D01*
X164919047Y-94250000D01*
X165014285Y-94202380D01*
X165252380Y-94202380D01*
X165395238Y-94250000D01*
X165823809Y-95202380D02*
X165823809Y-94202380D01*
X166204761Y-94202380D01*
X166300000Y-94250000D01*
X166347619Y-94297619D01*
X166395238Y-94392857D01*
X166395238Y-94535714D01*
X166347619Y-94630952D01*
X166300000Y-94678571D01*
X166204761Y-94726190D01*
X165823809Y-94726190D01*
X166728571Y-94202380D02*
X167347619Y-94202380D01*
X167014285Y-94583333D01*
X167157142Y-94583333D01*
X167252380Y-94630952D01*
X167300000Y-94678571D01*
X167347619Y-94773809D01*
X167347619Y-95011904D01*
X167300000Y-95107142D01*
X167252380Y-95154761D01*
X167157142Y-95202380D01*
X166871428Y-95202380D01*
X166776190Y-95154761D01*
X166728571Y-95107142D01*
X167728571Y-94297619D02*
X167776190Y-94250000D01*
X167871428Y-94202380D01*
X168109523Y-94202380D01*
X168204761Y-94250000D01*
X168252380Y-94297619D01*
X168300000Y-94392857D01*
X168300000Y-94488095D01*
X168252380Y-94630952D01*
X167680952Y-95202380D01*
X168300000Y-95202380D01*
X168490476Y-95297619D02*
X169252380Y-95297619D01*
X169442857Y-95154761D02*
X169585714Y-95202380D01*
X169823809Y-95202380D01*
X169919047Y-95154761D01*
X169966666Y-95107142D01*
X170014285Y-95011904D01*
X170014285Y-94916666D01*
X169966666Y-94821428D01*
X169919047Y-94773809D01*
X169823809Y-94726190D01*
X169633333Y-94678571D01*
X169538095Y-94630952D01*
X169490476Y-94583333D01*
X169442857Y-94488095D01*
X169442857Y-94392857D01*
X169490476Y-94297619D01*
X169538095Y-94250000D01*
X169633333Y-94202380D01*
X169871428Y-94202380D01*
X170014285Y-94250000D01*
X170395238Y-94297619D02*
X170442857Y-94250000D01*
X170538095Y-94202380D01*
X170776190Y-94202380D01*
X170871428Y-94250000D01*
X170919047Y-94297619D01*
X170966666Y-94392857D01*
X170966666Y-94488095D01*
X170919047Y-94630952D01*
X170347619Y-95202380D01*
X170966666Y-95202380D01*
X171157142Y-95297619D02*
X171919047Y-95297619D01*
X172061904Y-94202380D02*
X172300000Y-95202380D01*
X172490476Y-94488095D01*
X172680952Y-95202380D01*
X172919047Y-94202380D01*
X173871428Y-95202380D02*
X173538095Y-94726190D01*
X173300000Y-95202380D02*
X173300000Y-94202380D01*
X173680952Y-94202380D01*
X173776190Y-94250000D01*
X173823809Y-94297619D01*
X173871428Y-94392857D01*
X173871428Y-94535714D01*
X173823809Y-94630952D01*
X173776190Y-94678571D01*
X173680952Y-94726190D01*
X173300000Y-94726190D01*
X174490476Y-94202380D02*
X174680952Y-94202380D01*
X174776190Y-94250000D01*
X174871428Y-94345238D01*
X174919047Y-94535714D01*
X174919047Y-94869047D01*
X174871428Y-95059523D01*
X174776190Y-95154761D01*
X174680952Y-95202380D01*
X174490476Y-95202380D01*
X174395238Y-95154761D01*
X174300000Y-95059523D01*
X174252380Y-94869047D01*
X174252380Y-94535714D01*
X174300000Y-94345238D01*
X174395238Y-94250000D01*
X174490476Y-94202380D01*
X175204761Y-94202380D02*
X175538095Y-95202380D01*
X175871428Y-94202380D01*
X176204761Y-94678571D02*
X176538095Y-94678571D01*
X176680952Y-95202380D02*
X176204761Y-95202380D01*
X176204761Y-94202380D01*
X176680952Y-94202380D01*
X177680952Y-95202380D02*
X177347619Y-94726190D01*
X177109523Y-95202380D02*
X177109523Y-94202380D01*
X177490476Y-94202380D01*
X177585714Y-94250000D01*
X177633333Y-94297619D01*
X177680952Y-94392857D01*
X177680952Y-94535714D01*
X177633333Y-94630952D01*
X177585714Y-94678571D01*
X177490476Y-94726190D01*
X177109523Y-94726190D01*
X158352380Y-135535595D02*
X157352380Y-135535595D01*
X157352380Y-134868928D02*
X157352380Y-134678452D01*
X157400000Y-134583214D01*
X157495238Y-134487976D01*
X157685714Y-134440357D01*
X158019047Y-134440357D01*
X158209523Y-134487976D01*
X158304761Y-134583214D01*
X158352380Y-134678452D01*
X158352380Y-134868928D01*
X158304761Y-134964166D01*
X158209523Y-135059404D01*
X158019047Y-135107023D01*
X157685714Y-135107023D01*
X157495238Y-135059404D01*
X157400000Y-134964166D01*
X157352380Y-134868928D01*
X157352380Y-133583214D02*
X157352380Y-133773690D01*
X157400000Y-133868928D01*
X157447619Y-133916547D01*
X157590476Y-134011785D01*
X157780952Y-134059404D01*
X158161904Y-134059404D01*
X158257142Y-134011785D01*
X158304761Y-133964166D01*
X158352380Y-133868928D01*
X158352380Y-133678452D01*
X158304761Y-133583214D01*
X158257142Y-133535595D01*
X158161904Y-133487976D01*
X157923809Y-133487976D01*
X157828571Y-133535595D01*
X157780952Y-133583214D01*
X157733333Y-133678452D01*
X157733333Y-133868928D01*
X157780952Y-133964166D01*
X157828571Y-134011785D01*
X157923809Y-134059404D01*
X183852380Y-131537976D02*
X182852380Y-131537976D01*
X182852380Y-130871309D02*
X182852380Y-130680833D01*
X182900000Y-130585595D01*
X182995238Y-130490357D01*
X183185714Y-130442738D01*
X183519047Y-130442738D01*
X183709523Y-130490357D01*
X183804761Y-130585595D01*
X183852380Y-130680833D01*
X183852380Y-130871309D01*
X183804761Y-130966547D01*
X183709523Y-131061785D01*
X183519047Y-131109404D01*
X183185714Y-131109404D01*
X182995238Y-131061785D01*
X182900000Y-130966547D01*
X182852380Y-130871309D01*
X182852380Y-130109404D02*
X182852380Y-129490357D01*
X183233333Y-129823690D01*
X183233333Y-129680833D01*
X183280952Y-129585595D01*
X183328571Y-129537976D01*
X183423809Y-129490357D01*
X183661904Y-129490357D01*
X183757142Y-129537976D01*
X183804761Y-129585595D01*
X183852380Y-129680833D01*
X183852380Y-129966547D01*
X183804761Y-130061785D01*
X183757142Y-130109404D01*
X182852380Y-129157023D02*
X182852380Y-128490357D01*
X183852380Y-128918928D01*
X183852380Y-135537976D02*
X182852380Y-135537976D01*
X182852380Y-134871309D02*
X182852380Y-134680833D01*
X182900000Y-134585595D01*
X182995238Y-134490357D01*
X183185714Y-134442738D01*
X183519047Y-134442738D01*
X183709523Y-134490357D01*
X183804761Y-134585595D01*
X183852380Y-134680833D01*
X183852380Y-134871309D01*
X183804761Y-134966547D01*
X183709523Y-135061785D01*
X183519047Y-135109404D01*
X183185714Y-135109404D01*
X182995238Y-135061785D01*
X182900000Y-134966547D01*
X182852380Y-134871309D01*
X182852380Y-134109404D02*
X182852380Y-133490357D01*
X183233333Y-133823690D01*
X183233333Y-133680833D01*
X183280952Y-133585595D01*
X183328571Y-133537976D01*
X183423809Y-133490357D01*
X183661904Y-133490357D01*
X183757142Y-133537976D01*
X183804761Y-133585595D01*
X183852380Y-133680833D01*
X183852380Y-133966547D01*
X183804761Y-134061785D01*
X183757142Y-134109404D01*
X182852380Y-132633214D02*
X182852380Y-132823690D01*
X182900000Y-132918928D01*
X182947619Y-132966547D01*
X183090476Y-133061785D01*
X183280952Y-133109404D01*
X183661904Y-133109404D01*
X183757142Y-133061785D01*
X183804761Y-133014166D01*
X183852380Y-132918928D01*
X183852380Y-132728452D01*
X183804761Y-132633214D01*
X183757142Y-132585595D01*
X183661904Y-132537976D01*
X183423809Y-132537976D01*
X183328571Y-132585595D01*
X183280952Y-132633214D01*
X183233333Y-132728452D01*
X183233333Y-132918928D01*
X183280952Y-133014166D01*
X183328571Y-133061785D01*
X183423809Y-133109404D01*
X199835595Y-126852380D02*
X199835595Y-125852380D01*
X200502261Y-125852380D02*
X200692738Y-125852380D01*
X200787976Y-125900000D01*
X200883214Y-125995238D01*
X200930833Y-126185714D01*
X200930833Y-126519047D01*
X200883214Y-126709523D01*
X200787976Y-126804761D01*
X200692738Y-126852380D01*
X200502261Y-126852380D01*
X200407023Y-126804761D01*
X200311785Y-126709523D01*
X200264166Y-126519047D01*
X200264166Y-126185714D01*
X200311785Y-125995238D01*
X200407023Y-125900000D01*
X200502261Y-125852380D01*
X201883214Y-126852380D02*
X201311785Y-126852380D01*
X201597500Y-126852380D02*
X201597500Y-125852380D01*
X201502261Y-125995238D01*
X201407023Y-126090476D01*
X201311785Y-126138095D01*
X202502261Y-125852380D02*
X202597500Y-125852380D01*
X202692738Y-125900000D01*
X202740357Y-125947619D01*
X202787976Y-126042857D01*
X202835595Y-126233333D01*
X202835595Y-126471428D01*
X202787976Y-126661904D01*
X202740357Y-126757142D01*
X202692738Y-126804761D01*
X202597500Y-126852380D01*
X202502261Y-126852380D01*
X202407023Y-126804761D01*
X202359404Y-126757142D01*
X202311785Y-126661904D01*
X202264166Y-126471428D01*
X202264166Y-126233333D01*
X202311785Y-126042857D01*
X202359404Y-125947619D01*
X202407023Y-125900000D01*
X202502261Y-125852380D01*
X135252380Y-74464404D02*
X134252380Y-74464404D01*
X134252380Y-73797738D02*
X134252380Y-73607261D01*
X134300000Y-73512023D01*
X134395238Y-73416785D01*
X134585714Y-73369166D01*
X134919047Y-73369166D01*
X135109523Y-73416785D01*
X135204761Y-73512023D01*
X135252380Y-73607261D01*
X135252380Y-73797738D01*
X135204761Y-73892976D01*
X135109523Y-73988214D01*
X134919047Y-74035833D01*
X134585714Y-74035833D01*
X134395238Y-73988214D01*
X134300000Y-73892976D01*
X134252380Y-73797738D01*
X134585714Y-72512023D02*
X135252380Y-72512023D01*
X134204761Y-72750119D02*
X134919047Y-72988214D01*
X134919047Y-72369166D01*
X134252380Y-71797738D02*
X134252380Y-71702500D01*
X134300000Y-71607261D01*
X134347619Y-71559642D01*
X134442857Y-71512023D01*
X134633333Y-71464404D01*
X134871428Y-71464404D01*
X135061904Y-71512023D01*
X135157142Y-71559642D01*
X135204761Y-71607261D01*
X135252380Y-71702500D01*
X135252380Y-71797738D01*
X135204761Y-71892976D01*
X135157142Y-71940595D01*
X135061904Y-71988214D01*
X134871428Y-72035833D01*
X134633333Y-72035833D01*
X134442857Y-71988214D01*
X134347619Y-71940595D01*
X134300000Y-71892976D01*
X134252380Y-71797738D01*
X200785595Y-124452380D02*
X200785595Y-123452380D01*
X201452261Y-123452380D02*
X201642738Y-123452380D01*
X201737976Y-123500000D01*
X201833214Y-123595238D01*
X201880833Y-123785714D01*
X201880833Y-124119047D01*
X201833214Y-124309523D01*
X201737976Y-124404761D01*
X201642738Y-124452380D01*
X201452261Y-124452380D01*
X201357023Y-124404761D01*
X201261785Y-124309523D01*
X201214166Y-124119047D01*
X201214166Y-123785714D01*
X201261785Y-123595238D01*
X201357023Y-123500000D01*
X201452261Y-123452380D01*
X202357023Y-124452380D02*
X202547500Y-124452380D01*
X202642738Y-124404761D01*
X202690357Y-124357142D01*
X202785595Y-124214285D01*
X202833214Y-124023809D01*
X202833214Y-123642857D01*
X202785595Y-123547619D01*
X202737976Y-123500000D01*
X202642738Y-123452380D01*
X202452261Y-123452380D01*
X202357023Y-123500000D01*
X202309404Y-123547619D01*
X202261785Y-123642857D01*
X202261785Y-123880952D01*
X202309404Y-123976190D01*
X202357023Y-124023809D01*
X202452261Y-124071428D01*
X202642738Y-124071428D01*
X202737976Y-124023809D01*
X202785595Y-123976190D01*
X202833214Y-123880952D01*
X155209404Y-97715000D02*
X155114166Y-97667380D01*
X154971309Y-97667380D01*
X154828452Y-97715000D01*
X154733214Y-97810238D01*
X154685595Y-97905476D01*
X154637976Y-98095952D01*
X154637976Y-98238809D01*
X154685595Y-98429285D01*
X154733214Y-98524523D01*
X154828452Y-98619761D01*
X154971309Y-98667380D01*
X155066547Y-98667380D01*
X155209404Y-98619761D01*
X155257023Y-98572142D01*
X155257023Y-98238809D01*
X155066547Y-98238809D01*
X155685595Y-98667380D02*
X155685595Y-97667380D01*
X156066547Y-97667380D01*
X156161785Y-97715000D01*
X156209404Y-97762619D01*
X156257023Y-97857857D01*
X156257023Y-98000714D01*
X156209404Y-98095952D01*
X156161785Y-98143571D01*
X156066547Y-98191190D01*
X155685595Y-98191190D01*
X156685595Y-98667380D02*
X156685595Y-97667380D01*
X157352261Y-97667380D02*
X157542738Y-97667380D01*
X157637976Y-97715000D01*
X157733214Y-97810238D01*
X157780833Y-98000714D01*
X157780833Y-98334047D01*
X157733214Y-98524523D01*
X157637976Y-98619761D01*
X157542738Y-98667380D01*
X157352261Y-98667380D01*
X157257023Y-98619761D01*
X157161785Y-98524523D01*
X157114166Y-98334047D01*
X157114166Y-98000714D01*
X157161785Y-97810238D01*
X157257023Y-97715000D01*
X157352261Y-97667380D01*
X157971309Y-98762619D02*
X158733214Y-98762619D01*
X159114166Y-98095952D02*
X159018928Y-98048333D01*
X158971309Y-98000714D01*
X158923690Y-97905476D01*
X158923690Y-97857857D01*
X158971309Y-97762619D01*
X159018928Y-97715000D01*
X159114166Y-97667380D01*
X159304642Y-97667380D01*
X159399880Y-97715000D01*
X159447500Y-97762619D01*
X159495119Y-97857857D01*
X159495119Y-97905476D01*
X159447500Y-98000714D01*
X159399880Y-98048333D01*
X159304642Y-98095952D01*
X159114166Y-98095952D01*
X159018928Y-98143571D01*
X158971309Y-98191190D01*
X158923690Y-98286428D01*
X158923690Y-98476904D01*
X158971309Y-98572142D01*
X159018928Y-98619761D01*
X159114166Y-98667380D01*
X159304642Y-98667380D01*
X159399880Y-98619761D01*
X159447500Y-98572142D01*
X159495119Y-98476904D01*
X159495119Y-98286428D01*
X159447500Y-98191190D01*
X159399880Y-98143571D01*
X159304642Y-98095952D01*
X160685595Y-98286428D02*
X161447500Y-98286428D01*
X162637976Y-98619761D02*
X162780833Y-98667380D01*
X163018928Y-98667380D01*
X163114166Y-98619761D01*
X163161785Y-98572142D01*
X163209404Y-98476904D01*
X163209404Y-98381666D01*
X163161785Y-98286428D01*
X163114166Y-98238809D01*
X163018928Y-98191190D01*
X162828452Y-98143571D01*
X162733214Y-98095952D01*
X162685595Y-98048333D01*
X162637976Y-97953095D01*
X162637976Y-97857857D01*
X162685595Y-97762619D01*
X162733214Y-97715000D01*
X162828452Y-97667380D01*
X163066547Y-97667380D01*
X163209404Y-97715000D01*
X163637976Y-98667380D02*
X163637976Y-97667380D01*
X163876071Y-97667380D01*
X164018928Y-97715000D01*
X164114166Y-97810238D01*
X164161785Y-97905476D01*
X164209404Y-98095952D01*
X164209404Y-98238809D01*
X164161785Y-98429285D01*
X164114166Y-98524523D01*
X164018928Y-98619761D01*
X163876071Y-98667380D01*
X163637976Y-98667380D01*
X164590357Y-98381666D02*
X165066547Y-98381666D01*
X164495119Y-98667380D02*
X164828452Y-97667380D01*
X165161785Y-98667380D01*
X155209404Y-99325000D02*
X155114166Y-99277380D01*
X154971309Y-99277380D01*
X154828452Y-99325000D01*
X154733214Y-99420238D01*
X154685595Y-99515476D01*
X154637976Y-99705952D01*
X154637976Y-99848809D01*
X154685595Y-100039285D01*
X154733214Y-100134523D01*
X154828452Y-100229761D01*
X154971309Y-100277380D01*
X155066547Y-100277380D01*
X155209404Y-100229761D01*
X155257023Y-100182142D01*
X155257023Y-99848809D01*
X155066547Y-99848809D01*
X155685595Y-100277380D02*
X155685595Y-99277380D01*
X156066547Y-99277380D01*
X156161785Y-99325000D01*
X156209404Y-99372619D01*
X156257023Y-99467857D01*
X156257023Y-99610714D01*
X156209404Y-99705952D01*
X156161785Y-99753571D01*
X156066547Y-99801190D01*
X155685595Y-99801190D01*
X156685595Y-100277380D02*
X156685595Y-99277380D01*
X157352261Y-99277380D02*
X157542738Y-99277380D01*
X157637976Y-99325000D01*
X157733214Y-99420238D01*
X157780833Y-99610714D01*
X157780833Y-99944047D01*
X157733214Y-100134523D01*
X157637976Y-100229761D01*
X157542738Y-100277380D01*
X157352261Y-100277380D01*
X157257023Y-100229761D01*
X157161785Y-100134523D01*
X157114166Y-99944047D01*
X157114166Y-99610714D01*
X157161785Y-99420238D01*
X157257023Y-99325000D01*
X157352261Y-99277380D01*
X157971309Y-100372619D02*
X158733214Y-100372619D01*
X159018928Y-100277380D02*
X159209404Y-100277380D01*
X159304642Y-100229761D01*
X159352261Y-100182142D01*
X159447500Y-100039285D01*
X159495119Y-99848809D01*
X159495119Y-99467857D01*
X159447500Y-99372619D01*
X159399880Y-99325000D01*
X159304642Y-99277380D01*
X159114166Y-99277380D01*
X159018928Y-99325000D01*
X158971309Y-99372619D01*
X158923690Y-99467857D01*
X158923690Y-99705952D01*
X158971309Y-99801190D01*
X159018928Y-99848809D01*
X159114166Y-99896428D01*
X159304642Y-99896428D01*
X159399880Y-99848809D01*
X159447500Y-99801190D01*
X159495119Y-99705952D01*
X160685595Y-99896428D02*
X161447500Y-99896428D01*
X162637976Y-100229761D02*
X162780833Y-100277380D01*
X163018928Y-100277380D01*
X163114166Y-100229761D01*
X163161785Y-100182142D01*
X163209404Y-100086904D01*
X163209404Y-99991666D01*
X163161785Y-99896428D01*
X163114166Y-99848809D01*
X163018928Y-99801190D01*
X162828452Y-99753571D01*
X162733214Y-99705952D01*
X162685595Y-99658333D01*
X162637976Y-99563095D01*
X162637976Y-99467857D01*
X162685595Y-99372619D01*
X162733214Y-99325000D01*
X162828452Y-99277380D01*
X163066547Y-99277380D01*
X163209404Y-99325000D01*
X164209404Y-100182142D02*
X164161785Y-100229761D01*
X164018928Y-100277380D01*
X163923690Y-100277380D01*
X163780833Y-100229761D01*
X163685595Y-100134523D01*
X163637976Y-100039285D01*
X163590357Y-99848809D01*
X163590357Y-99705952D01*
X163637976Y-99515476D01*
X163685595Y-99420238D01*
X163780833Y-99325000D01*
X163923690Y-99277380D01*
X164018928Y-99277380D01*
X164161785Y-99325000D01*
X164209404Y-99372619D01*
X165114166Y-100277380D02*
X164637976Y-100277380D01*
X164637976Y-99277380D01*
X155209404Y-102545000D02*
X155114166Y-102497380D01*
X154971309Y-102497380D01*
X154828452Y-102545000D01*
X154733214Y-102640238D01*
X154685595Y-102735476D01*
X154637976Y-102925952D01*
X154637976Y-103068809D01*
X154685595Y-103259285D01*
X154733214Y-103354523D01*
X154828452Y-103449761D01*
X154971309Y-103497380D01*
X155066547Y-103497380D01*
X155209404Y-103449761D01*
X155257023Y-103402142D01*
X155257023Y-103068809D01*
X155066547Y-103068809D01*
X155685595Y-103497380D02*
X155685595Y-102497380D01*
X156066547Y-102497380D01*
X156161785Y-102545000D01*
X156209404Y-102592619D01*
X156257023Y-102687857D01*
X156257023Y-102830714D01*
X156209404Y-102925952D01*
X156161785Y-102973571D01*
X156066547Y-103021190D01*
X155685595Y-103021190D01*
X156685595Y-103497380D02*
X156685595Y-102497380D01*
X157352261Y-102497380D02*
X157542738Y-102497380D01*
X157637976Y-102545000D01*
X157733214Y-102640238D01*
X157780833Y-102830714D01*
X157780833Y-103164047D01*
X157733214Y-103354523D01*
X157637976Y-103449761D01*
X157542738Y-103497380D01*
X157352261Y-103497380D01*
X157257023Y-103449761D01*
X157161785Y-103354523D01*
X157114166Y-103164047D01*
X157114166Y-102830714D01*
X157161785Y-102640238D01*
X157257023Y-102545000D01*
X157352261Y-102497380D01*
X157971309Y-103592619D02*
X158733214Y-103592619D01*
X159495119Y-103497380D02*
X158923690Y-103497380D01*
X159209404Y-103497380D02*
X159209404Y-102497380D01*
X159114166Y-102640238D01*
X159018928Y-102735476D01*
X158923690Y-102783095D01*
X160114166Y-102497380D02*
X160209404Y-102497380D01*
X160304642Y-102545000D01*
X160352261Y-102592619D01*
X160399880Y-102687857D01*
X160447500Y-102878333D01*
X160447500Y-103116428D01*
X160399880Y-103306904D01*
X160352261Y-103402142D01*
X160304642Y-103449761D01*
X160209404Y-103497380D01*
X160114166Y-103497380D01*
X160018928Y-103449761D01*
X159971309Y-103402142D01*
X159923690Y-103306904D01*
X159876071Y-103116428D01*
X159876071Y-102878333D01*
X159923690Y-102687857D01*
X159971309Y-102592619D01*
X160018928Y-102545000D01*
X160114166Y-102497380D01*
X161637976Y-103116428D02*
X162399880Y-103116428D01*
X163923690Y-103878333D02*
X163876071Y-103830714D01*
X163780833Y-103687857D01*
X163733214Y-103592619D01*
X163685595Y-103449761D01*
X163637976Y-103211666D01*
X163637976Y-103021190D01*
X163685595Y-102783095D01*
X163733214Y-102640238D01*
X163780833Y-102545000D01*
X163876071Y-102402142D01*
X163923690Y-102354523D01*
X164257023Y-103449761D02*
X164399880Y-103497380D01*
X164637976Y-103497380D01*
X164733214Y-103449761D01*
X164780833Y-103402142D01*
X164828452Y-103306904D01*
X164828452Y-103211666D01*
X164780833Y-103116428D01*
X164733214Y-103068809D01*
X164637976Y-103021190D01*
X164447500Y-102973571D01*
X164352261Y-102925952D01*
X164304642Y-102878333D01*
X164257023Y-102783095D01*
X164257023Y-102687857D01*
X164304642Y-102592619D01*
X164352261Y-102545000D01*
X164447500Y-102497380D01*
X164685595Y-102497380D01*
X164828452Y-102545000D01*
X165257023Y-103497380D02*
X165257023Y-102497380D01*
X165637976Y-102497380D01*
X165733214Y-102545000D01*
X165780833Y-102592619D01*
X165828452Y-102687857D01*
X165828452Y-102830714D01*
X165780833Y-102925952D01*
X165733214Y-102973571D01*
X165637976Y-103021190D01*
X165257023Y-103021190D01*
X166257023Y-103497380D02*
X166257023Y-102497380D01*
X166495119Y-103592619D02*
X167257023Y-103592619D01*
X168018928Y-103497380D02*
X167447500Y-103497380D01*
X167733214Y-103497380D02*
X167733214Y-102497380D01*
X167637976Y-102640238D01*
X167542738Y-102735476D01*
X167447500Y-102783095D01*
X168352261Y-103878333D02*
X168399880Y-103830714D01*
X168495119Y-103687857D01*
X168542738Y-103592619D01*
X168590357Y-103449761D01*
X168637976Y-103211666D01*
X168637976Y-103021190D01*
X168590357Y-102783095D01*
X168542738Y-102640238D01*
X168495119Y-102545000D01*
X168399880Y-102402142D01*
X168352261Y-102354523D01*
X169114166Y-103497380D02*
X169114166Y-102497380D01*
X169447500Y-103211666D01*
X169780833Y-102497380D01*
X169780833Y-103497380D01*
X170257023Y-103497380D02*
X170257023Y-102497380D01*
X170685595Y-103449761D02*
X170828452Y-103497380D01*
X171066547Y-103497380D01*
X171161785Y-103449761D01*
X171209404Y-103402142D01*
X171257023Y-103306904D01*
X171257023Y-103211666D01*
X171209404Y-103116428D01*
X171161785Y-103068809D01*
X171066547Y-103021190D01*
X170876071Y-102973571D01*
X170780833Y-102925952D01*
X170733214Y-102878333D01*
X170685595Y-102783095D01*
X170685595Y-102687857D01*
X170733214Y-102592619D01*
X170780833Y-102545000D01*
X170876071Y-102497380D01*
X171114166Y-102497380D01*
X171257023Y-102545000D01*
X171876071Y-102497380D02*
X172066547Y-102497380D01*
X172161785Y-102545000D01*
X172257023Y-102640238D01*
X172304642Y-102830714D01*
X172304642Y-103164047D01*
X172257023Y-103354523D01*
X172161785Y-103449761D01*
X172066547Y-103497380D01*
X171876071Y-103497380D01*
X171780833Y-103449761D01*
X171685595Y-103354523D01*
X171637976Y-103164047D01*
X171637976Y-102830714D01*
X171685595Y-102640238D01*
X171780833Y-102545000D01*
X171876071Y-102497380D01*
X155209404Y-104155000D02*
X155114166Y-104107380D01*
X154971309Y-104107380D01*
X154828452Y-104155000D01*
X154733214Y-104250238D01*
X154685595Y-104345476D01*
X154637976Y-104535952D01*
X154637976Y-104678809D01*
X154685595Y-104869285D01*
X154733214Y-104964523D01*
X154828452Y-105059761D01*
X154971309Y-105107380D01*
X155066547Y-105107380D01*
X155209404Y-105059761D01*
X155257023Y-105012142D01*
X155257023Y-104678809D01*
X155066547Y-104678809D01*
X155685595Y-105107380D02*
X155685595Y-104107380D01*
X156066547Y-104107380D01*
X156161785Y-104155000D01*
X156209404Y-104202619D01*
X156257023Y-104297857D01*
X156257023Y-104440714D01*
X156209404Y-104535952D01*
X156161785Y-104583571D01*
X156066547Y-104631190D01*
X155685595Y-104631190D01*
X156685595Y-105107380D02*
X156685595Y-104107380D01*
X157352261Y-104107380D02*
X157542738Y-104107380D01*
X157637976Y-104155000D01*
X157733214Y-104250238D01*
X157780833Y-104440714D01*
X157780833Y-104774047D01*
X157733214Y-104964523D01*
X157637976Y-105059761D01*
X157542738Y-105107380D01*
X157352261Y-105107380D01*
X157257023Y-105059761D01*
X157161785Y-104964523D01*
X157114166Y-104774047D01*
X157114166Y-104440714D01*
X157161785Y-104250238D01*
X157257023Y-104155000D01*
X157352261Y-104107380D01*
X157971309Y-105202619D02*
X158733214Y-105202619D01*
X159495119Y-105107380D02*
X158923690Y-105107380D01*
X159209404Y-105107380D02*
X159209404Y-104107380D01*
X159114166Y-104250238D01*
X159018928Y-104345476D01*
X158923690Y-104393095D01*
X160447500Y-105107380D02*
X159876071Y-105107380D01*
X160161785Y-105107380D02*
X160161785Y-104107380D01*
X160066547Y-104250238D01*
X159971309Y-104345476D01*
X159876071Y-104393095D01*
X161637976Y-104726428D02*
X162399880Y-104726428D01*
X163923690Y-105488333D02*
X163876071Y-105440714D01*
X163780833Y-105297857D01*
X163733214Y-105202619D01*
X163685595Y-105059761D01*
X163637976Y-104821666D01*
X163637976Y-104631190D01*
X163685595Y-104393095D01*
X163733214Y-104250238D01*
X163780833Y-104155000D01*
X163876071Y-104012142D01*
X163923690Y-103964523D01*
X164257023Y-105059761D02*
X164399880Y-105107380D01*
X164637976Y-105107380D01*
X164733214Y-105059761D01*
X164780833Y-105012142D01*
X164828452Y-104916904D01*
X164828452Y-104821666D01*
X164780833Y-104726428D01*
X164733214Y-104678809D01*
X164637976Y-104631190D01*
X164447500Y-104583571D01*
X164352261Y-104535952D01*
X164304642Y-104488333D01*
X164257023Y-104393095D01*
X164257023Y-104297857D01*
X164304642Y-104202619D01*
X164352261Y-104155000D01*
X164447500Y-104107380D01*
X164685595Y-104107380D01*
X164828452Y-104155000D01*
X165257023Y-105107380D02*
X165257023Y-104107380D01*
X165637976Y-104107380D01*
X165733214Y-104155000D01*
X165780833Y-104202619D01*
X165828452Y-104297857D01*
X165828452Y-104440714D01*
X165780833Y-104535952D01*
X165733214Y-104583571D01*
X165637976Y-104631190D01*
X165257023Y-104631190D01*
X166257023Y-105107380D02*
X166257023Y-104107380D01*
X166495119Y-105202619D02*
X167257023Y-105202619D01*
X168018928Y-105107380D02*
X167447500Y-105107380D01*
X167733214Y-105107380D02*
X167733214Y-104107380D01*
X167637976Y-104250238D01*
X167542738Y-104345476D01*
X167447500Y-104393095D01*
X168352261Y-105488333D02*
X168399880Y-105440714D01*
X168495119Y-105297857D01*
X168542738Y-105202619D01*
X168590357Y-105059761D01*
X168637976Y-104821666D01*
X168637976Y-104631190D01*
X168590357Y-104393095D01*
X168542738Y-104250238D01*
X168495119Y-104155000D01*
X168399880Y-104012142D01*
X168352261Y-103964523D01*
X169685595Y-105012142D02*
X169637976Y-105059761D01*
X169495119Y-105107380D01*
X169399880Y-105107380D01*
X169257023Y-105059761D01*
X169161785Y-104964523D01*
X169114166Y-104869285D01*
X169066547Y-104678809D01*
X169066547Y-104535952D01*
X169114166Y-104345476D01*
X169161785Y-104250238D01*
X169257023Y-104155000D01*
X169399880Y-104107380D01*
X169495119Y-104107380D01*
X169637976Y-104155000D01*
X169685595Y-104202619D01*
X170590357Y-105107380D02*
X170114166Y-105107380D01*
X170114166Y-104107380D01*
X170923690Y-105107380D02*
X170923690Y-104107380D01*
X171495119Y-105107380D02*
X171066547Y-104535952D01*
X171495119Y-104107380D02*
X170923690Y-104678809D01*
X155209404Y-105765000D02*
X155114166Y-105717380D01*
X154971309Y-105717380D01*
X154828452Y-105765000D01*
X154733214Y-105860238D01*
X154685595Y-105955476D01*
X154637976Y-106145952D01*
X154637976Y-106288809D01*
X154685595Y-106479285D01*
X154733214Y-106574523D01*
X154828452Y-106669761D01*
X154971309Y-106717380D01*
X155066547Y-106717380D01*
X155209404Y-106669761D01*
X155257023Y-106622142D01*
X155257023Y-106288809D01*
X155066547Y-106288809D01*
X155685595Y-106717380D02*
X155685595Y-105717380D01*
X156066547Y-105717380D01*
X156161785Y-105765000D01*
X156209404Y-105812619D01*
X156257023Y-105907857D01*
X156257023Y-106050714D01*
X156209404Y-106145952D01*
X156161785Y-106193571D01*
X156066547Y-106241190D01*
X155685595Y-106241190D01*
X156685595Y-106717380D02*
X156685595Y-105717380D01*
X157352261Y-105717380D02*
X157542738Y-105717380D01*
X157637976Y-105765000D01*
X157733214Y-105860238D01*
X157780833Y-106050714D01*
X157780833Y-106384047D01*
X157733214Y-106574523D01*
X157637976Y-106669761D01*
X157542738Y-106717380D01*
X157352261Y-106717380D01*
X157257023Y-106669761D01*
X157161785Y-106574523D01*
X157114166Y-106384047D01*
X157114166Y-106050714D01*
X157161785Y-105860238D01*
X157257023Y-105765000D01*
X157352261Y-105717380D01*
X157971309Y-106812619D02*
X158733214Y-106812619D01*
X159495119Y-106717380D02*
X158923690Y-106717380D01*
X159209404Y-106717380D02*
X159209404Y-105717380D01*
X159114166Y-105860238D01*
X159018928Y-105955476D01*
X158923690Y-106003095D01*
X159876071Y-105812619D02*
X159923690Y-105765000D01*
X160018928Y-105717380D01*
X160257023Y-105717380D01*
X160352261Y-105765000D01*
X160399880Y-105812619D01*
X160447500Y-105907857D01*
X160447500Y-106003095D01*
X160399880Y-106145952D01*
X159828452Y-106717380D01*
X160447500Y-106717380D01*
X161637976Y-106336428D02*
X162399880Y-106336428D01*
X163923690Y-107098333D02*
X163876071Y-107050714D01*
X163780833Y-106907857D01*
X163733214Y-106812619D01*
X163685595Y-106669761D01*
X163637976Y-106431666D01*
X163637976Y-106241190D01*
X163685595Y-106003095D01*
X163733214Y-105860238D01*
X163780833Y-105765000D01*
X163876071Y-105622142D01*
X163923690Y-105574523D01*
X164257023Y-106669761D02*
X164399880Y-106717380D01*
X164637976Y-106717380D01*
X164733214Y-106669761D01*
X164780833Y-106622142D01*
X164828452Y-106526904D01*
X164828452Y-106431666D01*
X164780833Y-106336428D01*
X164733214Y-106288809D01*
X164637976Y-106241190D01*
X164447500Y-106193571D01*
X164352261Y-106145952D01*
X164304642Y-106098333D01*
X164257023Y-106003095D01*
X164257023Y-105907857D01*
X164304642Y-105812619D01*
X164352261Y-105765000D01*
X164447500Y-105717380D01*
X164685595Y-105717380D01*
X164828452Y-105765000D01*
X165257023Y-106717380D02*
X165257023Y-105717380D01*
X165637976Y-105717380D01*
X165733214Y-105765000D01*
X165780833Y-105812619D01*
X165828452Y-105907857D01*
X165828452Y-106050714D01*
X165780833Y-106145952D01*
X165733214Y-106193571D01*
X165637976Y-106241190D01*
X165257023Y-106241190D01*
X166257023Y-106717380D02*
X166257023Y-105717380D01*
X166495119Y-106812619D02*
X167257023Y-106812619D01*
X168018928Y-106717380D02*
X167447500Y-106717380D01*
X167733214Y-106717380D02*
X167733214Y-105717380D01*
X167637976Y-105860238D01*
X167542738Y-105955476D01*
X167447500Y-106003095D01*
X168352261Y-107098333D02*
X168399880Y-107050714D01*
X168495119Y-106907857D01*
X168542738Y-106812619D01*
X168590357Y-106669761D01*
X168637976Y-106431666D01*
X168637976Y-106241190D01*
X168590357Y-106003095D01*
X168542738Y-105860238D01*
X168495119Y-105765000D01*
X168399880Y-105622142D01*
X168352261Y-105574523D01*
X169114166Y-106717380D02*
X169114166Y-105717380D01*
X169447500Y-106431666D01*
X169780833Y-105717380D01*
X169780833Y-106717380D01*
X170447500Y-105717380D02*
X170637976Y-105717380D01*
X170733214Y-105765000D01*
X170828452Y-105860238D01*
X170876071Y-106050714D01*
X170876071Y-106384047D01*
X170828452Y-106574523D01*
X170733214Y-106669761D01*
X170637976Y-106717380D01*
X170447500Y-106717380D01*
X170352261Y-106669761D01*
X170257023Y-106574523D01*
X170209404Y-106384047D01*
X170209404Y-106050714D01*
X170257023Y-105860238D01*
X170352261Y-105765000D01*
X170447500Y-105717380D01*
X171257023Y-106669761D02*
X171399880Y-106717380D01*
X171637976Y-106717380D01*
X171733214Y-106669761D01*
X171780833Y-106622142D01*
X171828452Y-106526904D01*
X171828452Y-106431666D01*
X171780833Y-106336428D01*
X171733214Y-106288809D01*
X171637976Y-106241190D01*
X171447500Y-106193571D01*
X171352261Y-106145952D01*
X171304642Y-106098333D01*
X171257023Y-106003095D01*
X171257023Y-105907857D01*
X171304642Y-105812619D01*
X171352261Y-105765000D01*
X171447500Y-105717380D01*
X171685595Y-105717380D01*
X171828452Y-105765000D01*
X172257023Y-106717380D02*
X172257023Y-105717380D01*
X155209404Y-107375000D02*
X155114166Y-107327380D01*
X154971309Y-107327380D01*
X154828452Y-107375000D01*
X154733214Y-107470238D01*
X154685595Y-107565476D01*
X154637976Y-107755952D01*
X154637976Y-107898809D01*
X154685595Y-108089285D01*
X154733214Y-108184523D01*
X154828452Y-108279761D01*
X154971309Y-108327380D01*
X155066547Y-108327380D01*
X155209404Y-108279761D01*
X155257023Y-108232142D01*
X155257023Y-107898809D01*
X155066547Y-107898809D01*
X155685595Y-108327380D02*
X155685595Y-107327380D01*
X156066547Y-107327380D01*
X156161785Y-107375000D01*
X156209404Y-107422619D01*
X156257023Y-107517857D01*
X156257023Y-107660714D01*
X156209404Y-107755952D01*
X156161785Y-107803571D01*
X156066547Y-107851190D01*
X155685595Y-107851190D01*
X156685595Y-108327380D02*
X156685595Y-107327380D01*
X157352261Y-107327380D02*
X157542738Y-107327380D01*
X157637976Y-107375000D01*
X157733214Y-107470238D01*
X157780833Y-107660714D01*
X157780833Y-107994047D01*
X157733214Y-108184523D01*
X157637976Y-108279761D01*
X157542738Y-108327380D01*
X157352261Y-108327380D01*
X157257023Y-108279761D01*
X157161785Y-108184523D01*
X157114166Y-107994047D01*
X157114166Y-107660714D01*
X157161785Y-107470238D01*
X157257023Y-107375000D01*
X157352261Y-107327380D01*
X157971309Y-108422619D02*
X158733214Y-108422619D01*
X159495119Y-108327380D02*
X158923690Y-108327380D01*
X159209404Y-108327380D02*
X159209404Y-107327380D01*
X159114166Y-107470238D01*
X159018928Y-107565476D01*
X158923690Y-107613095D01*
X159828452Y-107327380D02*
X160447500Y-107327380D01*
X160114166Y-107708333D01*
X160257023Y-107708333D01*
X160352261Y-107755952D01*
X160399880Y-107803571D01*
X160447500Y-107898809D01*
X160447500Y-108136904D01*
X160399880Y-108232142D01*
X160352261Y-108279761D01*
X160257023Y-108327380D01*
X159971309Y-108327380D01*
X159876071Y-108279761D01*
X159828452Y-108232142D01*
X161637976Y-107946428D02*
X162399880Y-107946428D01*
X163923690Y-108708333D02*
X163876071Y-108660714D01*
X163780833Y-108517857D01*
X163733214Y-108422619D01*
X163685595Y-108279761D01*
X163637976Y-108041666D01*
X163637976Y-107851190D01*
X163685595Y-107613095D01*
X163733214Y-107470238D01*
X163780833Y-107375000D01*
X163876071Y-107232142D01*
X163923690Y-107184523D01*
X164257023Y-108279761D02*
X164399880Y-108327380D01*
X164637976Y-108327380D01*
X164733214Y-108279761D01*
X164780833Y-108232142D01*
X164828452Y-108136904D01*
X164828452Y-108041666D01*
X164780833Y-107946428D01*
X164733214Y-107898809D01*
X164637976Y-107851190D01*
X164447500Y-107803571D01*
X164352261Y-107755952D01*
X164304642Y-107708333D01*
X164257023Y-107613095D01*
X164257023Y-107517857D01*
X164304642Y-107422619D01*
X164352261Y-107375000D01*
X164447500Y-107327380D01*
X164685595Y-107327380D01*
X164828452Y-107375000D01*
X165257023Y-108327380D02*
X165257023Y-107327380D01*
X165637976Y-107327380D01*
X165733214Y-107375000D01*
X165780833Y-107422619D01*
X165828452Y-107517857D01*
X165828452Y-107660714D01*
X165780833Y-107755952D01*
X165733214Y-107803571D01*
X165637976Y-107851190D01*
X165257023Y-107851190D01*
X166257023Y-108327380D02*
X166257023Y-107327380D01*
X166495119Y-108422619D02*
X167257023Y-108422619D01*
X168018928Y-108327380D02*
X167447500Y-108327380D01*
X167733214Y-108327380D02*
X167733214Y-107327380D01*
X167637976Y-107470238D01*
X167542738Y-107565476D01*
X167447500Y-107613095D01*
X168352261Y-108708333D02*
X168399880Y-108660714D01*
X168495119Y-108517857D01*
X168542738Y-108422619D01*
X168590357Y-108279761D01*
X168637976Y-108041666D01*
X168637976Y-107851190D01*
X168590357Y-107613095D01*
X168542738Y-107470238D01*
X168495119Y-107375000D01*
X168399880Y-107232142D01*
X168352261Y-107184523D01*
X169685595Y-108232142D02*
X169637976Y-108279761D01*
X169495119Y-108327380D01*
X169399880Y-108327380D01*
X169257023Y-108279761D01*
X169161785Y-108184523D01*
X169114166Y-108089285D01*
X169066547Y-107898809D01*
X169066547Y-107755952D01*
X169114166Y-107565476D01*
X169161785Y-107470238D01*
X169257023Y-107375000D01*
X169399880Y-107327380D01*
X169495119Y-107327380D01*
X169637976Y-107375000D01*
X169685595Y-107422619D01*
X170066547Y-108279761D02*
X170209404Y-108327380D01*
X170447500Y-108327380D01*
X170542738Y-108279761D01*
X170590357Y-108232142D01*
X170637976Y-108136904D01*
X170637976Y-108041666D01*
X170590357Y-107946428D01*
X170542738Y-107898809D01*
X170447500Y-107851190D01*
X170257023Y-107803571D01*
X170161785Y-107755952D01*
X170114166Y-107708333D01*
X170066547Y-107613095D01*
X170066547Y-107517857D01*
X170114166Y-107422619D01*
X170161785Y-107375000D01*
X170257023Y-107327380D01*
X170495119Y-107327380D01*
X170637976Y-107375000D01*
X155209404Y-110595000D02*
X155114166Y-110547380D01*
X154971309Y-110547380D01*
X154828452Y-110595000D01*
X154733214Y-110690238D01*
X154685595Y-110785476D01*
X154637976Y-110975952D01*
X154637976Y-111118809D01*
X154685595Y-111309285D01*
X154733214Y-111404523D01*
X154828452Y-111499761D01*
X154971309Y-111547380D01*
X155066547Y-111547380D01*
X155209404Y-111499761D01*
X155257023Y-111452142D01*
X155257023Y-111118809D01*
X155066547Y-111118809D01*
X155685595Y-111547380D02*
X155685595Y-110547380D01*
X156066547Y-110547380D01*
X156161785Y-110595000D01*
X156209404Y-110642619D01*
X156257023Y-110737857D01*
X156257023Y-110880714D01*
X156209404Y-110975952D01*
X156161785Y-111023571D01*
X156066547Y-111071190D01*
X155685595Y-111071190D01*
X156685595Y-111547380D02*
X156685595Y-110547380D01*
X157352261Y-110547380D02*
X157542738Y-110547380D01*
X157637976Y-110595000D01*
X157733214Y-110690238D01*
X157780833Y-110880714D01*
X157780833Y-111214047D01*
X157733214Y-111404523D01*
X157637976Y-111499761D01*
X157542738Y-111547380D01*
X157352261Y-111547380D01*
X157257023Y-111499761D01*
X157161785Y-111404523D01*
X157114166Y-111214047D01*
X157114166Y-110880714D01*
X157161785Y-110690238D01*
X157257023Y-110595000D01*
X157352261Y-110547380D01*
X157971309Y-111642619D02*
X158733214Y-111642619D01*
X158876071Y-110547380D02*
X159495119Y-110547380D01*
X159161785Y-110928333D01*
X159304642Y-110928333D01*
X159399880Y-110975952D01*
X159447500Y-111023571D01*
X159495119Y-111118809D01*
X159495119Y-111356904D01*
X159447500Y-111452142D01*
X159399880Y-111499761D01*
X159304642Y-111547380D01*
X159018928Y-111547380D01*
X158923690Y-111499761D01*
X158876071Y-111452142D01*
X159828452Y-110547380D02*
X160495119Y-110547380D01*
X160066547Y-111547380D01*
X161637976Y-111166428D02*
X162399880Y-111166428D01*
X163923690Y-111928333D02*
X163876071Y-111880714D01*
X163780833Y-111737857D01*
X163733214Y-111642619D01*
X163685595Y-111499761D01*
X163637976Y-111261666D01*
X163637976Y-111071190D01*
X163685595Y-110833095D01*
X163733214Y-110690238D01*
X163780833Y-110595000D01*
X163876071Y-110452142D01*
X163923690Y-110404523D01*
X164257023Y-111499761D02*
X164399880Y-111547380D01*
X164637976Y-111547380D01*
X164733214Y-111499761D01*
X164780833Y-111452142D01*
X164828452Y-111356904D01*
X164828452Y-111261666D01*
X164780833Y-111166428D01*
X164733214Y-111118809D01*
X164637976Y-111071190D01*
X164447500Y-111023571D01*
X164352261Y-110975952D01*
X164304642Y-110928333D01*
X164257023Y-110833095D01*
X164257023Y-110737857D01*
X164304642Y-110642619D01*
X164352261Y-110595000D01*
X164447500Y-110547380D01*
X164685595Y-110547380D01*
X164828452Y-110595000D01*
X165257023Y-111547380D02*
X165257023Y-110547380D01*
X165637976Y-110547380D01*
X165733214Y-110595000D01*
X165780833Y-110642619D01*
X165828452Y-110737857D01*
X165828452Y-110880714D01*
X165780833Y-110975952D01*
X165733214Y-111023571D01*
X165637976Y-111071190D01*
X165257023Y-111071190D01*
X166257023Y-111547380D02*
X166257023Y-110547380D01*
X166495119Y-111642619D02*
X167257023Y-111642619D01*
X167447500Y-110642619D02*
X167495119Y-110595000D01*
X167590357Y-110547380D01*
X167828452Y-110547380D01*
X167923690Y-110595000D01*
X167971309Y-110642619D01*
X168018928Y-110737857D01*
X168018928Y-110833095D01*
X167971309Y-110975952D01*
X167399880Y-111547380D01*
X168018928Y-111547380D01*
X168352261Y-111928333D02*
X168399880Y-111880714D01*
X168495119Y-111737857D01*
X168542738Y-111642619D01*
X168590357Y-111499761D01*
X168637976Y-111261666D01*
X168637976Y-111071190D01*
X168590357Y-110833095D01*
X168542738Y-110690238D01*
X168495119Y-110595000D01*
X168399880Y-110452142D01*
X168352261Y-110404523D01*
X169114166Y-111547380D02*
X169114166Y-110547380D01*
X169447500Y-111261666D01*
X169780833Y-110547380D01*
X169780833Y-111547380D01*
X170257023Y-111547380D02*
X170257023Y-110547380D01*
X170685595Y-111499761D02*
X170828452Y-111547380D01*
X171066547Y-111547380D01*
X171161785Y-111499761D01*
X171209404Y-111452142D01*
X171257023Y-111356904D01*
X171257023Y-111261666D01*
X171209404Y-111166428D01*
X171161785Y-111118809D01*
X171066547Y-111071190D01*
X170876071Y-111023571D01*
X170780833Y-110975952D01*
X170733214Y-110928333D01*
X170685595Y-110833095D01*
X170685595Y-110737857D01*
X170733214Y-110642619D01*
X170780833Y-110595000D01*
X170876071Y-110547380D01*
X171114166Y-110547380D01*
X171257023Y-110595000D01*
X171876071Y-110547380D02*
X172066547Y-110547380D01*
X172161785Y-110595000D01*
X172257023Y-110690238D01*
X172304642Y-110880714D01*
X172304642Y-111214047D01*
X172257023Y-111404523D01*
X172161785Y-111499761D01*
X172066547Y-111547380D01*
X171876071Y-111547380D01*
X171780833Y-111499761D01*
X171685595Y-111404523D01*
X171637976Y-111214047D01*
X171637976Y-110880714D01*
X171685595Y-110690238D01*
X171780833Y-110595000D01*
X171876071Y-110547380D01*
X155209404Y-112205000D02*
X155114166Y-112157380D01*
X154971309Y-112157380D01*
X154828452Y-112205000D01*
X154733214Y-112300238D01*
X154685595Y-112395476D01*
X154637976Y-112585952D01*
X154637976Y-112728809D01*
X154685595Y-112919285D01*
X154733214Y-113014523D01*
X154828452Y-113109761D01*
X154971309Y-113157380D01*
X155066547Y-113157380D01*
X155209404Y-113109761D01*
X155257023Y-113062142D01*
X155257023Y-112728809D01*
X155066547Y-112728809D01*
X155685595Y-113157380D02*
X155685595Y-112157380D01*
X156066547Y-112157380D01*
X156161785Y-112205000D01*
X156209404Y-112252619D01*
X156257023Y-112347857D01*
X156257023Y-112490714D01*
X156209404Y-112585952D01*
X156161785Y-112633571D01*
X156066547Y-112681190D01*
X155685595Y-112681190D01*
X156685595Y-113157380D02*
X156685595Y-112157380D01*
X157352261Y-112157380D02*
X157542738Y-112157380D01*
X157637976Y-112205000D01*
X157733214Y-112300238D01*
X157780833Y-112490714D01*
X157780833Y-112824047D01*
X157733214Y-113014523D01*
X157637976Y-113109761D01*
X157542738Y-113157380D01*
X157352261Y-113157380D01*
X157257023Y-113109761D01*
X157161785Y-113014523D01*
X157114166Y-112824047D01*
X157114166Y-112490714D01*
X157161785Y-112300238D01*
X157257023Y-112205000D01*
X157352261Y-112157380D01*
X157971309Y-113252619D02*
X158733214Y-113252619D01*
X158876071Y-112157380D02*
X159495119Y-112157380D01*
X159161785Y-112538333D01*
X159304642Y-112538333D01*
X159399880Y-112585952D01*
X159447500Y-112633571D01*
X159495119Y-112728809D01*
X159495119Y-112966904D01*
X159447500Y-113062142D01*
X159399880Y-113109761D01*
X159304642Y-113157380D01*
X159018928Y-113157380D01*
X158923690Y-113109761D01*
X158876071Y-113062142D01*
X160352261Y-112157380D02*
X160161785Y-112157380D01*
X160066547Y-112205000D01*
X160018928Y-112252619D01*
X159923690Y-112395476D01*
X159876071Y-112585952D01*
X159876071Y-112966904D01*
X159923690Y-113062142D01*
X159971309Y-113109761D01*
X160066547Y-113157380D01*
X160257023Y-113157380D01*
X160352261Y-113109761D01*
X160399880Y-113062142D01*
X160447500Y-112966904D01*
X160447500Y-112728809D01*
X160399880Y-112633571D01*
X160352261Y-112585952D01*
X160257023Y-112538333D01*
X160066547Y-112538333D01*
X159971309Y-112585952D01*
X159923690Y-112633571D01*
X159876071Y-112728809D01*
X161637976Y-112776428D02*
X162399880Y-112776428D01*
X163923690Y-113538333D02*
X163876071Y-113490714D01*
X163780833Y-113347857D01*
X163733214Y-113252619D01*
X163685595Y-113109761D01*
X163637976Y-112871666D01*
X163637976Y-112681190D01*
X163685595Y-112443095D01*
X163733214Y-112300238D01*
X163780833Y-112205000D01*
X163876071Y-112062142D01*
X163923690Y-112014523D01*
X164257023Y-113109761D02*
X164399880Y-113157380D01*
X164637976Y-113157380D01*
X164733214Y-113109761D01*
X164780833Y-113062142D01*
X164828452Y-112966904D01*
X164828452Y-112871666D01*
X164780833Y-112776428D01*
X164733214Y-112728809D01*
X164637976Y-112681190D01*
X164447500Y-112633571D01*
X164352261Y-112585952D01*
X164304642Y-112538333D01*
X164257023Y-112443095D01*
X164257023Y-112347857D01*
X164304642Y-112252619D01*
X164352261Y-112205000D01*
X164447500Y-112157380D01*
X164685595Y-112157380D01*
X164828452Y-112205000D01*
X165257023Y-113157380D02*
X165257023Y-112157380D01*
X165637976Y-112157380D01*
X165733214Y-112205000D01*
X165780833Y-112252619D01*
X165828452Y-112347857D01*
X165828452Y-112490714D01*
X165780833Y-112585952D01*
X165733214Y-112633571D01*
X165637976Y-112681190D01*
X165257023Y-112681190D01*
X166257023Y-113157380D02*
X166257023Y-112157380D01*
X166495119Y-113252619D02*
X167257023Y-113252619D01*
X167447500Y-112252619D02*
X167495119Y-112205000D01*
X167590357Y-112157380D01*
X167828452Y-112157380D01*
X167923690Y-112205000D01*
X167971309Y-112252619D01*
X168018928Y-112347857D01*
X168018928Y-112443095D01*
X167971309Y-112585952D01*
X167399880Y-113157380D01*
X168018928Y-113157380D01*
X168352261Y-113538333D02*
X168399880Y-113490714D01*
X168495119Y-113347857D01*
X168542738Y-113252619D01*
X168590357Y-113109761D01*
X168637976Y-112871666D01*
X168637976Y-112681190D01*
X168590357Y-112443095D01*
X168542738Y-112300238D01*
X168495119Y-112205000D01*
X168399880Y-112062142D01*
X168352261Y-112014523D01*
X169685595Y-113062142D02*
X169637976Y-113109761D01*
X169495119Y-113157380D01*
X169399880Y-113157380D01*
X169257023Y-113109761D01*
X169161785Y-113014523D01*
X169114166Y-112919285D01*
X169066547Y-112728809D01*
X169066547Y-112585952D01*
X169114166Y-112395476D01*
X169161785Y-112300238D01*
X169257023Y-112205000D01*
X169399880Y-112157380D01*
X169495119Y-112157380D01*
X169637976Y-112205000D01*
X169685595Y-112252619D01*
X170590357Y-113157380D02*
X170114166Y-113157380D01*
X170114166Y-112157380D01*
X170923690Y-113157380D02*
X170923690Y-112157380D01*
X171495119Y-113157380D02*
X171066547Y-112585952D01*
X171495119Y-112157380D02*
X170923690Y-112728809D01*
X155209404Y-113815000D02*
X155114166Y-113767380D01*
X154971309Y-113767380D01*
X154828452Y-113815000D01*
X154733214Y-113910238D01*
X154685595Y-114005476D01*
X154637976Y-114195952D01*
X154637976Y-114338809D01*
X154685595Y-114529285D01*
X154733214Y-114624523D01*
X154828452Y-114719761D01*
X154971309Y-114767380D01*
X155066547Y-114767380D01*
X155209404Y-114719761D01*
X155257023Y-114672142D01*
X155257023Y-114338809D01*
X155066547Y-114338809D01*
X155685595Y-114767380D02*
X155685595Y-113767380D01*
X156066547Y-113767380D01*
X156161785Y-113815000D01*
X156209404Y-113862619D01*
X156257023Y-113957857D01*
X156257023Y-114100714D01*
X156209404Y-114195952D01*
X156161785Y-114243571D01*
X156066547Y-114291190D01*
X155685595Y-114291190D01*
X156685595Y-114767380D02*
X156685595Y-113767380D01*
X157352261Y-113767380D02*
X157542738Y-113767380D01*
X157637976Y-113815000D01*
X157733214Y-113910238D01*
X157780833Y-114100714D01*
X157780833Y-114434047D01*
X157733214Y-114624523D01*
X157637976Y-114719761D01*
X157542738Y-114767380D01*
X157352261Y-114767380D01*
X157257023Y-114719761D01*
X157161785Y-114624523D01*
X157114166Y-114434047D01*
X157114166Y-114100714D01*
X157161785Y-113910238D01*
X157257023Y-113815000D01*
X157352261Y-113767380D01*
X157971309Y-114862619D02*
X158733214Y-114862619D01*
X158876071Y-113767380D02*
X159495119Y-113767380D01*
X159161785Y-114148333D01*
X159304642Y-114148333D01*
X159399880Y-114195952D01*
X159447500Y-114243571D01*
X159495119Y-114338809D01*
X159495119Y-114576904D01*
X159447500Y-114672142D01*
X159399880Y-114719761D01*
X159304642Y-114767380D01*
X159018928Y-114767380D01*
X158923690Y-114719761D01*
X158876071Y-114672142D01*
X160399880Y-113767380D02*
X159923690Y-113767380D01*
X159876071Y-114243571D01*
X159923690Y-114195952D01*
X160018928Y-114148333D01*
X160257023Y-114148333D01*
X160352261Y-114195952D01*
X160399880Y-114243571D01*
X160447500Y-114338809D01*
X160447500Y-114576904D01*
X160399880Y-114672142D01*
X160352261Y-114719761D01*
X160257023Y-114767380D01*
X160018928Y-114767380D01*
X159923690Y-114719761D01*
X159876071Y-114672142D01*
X161637976Y-114386428D02*
X162399880Y-114386428D01*
X163923690Y-115148333D02*
X163876071Y-115100714D01*
X163780833Y-114957857D01*
X163733214Y-114862619D01*
X163685595Y-114719761D01*
X163637976Y-114481666D01*
X163637976Y-114291190D01*
X163685595Y-114053095D01*
X163733214Y-113910238D01*
X163780833Y-113815000D01*
X163876071Y-113672142D01*
X163923690Y-113624523D01*
X164257023Y-114719761D02*
X164399880Y-114767380D01*
X164637976Y-114767380D01*
X164733214Y-114719761D01*
X164780833Y-114672142D01*
X164828452Y-114576904D01*
X164828452Y-114481666D01*
X164780833Y-114386428D01*
X164733214Y-114338809D01*
X164637976Y-114291190D01*
X164447500Y-114243571D01*
X164352261Y-114195952D01*
X164304642Y-114148333D01*
X164257023Y-114053095D01*
X164257023Y-113957857D01*
X164304642Y-113862619D01*
X164352261Y-113815000D01*
X164447500Y-113767380D01*
X164685595Y-113767380D01*
X164828452Y-113815000D01*
X165257023Y-114767380D02*
X165257023Y-113767380D01*
X165637976Y-113767380D01*
X165733214Y-113815000D01*
X165780833Y-113862619D01*
X165828452Y-113957857D01*
X165828452Y-114100714D01*
X165780833Y-114195952D01*
X165733214Y-114243571D01*
X165637976Y-114291190D01*
X165257023Y-114291190D01*
X166257023Y-114767380D02*
X166257023Y-113767380D01*
X166495119Y-114862619D02*
X167257023Y-114862619D01*
X167447500Y-113862619D02*
X167495119Y-113815000D01*
X167590357Y-113767380D01*
X167828452Y-113767380D01*
X167923690Y-113815000D01*
X167971309Y-113862619D01*
X168018928Y-113957857D01*
X168018928Y-114053095D01*
X167971309Y-114195952D01*
X167399880Y-114767380D01*
X168018928Y-114767380D01*
X168352261Y-115148333D02*
X168399880Y-115100714D01*
X168495119Y-114957857D01*
X168542738Y-114862619D01*
X168590357Y-114719761D01*
X168637976Y-114481666D01*
X168637976Y-114291190D01*
X168590357Y-114053095D01*
X168542738Y-113910238D01*
X168495119Y-113815000D01*
X168399880Y-113672142D01*
X168352261Y-113624523D01*
X169114166Y-114767380D02*
X169114166Y-113767380D01*
X169447500Y-114481666D01*
X169780833Y-113767380D01*
X169780833Y-114767380D01*
X170447500Y-113767380D02*
X170637976Y-113767380D01*
X170733214Y-113815000D01*
X170828452Y-113910238D01*
X170876071Y-114100714D01*
X170876071Y-114434047D01*
X170828452Y-114624523D01*
X170733214Y-114719761D01*
X170637976Y-114767380D01*
X170447500Y-114767380D01*
X170352261Y-114719761D01*
X170257023Y-114624523D01*
X170209404Y-114434047D01*
X170209404Y-114100714D01*
X170257023Y-113910238D01*
X170352261Y-113815000D01*
X170447500Y-113767380D01*
X171257023Y-114719761D02*
X171399880Y-114767380D01*
X171637976Y-114767380D01*
X171733214Y-114719761D01*
X171780833Y-114672142D01*
X171828452Y-114576904D01*
X171828452Y-114481666D01*
X171780833Y-114386428D01*
X171733214Y-114338809D01*
X171637976Y-114291190D01*
X171447500Y-114243571D01*
X171352261Y-114195952D01*
X171304642Y-114148333D01*
X171257023Y-114053095D01*
X171257023Y-113957857D01*
X171304642Y-113862619D01*
X171352261Y-113815000D01*
X171447500Y-113767380D01*
X171685595Y-113767380D01*
X171828452Y-113815000D01*
X172257023Y-114767380D02*
X172257023Y-113767380D01*
X155209404Y-115425000D02*
X155114166Y-115377380D01*
X154971309Y-115377380D01*
X154828452Y-115425000D01*
X154733214Y-115520238D01*
X154685595Y-115615476D01*
X154637976Y-115805952D01*
X154637976Y-115948809D01*
X154685595Y-116139285D01*
X154733214Y-116234523D01*
X154828452Y-116329761D01*
X154971309Y-116377380D01*
X155066547Y-116377380D01*
X155209404Y-116329761D01*
X155257023Y-116282142D01*
X155257023Y-115948809D01*
X155066547Y-115948809D01*
X155685595Y-116377380D02*
X155685595Y-115377380D01*
X156066547Y-115377380D01*
X156161785Y-115425000D01*
X156209404Y-115472619D01*
X156257023Y-115567857D01*
X156257023Y-115710714D01*
X156209404Y-115805952D01*
X156161785Y-115853571D01*
X156066547Y-115901190D01*
X155685595Y-115901190D01*
X156685595Y-116377380D02*
X156685595Y-115377380D01*
X157352261Y-115377380D02*
X157542738Y-115377380D01*
X157637976Y-115425000D01*
X157733214Y-115520238D01*
X157780833Y-115710714D01*
X157780833Y-116044047D01*
X157733214Y-116234523D01*
X157637976Y-116329761D01*
X157542738Y-116377380D01*
X157352261Y-116377380D01*
X157257023Y-116329761D01*
X157161785Y-116234523D01*
X157114166Y-116044047D01*
X157114166Y-115710714D01*
X157161785Y-115520238D01*
X157257023Y-115425000D01*
X157352261Y-115377380D01*
X157971309Y-116472619D02*
X158733214Y-116472619D01*
X158876071Y-115377380D02*
X159495119Y-115377380D01*
X159161785Y-115758333D01*
X159304642Y-115758333D01*
X159399880Y-115805952D01*
X159447500Y-115853571D01*
X159495119Y-115948809D01*
X159495119Y-116186904D01*
X159447500Y-116282142D01*
X159399880Y-116329761D01*
X159304642Y-116377380D01*
X159018928Y-116377380D01*
X158923690Y-116329761D01*
X158876071Y-116282142D01*
X160352261Y-115710714D02*
X160352261Y-116377380D01*
X160114166Y-115329761D02*
X159876071Y-116044047D01*
X160495119Y-116044047D01*
X161637976Y-115996428D02*
X162399880Y-115996428D01*
X163923690Y-116758333D02*
X163876071Y-116710714D01*
X163780833Y-116567857D01*
X163733214Y-116472619D01*
X163685595Y-116329761D01*
X163637976Y-116091666D01*
X163637976Y-115901190D01*
X163685595Y-115663095D01*
X163733214Y-115520238D01*
X163780833Y-115425000D01*
X163876071Y-115282142D01*
X163923690Y-115234523D01*
X164257023Y-116329761D02*
X164399880Y-116377380D01*
X164637976Y-116377380D01*
X164733214Y-116329761D01*
X164780833Y-116282142D01*
X164828452Y-116186904D01*
X164828452Y-116091666D01*
X164780833Y-115996428D01*
X164733214Y-115948809D01*
X164637976Y-115901190D01*
X164447500Y-115853571D01*
X164352261Y-115805952D01*
X164304642Y-115758333D01*
X164257023Y-115663095D01*
X164257023Y-115567857D01*
X164304642Y-115472619D01*
X164352261Y-115425000D01*
X164447500Y-115377380D01*
X164685595Y-115377380D01*
X164828452Y-115425000D01*
X165257023Y-116377380D02*
X165257023Y-115377380D01*
X165637976Y-115377380D01*
X165733214Y-115425000D01*
X165780833Y-115472619D01*
X165828452Y-115567857D01*
X165828452Y-115710714D01*
X165780833Y-115805952D01*
X165733214Y-115853571D01*
X165637976Y-115901190D01*
X165257023Y-115901190D01*
X166257023Y-116377380D02*
X166257023Y-115377380D01*
X166495119Y-116472619D02*
X167257023Y-116472619D01*
X167447500Y-115472619D02*
X167495119Y-115425000D01*
X167590357Y-115377380D01*
X167828452Y-115377380D01*
X167923690Y-115425000D01*
X167971309Y-115472619D01*
X168018928Y-115567857D01*
X168018928Y-115663095D01*
X167971309Y-115805952D01*
X167399880Y-116377380D01*
X168018928Y-116377380D01*
X168352261Y-116758333D02*
X168399880Y-116710714D01*
X168495119Y-116567857D01*
X168542738Y-116472619D01*
X168590357Y-116329761D01*
X168637976Y-116091666D01*
X168637976Y-115901190D01*
X168590357Y-115663095D01*
X168542738Y-115520238D01*
X168495119Y-115425000D01*
X168399880Y-115282142D01*
X168352261Y-115234523D01*
X169685595Y-116282142D02*
X169637976Y-116329761D01*
X169495119Y-116377380D01*
X169399880Y-116377380D01*
X169257023Y-116329761D01*
X169161785Y-116234523D01*
X169114166Y-116139285D01*
X169066547Y-115948809D01*
X169066547Y-115805952D01*
X169114166Y-115615476D01*
X169161785Y-115520238D01*
X169257023Y-115425000D01*
X169399880Y-115377380D01*
X169495119Y-115377380D01*
X169637976Y-115425000D01*
X169685595Y-115472619D01*
X170066547Y-116329761D02*
X170209404Y-116377380D01*
X170447500Y-116377380D01*
X170542738Y-116329761D01*
X170590357Y-116282142D01*
X170637976Y-116186904D01*
X170637976Y-116091666D01*
X170590357Y-115996428D01*
X170542738Y-115948809D01*
X170447500Y-115901190D01*
X170257023Y-115853571D01*
X170161785Y-115805952D01*
X170114166Y-115758333D01*
X170066547Y-115663095D01*
X170066547Y-115567857D01*
X170114166Y-115472619D01*
X170161785Y-115425000D01*
X170257023Y-115377380D01*
X170495119Y-115377380D01*
X170637976Y-115425000D01*
X155209404Y-118645000D02*
X155114166Y-118597380D01*
X154971309Y-118597380D01*
X154828452Y-118645000D01*
X154733214Y-118740238D01*
X154685595Y-118835476D01*
X154637976Y-119025952D01*
X154637976Y-119168809D01*
X154685595Y-119359285D01*
X154733214Y-119454523D01*
X154828452Y-119549761D01*
X154971309Y-119597380D01*
X155066547Y-119597380D01*
X155209404Y-119549761D01*
X155257023Y-119502142D01*
X155257023Y-119168809D01*
X155066547Y-119168809D01*
X155685595Y-119597380D02*
X155685595Y-118597380D01*
X156066547Y-118597380D01*
X156161785Y-118645000D01*
X156209404Y-118692619D01*
X156257023Y-118787857D01*
X156257023Y-118930714D01*
X156209404Y-119025952D01*
X156161785Y-119073571D01*
X156066547Y-119121190D01*
X155685595Y-119121190D01*
X156685595Y-119597380D02*
X156685595Y-118597380D01*
X157352261Y-118597380D02*
X157542738Y-118597380D01*
X157637976Y-118645000D01*
X157733214Y-118740238D01*
X157780833Y-118930714D01*
X157780833Y-119264047D01*
X157733214Y-119454523D01*
X157637976Y-119549761D01*
X157542738Y-119597380D01*
X157352261Y-119597380D01*
X157257023Y-119549761D01*
X157161785Y-119454523D01*
X157114166Y-119264047D01*
X157114166Y-118930714D01*
X157161785Y-118740238D01*
X157257023Y-118645000D01*
X157352261Y-118597380D01*
X157971309Y-119692619D02*
X158733214Y-119692619D01*
X159495119Y-119597380D02*
X158923690Y-119597380D01*
X159209404Y-119597380D02*
X159209404Y-118597380D01*
X159114166Y-118740238D01*
X159018928Y-118835476D01*
X158923690Y-118883095D01*
X159828452Y-118597380D02*
X160495119Y-118597380D01*
X160066547Y-119597380D01*
X161637976Y-119216428D02*
X162399880Y-119216428D01*
X163637976Y-119597380D02*
X163637976Y-118597380D01*
X163876071Y-118597380D01*
X164018928Y-118645000D01*
X164114166Y-118740238D01*
X164161785Y-118835476D01*
X164209404Y-119025952D01*
X164209404Y-119168809D01*
X164161785Y-119359285D01*
X164114166Y-119454523D01*
X164018928Y-119549761D01*
X163876071Y-119597380D01*
X163637976Y-119597380D01*
X164590357Y-119311666D02*
X165066547Y-119311666D01*
X164495119Y-119597380D02*
X164828452Y-118597380D01*
X165161785Y-119597380D01*
X166066547Y-119502142D02*
X166018928Y-119549761D01*
X165876071Y-119597380D01*
X165780833Y-119597380D01*
X165637976Y-119549761D01*
X165542738Y-119454523D01*
X165495119Y-119359285D01*
X165447500Y-119168809D01*
X165447500Y-119025952D01*
X165495119Y-118835476D01*
X165542738Y-118740238D01*
X165637976Y-118645000D01*
X165780833Y-118597380D01*
X165876071Y-118597380D01*
X166018928Y-118645000D01*
X166066547Y-118692619D01*
X166257023Y-119692619D02*
X167018928Y-119692619D01*
X167780833Y-119597380D02*
X167209404Y-119597380D01*
X167495119Y-119597380D02*
X167495119Y-118597380D01*
X167399880Y-118740238D01*
X167304642Y-118835476D01*
X167209404Y-118883095D01*
X155209404Y-120255000D02*
X155114166Y-120207380D01*
X154971309Y-120207380D01*
X154828452Y-120255000D01*
X154733214Y-120350238D01*
X154685595Y-120445476D01*
X154637976Y-120635952D01*
X154637976Y-120778809D01*
X154685595Y-120969285D01*
X154733214Y-121064523D01*
X154828452Y-121159761D01*
X154971309Y-121207380D01*
X155066547Y-121207380D01*
X155209404Y-121159761D01*
X155257023Y-121112142D01*
X155257023Y-120778809D01*
X155066547Y-120778809D01*
X155685595Y-121207380D02*
X155685595Y-120207380D01*
X156066547Y-120207380D01*
X156161785Y-120255000D01*
X156209404Y-120302619D01*
X156257023Y-120397857D01*
X156257023Y-120540714D01*
X156209404Y-120635952D01*
X156161785Y-120683571D01*
X156066547Y-120731190D01*
X155685595Y-120731190D01*
X156685595Y-121207380D02*
X156685595Y-120207380D01*
X157352261Y-120207380D02*
X157542738Y-120207380D01*
X157637976Y-120255000D01*
X157733214Y-120350238D01*
X157780833Y-120540714D01*
X157780833Y-120874047D01*
X157733214Y-121064523D01*
X157637976Y-121159761D01*
X157542738Y-121207380D01*
X157352261Y-121207380D01*
X157257023Y-121159761D01*
X157161785Y-121064523D01*
X157114166Y-120874047D01*
X157114166Y-120540714D01*
X157161785Y-120350238D01*
X157257023Y-120255000D01*
X157352261Y-120207380D01*
X157971309Y-121302619D02*
X158733214Y-121302619D01*
X159495119Y-121207380D02*
X158923690Y-121207380D01*
X159209404Y-121207380D02*
X159209404Y-120207380D01*
X159114166Y-120350238D01*
X159018928Y-120445476D01*
X158923690Y-120493095D01*
X160066547Y-120635952D02*
X159971309Y-120588333D01*
X159923690Y-120540714D01*
X159876071Y-120445476D01*
X159876071Y-120397857D01*
X159923690Y-120302619D01*
X159971309Y-120255000D01*
X160066547Y-120207380D01*
X160257023Y-120207380D01*
X160352261Y-120255000D01*
X160399880Y-120302619D01*
X160447500Y-120397857D01*
X160447500Y-120445476D01*
X160399880Y-120540714D01*
X160352261Y-120588333D01*
X160257023Y-120635952D01*
X160066547Y-120635952D01*
X159971309Y-120683571D01*
X159923690Y-120731190D01*
X159876071Y-120826428D01*
X159876071Y-121016904D01*
X159923690Y-121112142D01*
X159971309Y-121159761D01*
X160066547Y-121207380D01*
X160257023Y-121207380D01*
X160352261Y-121159761D01*
X160399880Y-121112142D01*
X160447500Y-121016904D01*
X160447500Y-120826428D01*
X160399880Y-120731190D01*
X160352261Y-120683571D01*
X160257023Y-120635952D01*
X161637976Y-120826428D02*
X162399880Y-120826428D01*
X163637976Y-121207380D02*
X163637976Y-120207380D01*
X163876071Y-120207380D01*
X164018928Y-120255000D01*
X164114166Y-120350238D01*
X164161785Y-120445476D01*
X164209404Y-120635952D01*
X164209404Y-120778809D01*
X164161785Y-120969285D01*
X164114166Y-121064523D01*
X164018928Y-121159761D01*
X163876071Y-121207380D01*
X163637976Y-121207380D01*
X164590357Y-120921666D02*
X165066547Y-120921666D01*
X164495119Y-121207380D02*
X164828452Y-120207380D01*
X165161785Y-121207380D01*
X166066547Y-121112142D02*
X166018928Y-121159761D01*
X165876071Y-121207380D01*
X165780833Y-121207380D01*
X165637976Y-121159761D01*
X165542738Y-121064523D01*
X165495119Y-120969285D01*
X165447500Y-120778809D01*
X165447500Y-120635952D01*
X165495119Y-120445476D01*
X165542738Y-120350238D01*
X165637976Y-120255000D01*
X165780833Y-120207380D01*
X165876071Y-120207380D01*
X166018928Y-120255000D01*
X166066547Y-120302619D01*
X166257023Y-121302619D02*
X167018928Y-121302619D01*
X167209404Y-120302619D02*
X167257023Y-120255000D01*
X167352261Y-120207380D01*
X167590357Y-120207380D01*
X167685595Y-120255000D01*
X167733214Y-120302619D01*
X167780833Y-120397857D01*
X167780833Y-120493095D01*
X167733214Y-120635952D01*
X167161785Y-121207380D01*
X167780833Y-121207380D01*
X155209404Y-123475000D02*
X155114166Y-123427380D01*
X154971309Y-123427380D01*
X154828452Y-123475000D01*
X154733214Y-123570238D01*
X154685595Y-123665476D01*
X154637976Y-123855952D01*
X154637976Y-123998809D01*
X154685595Y-124189285D01*
X154733214Y-124284523D01*
X154828452Y-124379761D01*
X154971309Y-124427380D01*
X155066547Y-124427380D01*
X155209404Y-124379761D01*
X155257023Y-124332142D01*
X155257023Y-123998809D01*
X155066547Y-123998809D01*
X155685595Y-124427380D02*
X155685595Y-123427380D01*
X156066547Y-123427380D01*
X156161785Y-123475000D01*
X156209404Y-123522619D01*
X156257023Y-123617857D01*
X156257023Y-123760714D01*
X156209404Y-123855952D01*
X156161785Y-123903571D01*
X156066547Y-123951190D01*
X155685595Y-123951190D01*
X156685595Y-124427380D02*
X156685595Y-123427380D01*
X157352261Y-123427380D02*
X157542738Y-123427380D01*
X157637976Y-123475000D01*
X157733214Y-123570238D01*
X157780833Y-123760714D01*
X157780833Y-124094047D01*
X157733214Y-124284523D01*
X157637976Y-124379761D01*
X157542738Y-124427380D01*
X157352261Y-124427380D01*
X157257023Y-124379761D01*
X157161785Y-124284523D01*
X157114166Y-124094047D01*
X157114166Y-123760714D01*
X157161785Y-123570238D01*
X157257023Y-123475000D01*
X157352261Y-123427380D01*
X157971309Y-124522619D02*
X158733214Y-124522619D01*
X159161785Y-123427380D02*
X159257023Y-123427380D01*
X159352261Y-123475000D01*
X159399880Y-123522619D01*
X159447500Y-123617857D01*
X159495119Y-123808333D01*
X159495119Y-124046428D01*
X159447500Y-124236904D01*
X159399880Y-124332142D01*
X159352261Y-124379761D01*
X159257023Y-124427380D01*
X159161785Y-124427380D01*
X159066547Y-124379761D01*
X159018928Y-124332142D01*
X158971309Y-124236904D01*
X158923690Y-124046428D01*
X158923690Y-123808333D01*
X158971309Y-123617857D01*
X159018928Y-123522619D01*
X159066547Y-123475000D01*
X159161785Y-123427380D01*
X160685595Y-124046428D02*
X161447500Y-124046428D01*
X162590357Y-123427380D02*
X163257023Y-124427380D01*
X163257023Y-123427380D02*
X162590357Y-124427380D01*
X155209404Y-125085000D02*
X155114166Y-125037380D01*
X154971309Y-125037380D01*
X154828452Y-125085000D01*
X154733214Y-125180238D01*
X154685595Y-125275476D01*
X154637976Y-125465952D01*
X154637976Y-125608809D01*
X154685595Y-125799285D01*
X154733214Y-125894523D01*
X154828452Y-125989761D01*
X154971309Y-126037380D01*
X155066547Y-126037380D01*
X155209404Y-125989761D01*
X155257023Y-125942142D01*
X155257023Y-125608809D01*
X155066547Y-125608809D01*
X155685595Y-126037380D02*
X155685595Y-125037380D01*
X156066547Y-125037380D01*
X156161785Y-125085000D01*
X156209404Y-125132619D01*
X156257023Y-125227857D01*
X156257023Y-125370714D01*
X156209404Y-125465952D01*
X156161785Y-125513571D01*
X156066547Y-125561190D01*
X155685595Y-125561190D01*
X156685595Y-126037380D02*
X156685595Y-125037380D01*
X157352261Y-125037380D02*
X157542738Y-125037380D01*
X157637976Y-125085000D01*
X157733214Y-125180238D01*
X157780833Y-125370714D01*
X157780833Y-125704047D01*
X157733214Y-125894523D01*
X157637976Y-125989761D01*
X157542738Y-126037380D01*
X157352261Y-126037380D01*
X157257023Y-125989761D01*
X157161785Y-125894523D01*
X157114166Y-125704047D01*
X157114166Y-125370714D01*
X157161785Y-125180238D01*
X157257023Y-125085000D01*
X157352261Y-125037380D01*
X157971309Y-126132619D02*
X158733214Y-126132619D01*
X158923690Y-125132619D02*
X158971309Y-125085000D01*
X159066547Y-125037380D01*
X159304642Y-125037380D01*
X159399880Y-125085000D01*
X159447500Y-125132619D01*
X159495119Y-125227857D01*
X159495119Y-125323095D01*
X159447500Y-125465952D01*
X158876071Y-126037380D01*
X159495119Y-126037380D01*
X160352261Y-125037380D02*
X160161785Y-125037380D01*
X160066547Y-125085000D01*
X160018928Y-125132619D01*
X159923690Y-125275476D01*
X159876071Y-125465952D01*
X159876071Y-125846904D01*
X159923690Y-125942142D01*
X159971309Y-125989761D01*
X160066547Y-126037380D01*
X160257023Y-126037380D01*
X160352261Y-125989761D01*
X160399880Y-125942142D01*
X160447500Y-125846904D01*
X160447500Y-125608809D01*
X160399880Y-125513571D01*
X160352261Y-125465952D01*
X160257023Y-125418333D01*
X160066547Y-125418333D01*
X159971309Y-125465952D01*
X159923690Y-125513571D01*
X159876071Y-125608809D01*
X161637976Y-125656428D02*
X162399880Y-125656428D01*
X163542738Y-125037380D02*
X164209404Y-126037380D01*
X164209404Y-125037380D02*
X163542738Y-126037380D01*
X163452380Y-135537976D02*
X162452380Y-135537976D01*
X162452380Y-134871309D02*
X162452380Y-134680833D01*
X162500000Y-134585595D01*
X162595238Y-134490357D01*
X162785714Y-134442738D01*
X163119047Y-134442738D01*
X163309523Y-134490357D01*
X163404761Y-134585595D01*
X163452380Y-134680833D01*
X163452380Y-134871309D01*
X163404761Y-134966547D01*
X163309523Y-135061785D01*
X163119047Y-135109404D01*
X162785714Y-135109404D01*
X162595238Y-135061785D01*
X162500000Y-134966547D01*
X162452380Y-134871309D01*
X163452380Y-133490357D02*
X163452380Y-134061785D01*
X163452380Y-133776071D02*
X162452380Y-133776071D01*
X162595238Y-133871309D01*
X162690476Y-133966547D01*
X162738095Y-134061785D01*
X162452380Y-132871309D02*
X162452380Y-132776071D01*
X162500000Y-132680833D01*
X162547619Y-132633214D01*
X162642857Y-132585595D01*
X162833333Y-132537976D01*
X163071428Y-132537976D01*
X163261904Y-132585595D01*
X163357142Y-132633214D01*
X163404761Y-132680833D01*
X163452380Y-132776071D01*
X163452380Y-132871309D01*
X163404761Y-132966547D01*
X163357142Y-133014166D01*
X163261904Y-133061785D01*
X163071428Y-133109404D01*
X162833333Y-133109404D01*
X162642857Y-133061785D01*
X162547619Y-133014166D01*
X162500000Y-132966547D01*
X162452380Y-132871309D01*
X115535595Y-67547380D02*
X115535595Y-66547380D01*
X116202261Y-66547380D02*
X116392738Y-66547380D01*
X116487976Y-66595000D01*
X116583214Y-66690238D01*
X116630833Y-66880714D01*
X116630833Y-67214047D01*
X116583214Y-67404523D01*
X116487976Y-67499761D01*
X116392738Y-67547380D01*
X116202261Y-67547380D01*
X116107023Y-67499761D01*
X116011785Y-67404523D01*
X115964166Y-67214047D01*
X115964166Y-66880714D01*
X116011785Y-66690238D01*
X116107023Y-66595000D01*
X116202261Y-66547380D01*
X117583214Y-67547380D02*
X117011785Y-67547380D01*
X117297500Y-67547380D02*
X117297500Y-66547380D01*
X117202261Y-66690238D01*
X117107023Y-66785476D01*
X117011785Y-66833095D01*
X117916547Y-66547380D02*
X118583214Y-66547380D01*
X118154642Y-67547380D01*
X115535595Y-69157380D02*
X115535595Y-68157380D01*
X115773690Y-68157380D01*
X115916547Y-68205000D01*
X116011785Y-68300238D01*
X116059404Y-68395476D01*
X116107023Y-68585952D01*
X116107023Y-68728809D01*
X116059404Y-68919285D01*
X116011785Y-69014523D01*
X115916547Y-69109761D01*
X115773690Y-69157380D01*
X115535595Y-69157380D01*
X116487976Y-68871666D02*
X116964166Y-68871666D01*
X116392738Y-69157380D02*
X116726071Y-68157380D01*
X117059404Y-69157380D01*
X117964166Y-69062142D02*
X117916547Y-69109761D01*
X117773690Y-69157380D01*
X117678452Y-69157380D01*
X117535595Y-69109761D01*
X117440357Y-69014523D01*
X117392738Y-68919285D01*
X117345119Y-68728809D01*
X117345119Y-68585952D01*
X117392738Y-68395476D01*
X117440357Y-68300238D01*
X117535595Y-68205000D01*
X117678452Y-68157380D01*
X117773690Y-68157380D01*
X117916547Y-68205000D01*
X117964166Y-68252619D01*
X118154642Y-69252619D02*
X118916547Y-69252619D01*
X119678452Y-69157380D02*
X119107023Y-69157380D01*
X119392738Y-69157380D02*
X119392738Y-68157380D01*
X119297500Y-68300238D01*
X119202261Y-68395476D01*
X119107023Y-68443095D01*
X134052380Y-137909523D02*
X133052380Y-137909523D01*
X133052380Y-137528571D01*
X133100000Y-137433333D01*
X133147619Y-137385714D01*
X133242857Y-137338095D01*
X133385714Y-137338095D01*
X133480952Y-137385714D01*
X133528571Y-137433333D01*
X133576190Y-137528571D01*
X133576190Y-137909523D01*
X133052380Y-136719047D02*
X133052380Y-136528571D01*
X133100000Y-136433333D01*
X133195238Y-136338095D01*
X133385714Y-136290476D01*
X133719047Y-136290476D01*
X133909523Y-136338095D01*
X134004761Y-136433333D01*
X134052380Y-136528571D01*
X134052380Y-136719047D01*
X134004761Y-136814285D01*
X133909523Y-136909523D01*
X133719047Y-136957142D01*
X133385714Y-136957142D01*
X133195238Y-136909523D01*
X133100000Y-136814285D01*
X133052380Y-136719047D01*
X133052380Y-135957142D02*
X134052380Y-135719047D01*
X133338095Y-135528571D01*
X134052380Y-135338095D01*
X133052380Y-135100000D01*
X133528571Y-134719047D02*
X133528571Y-134385714D01*
X134052380Y-134242857D02*
X134052380Y-134719047D01*
X133052380Y-134719047D01*
X133052380Y-134242857D01*
X134052380Y-133242857D02*
X133576190Y-133576190D01*
X134052380Y-133814285D02*
X133052380Y-133814285D01*
X133052380Y-133433333D01*
X133100000Y-133338095D01*
X133147619Y-133290476D01*
X133242857Y-133242857D01*
X133385714Y-133242857D01*
X133480952Y-133290476D01*
X133528571Y-133338095D01*
X133576190Y-133433333D01*
X133576190Y-133814285D01*
X195109523Y-125852380D02*
X194633333Y-125852380D01*
X194585714Y-126328571D01*
X194633333Y-126280952D01*
X194728571Y-126233333D01*
X194966666Y-126233333D01*
X195061904Y-126280952D01*
X195109523Y-126328571D01*
X195157142Y-126423809D01*
X195157142Y-126661904D01*
X195109523Y-126757142D01*
X195061904Y-126804761D01*
X194966666Y-126852380D01*
X194728571Y-126852380D01*
X194633333Y-126804761D01*
X194585714Y-126757142D01*
X195442857Y-125852380D02*
X195776190Y-126852380D01*
X196109523Y-125852380D01*
X193952380Y-135537976D02*
X192952380Y-135537976D01*
X192952380Y-134871309D02*
X192952380Y-134680833D01*
X193000000Y-134585595D01*
X193095238Y-134490357D01*
X193285714Y-134442738D01*
X193619047Y-134442738D01*
X193809523Y-134490357D01*
X193904761Y-134585595D01*
X193952380Y-134680833D01*
X193952380Y-134871309D01*
X193904761Y-134966547D01*
X193809523Y-135061785D01*
X193619047Y-135109404D01*
X193285714Y-135109404D01*
X193095238Y-135061785D01*
X193000000Y-134966547D01*
X192952380Y-134871309D01*
X193285714Y-133585595D02*
X193952380Y-133585595D01*
X192904761Y-133823690D02*
X193619047Y-134061785D01*
X193619047Y-133442738D01*
X193285714Y-132633214D02*
X193952380Y-132633214D01*
X192904761Y-132871309D02*
X193619047Y-133109404D01*
X193619047Y-132490357D01*
X200759404Y-109600000D02*
X200664166Y-109552380D01*
X200521309Y-109552380D01*
X200378452Y-109600000D01*
X200283214Y-109695238D01*
X200235595Y-109790476D01*
X200187976Y-109980952D01*
X200187976Y-110123809D01*
X200235595Y-110314285D01*
X200283214Y-110409523D01*
X200378452Y-110504761D01*
X200521309Y-110552380D01*
X200616547Y-110552380D01*
X200759404Y-110504761D01*
X200807023Y-110457142D01*
X200807023Y-110123809D01*
X200616547Y-110123809D01*
X201235595Y-110552380D02*
X201235595Y-109552380D01*
X201807023Y-110552380D01*
X201807023Y-109552380D01*
X202283214Y-110552380D02*
X202283214Y-109552380D01*
X202521309Y-109552380D01*
X202664166Y-109600000D01*
X202759404Y-109695238D01*
X202807023Y-109790476D01*
X202854642Y-109980952D01*
X202854642Y-110123809D01*
X202807023Y-110314285D01*
X202759404Y-110409523D01*
X202664166Y-110504761D01*
X202521309Y-110552380D01*
X202283214Y-110552380D01*
X121600000Y-69790595D02*
X121552380Y-69885833D01*
X121552380Y-70028690D01*
X121600000Y-70171547D01*
X121695238Y-70266785D01*
X121790476Y-70314404D01*
X121980952Y-70362023D01*
X122123809Y-70362023D01*
X122314285Y-70314404D01*
X122409523Y-70266785D01*
X122504761Y-70171547D01*
X122552380Y-70028690D01*
X122552380Y-69933452D01*
X122504761Y-69790595D01*
X122457142Y-69742976D01*
X122123809Y-69742976D01*
X122123809Y-69933452D01*
X122552380Y-69314404D02*
X121552380Y-69314404D01*
X122552380Y-68742976D01*
X121552380Y-68742976D01*
X122552380Y-68266785D02*
X121552380Y-68266785D01*
X121552380Y-68028690D01*
X121600000Y-67885833D01*
X121695238Y-67790595D01*
X121790476Y-67742976D01*
X121980952Y-67695357D01*
X122123809Y-67695357D01*
X122314285Y-67742976D01*
X122409523Y-67790595D01*
X122504761Y-67885833D01*
X122552380Y-68028690D01*
X122552380Y-68266785D01*
X199785595Y-116702380D02*
X199785595Y-115702380D01*
X200452261Y-115702380D02*
X200642738Y-115702380D01*
X200737976Y-115750000D01*
X200833214Y-115845238D01*
X200880833Y-116035714D01*
X200880833Y-116369047D01*
X200833214Y-116559523D01*
X200737976Y-116654761D01*
X200642738Y-116702380D01*
X200452261Y-116702380D01*
X200357023Y-116654761D01*
X200261785Y-116559523D01*
X200214166Y-116369047D01*
X200214166Y-116035714D01*
X200261785Y-115845238D01*
X200357023Y-115750000D01*
X200452261Y-115702380D01*
X201737976Y-116035714D02*
X201737976Y-116702380D01*
X201499880Y-115654761D02*
X201261785Y-116369047D01*
X201880833Y-116369047D01*
X202166547Y-115702380D02*
X202785595Y-115702380D01*
X202452261Y-116083333D01*
X202595119Y-116083333D01*
X202690357Y-116130952D01*
X202737976Y-116178571D01*
X202785595Y-116273809D01*
X202785595Y-116511904D01*
X202737976Y-116607142D01*
X202690357Y-116654761D01*
X202595119Y-116702380D01*
X202309404Y-116702380D01*
X202214166Y-116654761D01*
X202166547Y-116607142D01*
X199835595Y-131952380D02*
X199835595Y-130952380D01*
X200502261Y-130952380D02*
X200692738Y-130952380D01*
X200787976Y-131000000D01*
X200883214Y-131095238D01*
X200930833Y-131285714D01*
X200930833Y-131619047D01*
X200883214Y-131809523D01*
X200787976Y-131904761D01*
X200692738Y-131952380D01*
X200502261Y-131952380D01*
X200407023Y-131904761D01*
X200311785Y-131809523D01*
X200264166Y-131619047D01*
X200264166Y-131285714D01*
X200311785Y-131095238D01*
X200407023Y-131000000D01*
X200502261Y-130952380D01*
X201883214Y-131952380D02*
X201311785Y-131952380D01*
X201597500Y-131952380D02*
X201597500Y-130952380D01*
X201502261Y-131095238D01*
X201407023Y-131190476D01*
X201311785Y-131238095D01*
X202264166Y-131047619D02*
X202311785Y-131000000D01*
X202407023Y-130952380D01*
X202645119Y-130952380D01*
X202740357Y-131000000D01*
X202787976Y-131047619D01*
X202835595Y-131142857D01*
X202835595Y-131238095D01*
X202787976Y-131380952D01*
X202216547Y-131952380D01*
X202835595Y-131952380D01*
X137752380Y-69764404D02*
X136752380Y-69764404D01*
X136752380Y-69097738D02*
X136752380Y-68907261D01*
X136800000Y-68812023D01*
X136895238Y-68716785D01*
X137085714Y-68669166D01*
X137419047Y-68669166D01*
X137609523Y-68716785D01*
X137704761Y-68812023D01*
X137752380Y-68907261D01*
X137752380Y-69097738D01*
X137704761Y-69192976D01*
X137609523Y-69288214D01*
X137419047Y-69335833D01*
X137085714Y-69335833D01*
X136895238Y-69288214D01*
X136800000Y-69192976D01*
X136752380Y-69097738D01*
X136752380Y-67764404D02*
X136752380Y-68240595D01*
X137228571Y-68288214D01*
X137180952Y-68240595D01*
X137133333Y-68145357D01*
X137133333Y-67907261D01*
X137180952Y-67812023D01*
X137228571Y-67764404D01*
X137323809Y-67716785D01*
X137561904Y-67716785D01*
X137657142Y-67764404D01*
X137704761Y-67812023D01*
X137752380Y-67907261D01*
X137752380Y-68145357D01*
X137704761Y-68240595D01*
X137657142Y-68288214D01*
X166052380Y-135537976D02*
X165052380Y-135537976D01*
X165052380Y-134871309D02*
X165052380Y-134680833D01*
X165100000Y-134585595D01*
X165195238Y-134490357D01*
X165385714Y-134442738D01*
X165719047Y-134442738D01*
X165909523Y-134490357D01*
X166004761Y-134585595D01*
X166052380Y-134680833D01*
X166052380Y-134871309D01*
X166004761Y-134966547D01*
X165909523Y-135061785D01*
X165719047Y-135109404D01*
X165385714Y-135109404D01*
X165195238Y-135061785D01*
X165100000Y-134966547D01*
X165052380Y-134871309D01*
X166052380Y-133490357D02*
X166052380Y-134061785D01*
X166052380Y-133776071D02*
X165052380Y-133776071D01*
X165195238Y-133871309D01*
X165290476Y-133966547D01*
X165338095Y-134061785D01*
X165147619Y-133109404D02*
X165100000Y-133061785D01*
X165052380Y-132966547D01*
X165052380Y-132728452D01*
X165100000Y-132633214D01*
X165147619Y-132585595D01*
X165242857Y-132537976D01*
X165338095Y-132537976D01*
X165480952Y-132585595D01*
X166052380Y-133157023D01*
X166052380Y-132537976D01*
X201287976Y-136904761D02*
X201430833Y-136952380D01*
X201668928Y-136952380D01*
X201764166Y-136904761D01*
X201811785Y-136857142D01*
X201859404Y-136761904D01*
X201859404Y-136666666D01*
X201811785Y-136571428D01*
X201764166Y-136523809D01*
X201668928Y-136476190D01*
X201478452Y-136428571D01*
X201383214Y-136380952D01*
X201335595Y-136333333D01*
X201287976Y-136238095D01*
X201287976Y-136142857D01*
X201335595Y-136047619D01*
X201383214Y-136000000D01*
X201478452Y-135952380D01*
X201716547Y-135952380D01*
X201859404Y-136000000D01*
X202145119Y-135952380D02*
X202478452Y-136952380D01*
X202811785Y-135952380D01*
D11*
X110521428Y-79800000D02*
X111092857Y-79800000D01*
X110407142Y-80142857D02*
X110807142Y-78942857D01*
X111207142Y-80142857D01*
X111607142Y-78942857D02*
X111607142Y-79914285D01*
X111664285Y-80028571D01*
X111721428Y-80085714D01*
X111835714Y-80142857D01*
X112064285Y-80142857D01*
X112178571Y-80085714D01*
X112235714Y-80028571D01*
X112292857Y-79914285D01*
X112292857Y-78942857D01*
X112864285Y-80142857D02*
X112864285Y-78942857D01*
X113150000Y-78942857D01*
X113321428Y-79000000D01*
X113435714Y-79114285D01*
X113492857Y-79228571D01*
X113550000Y-79457142D01*
X113550000Y-79628571D01*
X113492857Y-79857142D01*
X113435714Y-79971428D01*
X113321428Y-80085714D01*
X113150000Y-80142857D01*
X112864285Y-80142857D01*
X114064285Y-80142857D02*
X114064285Y-78942857D01*
X114864285Y-78942857D02*
X115092857Y-78942857D01*
X115207142Y-79000000D01*
X115321428Y-79114285D01*
X115378571Y-79342857D01*
X115378571Y-79742857D01*
X115321428Y-79971428D01*
X115207142Y-80085714D01*
X115092857Y-80142857D01*
X114864285Y-80142857D01*
X114750000Y-80085714D01*
X114635714Y-79971428D01*
X114578571Y-79742857D01*
X114578571Y-79342857D01*
X114635714Y-79114285D01*
X114750000Y-79000000D01*
X114864285Y-78942857D01*
D10*
X194585714Y-129404761D02*
X194728571Y-129452380D01*
X194966666Y-129452380D01*
X195061904Y-129404761D01*
X195109523Y-129357142D01*
X195157142Y-129261904D01*
X195157142Y-129166666D01*
X195109523Y-129071428D01*
X195061904Y-129023809D01*
X194966666Y-128976190D01*
X194776190Y-128928571D01*
X194680952Y-128880952D01*
X194633333Y-128833333D01*
X194585714Y-128738095D01*
X194585714Y-128642857D01*
X194633333Y-128547619D01*
X194680952Y-128500000D01*
X194776190Y-128452380D01*
X195014285Y-128452380D01*
X195157142Y-128500000D01*
X195442857Y-128452380D02*
X195776190Y-129452380D01*
X196109523Y-128452380D01*
X166052380Y-131537976D02*
X165052380Y-131537976D01*
X165052380Y-130871309D02*
X165052380Y-130680833D01*
X165100000Y-130585595D01*
X165195238Y-130490357D01*
X165385714Y-130442738D01*
X165719047Y-130442738D01*
X165909523Y-130490357D01*
X166004761Y-130585595D01*
X166052380Y-130680833D01*
X166052380Y-130871309D01*
X166004761Y-130966547D01*
X165909523Y-131061785D01*
X165719047Y-131109404D01*
X165385714Y-131109404D01*
X165195238Y-131061785D01*
X165100000Y-130966547D01*
X165052380Y-130871309D01*
X166052380Y-129490357D02*
X166052380Y-130061785D01*
X166052380Y-129776071D02*
X165052380Y-129776071D01*
X165195238Y-129871309D01*
X165290476Y-129966547D01*
X165338095Y-130061785D01*
X165052380Y-129157023D02*
X165052380Y-128537976D01*
X165433333Y-128871309D01*
X165433333Y-128728452D01*
X165480952Y-128633214D01*
X165528571Y-128585595D01*
X165623809Y-128537976D01*
X165861904Y-128537976D01*
X165957142Y-128585595D01*
X166004761Y-128633214D01*
X166052380Y-128728452D01*
X166052380Y-129014166D01*
X166004761Y-129109404D01*
X165957142Y-129157023D01*
X135652380Y-137876190D02*
X136652380Y-137542857D01*
X135652380Y-137209523D01*
X136747619Y-137114285D02*
X136747619Y-136352380D01*
X136652380Y-136114285D02*
X135652380Y-136114285D01*
X136652380Y-135638095D02*
X135652380Y-135638095D01*
X136652380Y-135066666D01*
X135652380Y-135066666D01*
X106352380Y-130450000D02*
X105352380Y-130450000D01*
X105352380Y-129783333D02*
X105352380Y-129592857D01*
X105400000Y-129497619D01*
X105495238Y-129402380D01*
X105685714Y-129354761D01*
X106019047Y-129354761D01*
X106209523Y-129402380D01*
X106304761Y-129497619D01*
X106352380Y-129592857D01*
X106352380Y-129783333D01*
X106304761Y-129878571D01*
X106209523Y-129973809D01*
X106019047Y-130021428D01*
X105685714Y-130021428D01*
X105495238Y-129973809D01*
X105400000Y-129878571D01*
X105352380Y-129783333D01*
X105685714Y-128497619D02*
X106352380Y-128497619D01*
X105304761Y-128735714D02*
X106019047Y-128973809D01*
X106019047Y-128354761D01*
X186352380Y-131537976D02*
X185352380Y-131537976D01*
X185352380Y-130871309D02*
X185352380Y-130680833D01*
X185400000Y-130585595D01*
X185495238Y-130490357D01*
X185685714Y-130442738D01*
X186019047Y-130442738D01*
X186209523Y-130490357D01*
X186304761Y-130585595D01*
X186352380Y-130680833D01*
X186352380Y-130871309D01*
X186304761Y-130966547D01*
X186209523Y-131061785D01*
X186019047Y-131109404D01*
X185685714Y-131109404D01*
X185495238Y-131061785D01*
X185400000Y-130966547D01*
X185352380Y-130871309D01*
X185352380Y-130109404D02*
X185352380Y-129490357D01*
X185733333Y-129823690D01*
X185733333Y-129680833D01*
X185780952Y-129585595D01*
X185828571Y-129537976D01*
X185923809Y-129490357D01*
X186161904Y-129490357D01*
X186257142Y-129537976D01*
X186304761Y-129585595D01*
X186352380Y-129680833D01*
X186352380Y-129966547D01*
X186304761Y-130061785D01*
X186257142Y-130109404D01*
X186352380Y-129014166D02*
X186352380Y-128823690D01*
X186304761Y-128728452D01*
X186257142Y-128680833D01*
X186114285Y-128585595D01*
X185923809Y-128537976D01*
X185542857Y-128537976D01*
X185447619Y-128585595D01*
X185400000Y-128633214D01*
X185352380Y-128728452D01*
X185352380Y-128918928D01*
X185400000Y-129014166D01*
X185447619Y-129061785D01*
X185542857Y-129109404D01*
X185780952Y-129109404D01*
X185876190Y-129061785D01*
X185923809Y-129014166D01*
X185971428Y-128918928D01*
X185971428Y-128728452D01*
X185923809Y-128633214D01*
X185876190Y-128585595D01*
X185780952Y-128537976D01*
X132752380Y-74464404D02*
X131752380Y-74464404D01*
X131752380Y-73797738D02*
X131752380Y-73607261D01*
X131800000Y-73512023D01*
X131895238Y-73416785D01*
X132085714Y-73369166D01*
X132419047Y-73369166D01*
X132609523Y-73416785D01*
X132704761Y-73512023D01*
X132752380Y-73607261D01*
X132752380Y-73797738D01*
X132704761Y-73892976D01*
X132609523Y-73988214D01*
X132419047Y-74035833D01*
X132085714Y-74035833D01*
X131895238Y-73988214D01*
X131800000Y-73892976D01*
X131752380Y-73797738D01*
X132752380Y-72416785D02*
X132752380Y-72988214D01*
X132752380Y-72702500D02*
X131752380Y-72702500D01*
X131895238Y-72797738D01*
X131990476Y-72892976D01*
X132038095Y-72988214D01*
X131752380Y-71559642D02*
X131752380Y-71750119D01*
X131800000Y-71845357D01*
X131847619Y-71892976D01*
X131990476Y-71988214D01*
X132180952Y-72035833D01*
X132561904Y-72035833D01*
X132657142Y-71988214D01*
X132704761Y-71940595D01*
X132752380Y-71845357D01*
X132752380Y-71654880D01*
X132704761Y-71559642D01*
X132657142Y-71512023D01*
X132561904Y-71464404D01*
X132323809Y-71464404D01*
X132228571Y-71512023D01*
X132180952Y-71559642D01*
X132133333Y-71654880D01*
X132133333Y-71845357D01*
X132180952Y-71940595D01*
X132228571Y-71988214D01*
X132323809Y-72035833D01*
X199835595Y-92652380D02*
X199835595Y-91652380D01*
X200502261Y-91652380D02*
X200692738Y-91652380D01*
X200787976Y-91700000D01*
X200883214Y-91795238D01*
X200930833Y-91985714D01*
X200930833Y-92319047D01*
X200883214Y-92509523D01*
X200787976Y-92604761D01*
X200692738Y-92652380D01*
X200502261Y-92652380D01*
X200407023Y-92604761D01*
X200311785Y-92509523D01*
X200264166Y-92319047D01*
X200264166Y-91985714D01*
X200311785Y-91795238D01*
X200407023Y-91700000D01*
X200502261Y-91652380D01*
X201264166Y-91652380D02*
X201883214Y-91652380D01*
X201549880Y-92033333D01*
X201692738Y-92033333D01*
X201787976Y-92080952D01*
X201835595Y-92128571D01*
X201883214Y-92223809D01*
X201883214Y-92461904D01*
X201835595Y-92557142D01*
X201787976Y-92604761D01*
X201692738Y-92652380D01*
X201407023Y-92652380D01*
X201311785Y-92604761D01*
X201264166Y-92557142D01*
X202359404Y-92652380D02*
X202549880Y-92652380D01*
X202645119Y-92604761D01*
X202692738Y-92557142D01*
X202787976Y-92414285D01*
X202835595Y-92223809D01*
X202835595Y-91842857D01*
X202787976Y-91747619D01*
X202740357Y-91700000D01*
X202645119Y-91652380D01*
X202454642Y-91652380D01*
X202359404Y-91700000D01*
X202311785Y-91747619D01*
X202264166Y-91842857D01*
X202264166Y-92080952D01*
X202311785Y-92176190D01*
X202359404Y-92223809D01*
X202454642Y-92271428D01*
X202645119Y-92271428D01*
X202740357Y-92223809D01*
X202787976Y-92176190D01*
X202835595Y-92080952D01*
X155852380Y-135535595D02*
X154852380Y-135535595D01*
X154852380Y-134868928D02*
X154852380Y-134678452D01*
X154900000Y-134583214D01*
X154995238Y-134487976D01*
X155185714Y-134440357D01*
X155519047Y-134440357D01*
X155709523Y-134487976D01*
X155804761Y-134583214D01*
X155852380Y-134678452D01*
X155852380Y-134868928D01*
X155804761Y-134964166D01*
X155709523Y-135059404D01*
X155519047Y-135107023D01*
X155185714Y-135107023D01*
X154995238Y-135059404D01*
X154900000Y-134964166D01*
X154852380Y-134868928D01*
X155185714Y-133583214D02*
X155852380Y-133583214D01*
X154804761Y-133821309D02*
X155519047Y-134059404D01*
X155519047Y-133440357D01*
X188852380Y-135537976D02*
X187852380Y-135537976D01*
X187852380Y-134871309D02*
X187852380Y-134680833D01*
X187900000Y-134585595D01*
X187995238Y-134490357D01*
X188185714Y-134442738D01*
X188519047Y-134442738D01*
X188709523Y-134490357D01*
X188804761Y-134585595D01*
X188852380Y-134680833D01*
X188852380Y-134871309D01*
X188804761Y-134966547D01*
X188709523Y-135061785D01*
X188519047Y-135109404D01*
X188185714Y-135109404D01*
X187995238Y-135061785D01*
X187900000Y-134966547D01*
X187852380Y-134871309D01*
X188185714Y-133585595D02*
X188852380Y-133585595D01*
X187804761Y-133823690D02*
X188519047Y-134061785D01*
X188519047Y-133442738D01*
X187852380Y-132871309D02*
X187852380Y-132776071D01*
X187900000Y-132680833D01*
X187947619Y-132633214D01*
X188042857Y-132585595D01*
X188233333Y-132537976D01*
X188471428Y-132537976D01*
X188661904Y-132585595D01*
X188757142Y-132633214D01*
X188804761Y-132680833D01*
X188852380Y-132776071D01*
X188852380Y-132871309D01*
X188804761Y-132966547D01*
X188757142Y-133014166D01*
X188661904Y-133061785D01*
X188471428Y-133109404D01*
X188233333Y-133109404D01*
X188042857Y-133061785D01*
X187947619Y-133014166D01*
X187900000Y-132966547D01*
X187852380Y-132871309D01*
X130252380Y-70714404D02*
X129252380Y-70714404D01*
X129252380Y-70047738D02*
X129252380Y-69857261D01*
X129300000Y-69762023D01*
X129395238Y-69666785D01*
X129585714Y-69619166D01*
X129919047Y-69619166D01*
X130109523Y-69666785D01*
X130204761Y-69762023D01*
X130252380Y-69857261D01*
X130252380Y-70047738D01*
X130204761Y-70142976D01*
X130109523Y-70238214D01*
X129919047Y-70285833D01*
X129585714Y-70285833D01*
X129395238Y-70238214D01*
X129300000Y-70142976D01*
X129252380Y-70047738D01*
X129585714Y-68762023D02*
X130252380Y-68762023D01*
X129204761Y-69000119D02*
X129919047Y-69238214D01*
X129919047Y-68619166D01*
X129347619Y-68285833D02*
X129300000Y-68238214D01*
X129252380Y-68142976D01*
X129252380Y-67904880D01*
X129300000Y-67809642D01*
X129347619Y-67762023D01*
X129442857Y-67714404D01*
X129538095Y-67714404D01*
X129680952Y-67762023D01*
X130252380Y-68333452D01*
X130252380Y-67714404D01*
X143052380Y-73514404D02*
X142052380Y-73514404D01*
X142052380Y-72847738D02*
X142052380Y-72657261D01*
X142100000Y-72562023D01*
X142195238Y-72466785D01*
X142385714Y-72419166D01*
X142719047Y-72419166D01*
X142909523Y-72466785D01*
X143004761Y-72562023D01*
X143052380Y-72657261D01*
X143052380Y-72847738D01*
X143004761Y-72942976D01*
X142909523Y-73038214D01*
X142719047Y-73085833D01*
X142385714Y-73085833D01*
X142195238Y-73038214D01*
X142100000Y-72942976D01*
X142052380Y-72847738D01*
X142147619Y-72038214D02*
X142100000Y-71990595D01*
X142052380Y-71895357D01*
X142052380Y-71657261D01*
X142100000Y-71562023D01*
X142147619Y-71514404D01*
X142242857Y-71466785D01*
X142338095Y-71466785D01*
X142480952Y-71514404D01*
X143052380Y-72085833D01*
X143052380Y-71466785D01*
X130252380Y-73514404D02*
X129252380Y-73514404D01*
X129252380Y-72847738D02*
X129252380Y-72657261D01*
X129300000Y-72562023D01*
X129395238Y-72466785D01*
X129585714Y-72419166D01*
X129919047Y-72419166D01*
X130109523Y-72466785D01*
X130204761Y-72562023D01*
X130252380Y-72657261D01*
X130252380Y-72847738D01*
X130204761Y-72942976D01*
X130109523Y-73038214D01*
X129919047Y-73085833D01*
X129585714Y-73085833D01*
X129395238Y-73038214D01*
X129300000Y-72942976D01*
X129252380Y-72847738D01*
X129252380Y-72085833D02*
X129252380Y-71466785D01*
X129633333Y-71800119D01*
X129633333Y-71657261D01*
X129680952Y-71562023D01*
X129728571Y-71514404D01*
X129823809Y-71466785D01*
X130061904Y-71466785D01*
X130157142Y-71514404D01*
X130204761Y-71562023D01*
X130252380Y-71657261D01*
X130252380Y-71942976D01*
X130204761Y-72038214D01*
X130157142Y-72085833D01*
X171152380Y-131537976D02*
X170152380Y-131537976D01*
X170152380Y-130871309D02*
X170152380Y-130680833D01*
X170200000Y-130585595D01*
X170295238Y-130490357D01*
X170485714Y-130442738D01*
X170819047Y-130442738D01*
X171009523Y-130490357D01*
X171104761Y-130585595D01*
X171152380Y-130680833D01*
X171152380Y-130871309D01*
X171104761Y-130966547D01*
X171009523Y-131061785D01*
X170819047Y-131109404D01*
X170485714Y-131109404D01*
X170295238Y-131061785D01*
X170200000Y-130966547D01*
X170152380Y-130871309D01*
X171152380Y-129490357D02*
X171152380Y-130061785D01*
X171152380Y-129776071D02*
X170152380Y-129776071D01*
X170295238Y-129871309D01*
X170390476Y-129966547D01*
X170438095Y-130061785D01*
X170152380Y-129157023D02*
X170152380Y-128490357D01*
X171152380Y-128918928D01*
X200759404Y-138600000D02*
X200664166Y-138552380D01*
X200521309Y-138552380D01*
X200378452Y-138600000D01*
X200283214Y-138695238D01*
X200235595Y-138790476D01*
X200187976Y-138980952D01*
X200187976Y-139123809D01*
X200235595Y-139314285D01*
X200283214Y-139409523D01*
X200378452Y-139504761D01*
X200521309Y-139552380D01*
X200616547Y-139552380D01*
X200759404Y-139504761D01*
X200807023Y-139457142D01*
X200807023Y-139123809D01*
X200616547Y-139123809D01*
X201235595Y-139552380D02*
X201235595Y-138552380D01*
X201807023Y-139552380D01*
X201807023Y-138552380D01*
X202283214Y-139552380D02*
X202283214Y-138552380D01*
X202521309Y-138552380D01*
X202664166Y-138600000D01*
X202759404Y-138695238D01*
X202807023Y-138790476D01*
X202854642Y-138980952D01*
X202854642Y-139123809D01*
X202807023Y-139314285D01*
X202759404Y-139409523D01*
X202664166Y-139504761D01*
X202521309Y-139552380D01*
X202283214Y-139552380D01*
X153252380Y-131500000D02*
X152252380Y-131500000D01*
X152252380Y-130833333D02*
X152252380Y-130642857D01*
X152300000Y-130547619D01*
X152395238Y-130452380D01*
X152585714Y-130404761D01*
X152919047Y-130404761D01*
X153109523Y-130452380D01*
X153204761Y-130547619D01*
X153252380Y-130642857D01*
X153252380Y-130833333D01*
X153204761Y-130928571D01*
X153109523Y-131023809D01*
X152919047Y-131071428D01*
X152585714Y-131071428D01*
X152395238Y-131023809D01*
X152300000Y-130928571D01*
X152252380Y-130833333D01*
X152252380Y-130071428D02*
X152252380Y-129452380D01*
X152633333Y-129785714D01*
X152633333Y-129642857D01*
X152680952Y-129547619D01*
X152728571Y-129500000D01*
X152823809Y-129452380D01*
X153061904Y-129452380D01*
X153157142Y-129500000D01*
X153204761Y-129547619D01*
X153252380Y-129642857D01*
X153252380Y-129928571D01*
X153204761Y-130023809D01*
X153157142Y-130071428D01*
X127652380Y-74464404D02*
X126652380Y-74464404D01*
X126652380Y-73797738D02*
X126652380Y-73607261D01*
X126700000Y-73512023D01*
X126795238Y-73416785D01*
X126985714Y-73369166D01*
X127319047Y-73369166D01*
X127509523Y-73416785D01*
X127604761Y-73512023D01*
X127652380Y-73607261D01*
X127652380Y-73797738D01*
X127604761Y-73892976D01*
X127509523Y-73988214D01*
X127319047Y-74035833D01*
X126985714Y-74035833D01*
X126795238Y-73988214D01*
X126700000Y-73892976D01*
X126652380Y-73797738D01*
X126652380Y-73035833D02*
X126652380Y-72416785D01*
X127033333Y-72750119D01*
X127033333Y-72607261D01*
X127080952Y-72512023D01*
X127128571Y-72464404D01*
X127223809Y-72416785D01*
X127461904Y-72416785D01*
X127557142Y-72464404D01*
X127604761Y-72512023D01*
X127652380Y-72607261D01*
X127652380Y-72892976D01*
X127604761Y-72988214D01*
X127557142Y-73035833D01*
X127080952Y-71845357D02*
X127033333Y-71940595D01*
X126985714Y-71988214D01*
X126890476Y-72035833D01*
X126842857Y-72035833D01*
X126747619Y-71988214D01*
X126700000Y-71940595D01*
X126652380Y-71845357D01*
X126652380Y-71654880D01*
X126700000Y-71559642D01*
X126747619Y-71512023D01*
X126842857Y-71464404D01*
X126890476Y-71464404D01*
X126985714Y-71512023D01*
X127033333Y-71559642D01*
X127080952Y-71654880D01*
X127080952Y-71845357D01*
X127128571Y-71940595D01*
X127176190Y-71988214D01*
X127271428Y-72035833D01*
X127461904Y-72035833D01*
X127557142Y-71988214D01*
X127604761Y-71940595D01*
X127652380Y-71845357D01*
X127652380Y-71654880D01*
X127604761Y-71559642D01*
X127557142Y-71512023D01*
X127461904Y-71464404D01*
X127271428Y-71464404D01*
X127176190Y-71512023D01*
X127128571Y-71559642D01*
X127080952Y-71654880D01*
X178752380Y-135537976D02*
X177752380Y-135537976D01*
X177752380Y-134871309D02*
X177752380Y-134680833D01*
X177800000Y-134585595D01*
X177895238Y-134490357D01*
X178085714Y-134442738D01*
X178419047Y-134442738D01*
X178609523Y-134490357D01*
X178704761Y-134585595D01*
X178752380Y-134680833D01*
X178752380Y-134871309D01*
X178704761Y-134966547D01*
X178609523Y-135061785D01*
X178419047Y-135109404D01*
X178085714Y-135109404D01*
X177895238Y-135061785D01*
X177800000Y-134966547D01*
X177752380Y-134871309D01*
X177847619Y-134061785D02*
X177800000Y-134014166D01*
X177752380Y-133918928D01*
X177752380Y-133680833D01*
X177800000Y-133585595D01*
X177847619Y-133537976D01*
X177942857Y-133490357D01*
X178038095Y-133490357D01*
X178180952Y-133537976D01*
X178752380Y-134109404D01*
X178752380Y-133490357D01*
X177752380Y-132633214D02*
X177752380Y-132823690D01*
X177800000Y-132918928D01*
X177847619Y-132966547D01*
X177990476Y-133061785D01*
X178180952Y-133109404D01*
X178561904Y-133109404D01*
X178657142Y-133061785D01*
X178704761Y-133014166D01*
X178752380Y-132918928D01*
X178752380Y-132728452D01*
X178704761Y-132633214D01*
X178657142Y-132585595D01*
X178561904Y-132537976D01*
X178323809Y-132537976D01*
X178228571Y-132585595D01*
X178180952Y-132633214D01*
X178133333Y-132728452D01*
X178133333Y-132918928D01*
X178180952Y-133014166D01*
X178228571Y-133061785D01*
X178323809Y-133109404D01*
X199835595Y-105352380D02*
X199835595Y-104352380D01*
X200502261Y-104352380D02*
X200692738Y-104352380D01*
X200787976Y-104400000D01*
X200883214Y-104495238D01*
X200930833Y-104685714D01*
X200930833Y-105019047D01*
X200883214Y-105209523D01*
X200787976Y-105304761D01*
X200692738Y-105352380D01*
X200502261Y-105352380D01*
X200407023Y-105304761D01*
X200311785Y-105209523D01*
X200264166Y-105019047D01*
X200264166Y-104685714D01*
X200311785Y-104495238D01*
X200407023Y-104400000D01*
X200502261Y-104352380D01*
X201264166Y-104352380D02*
X201883214Y-104352380D01*
X201549880Y-104733333D01*
X201692738Y-104733333D01*
X201787976Y-104780952D01*
X201835595Y-104828571D01*
X201883214Y-104923809D01*
X201883214Y-105161904D01*
X201835595Y-105257142D01*
X201787976Y-105304761D01*
X201692738Y-105352380D01*
X201407023Y-105352380D01*
X201311785Y-105304761D01*
X201264166Y-105257142D01*
X202740357Y-104685714D02*
X202740357Y-105352380D01*
X202502261Y-104304761D02*
X202264166Y-105019047D01*
X202883214Y-105019047D01*
X200542738Y-106952380D02*
X200876071Y-107952380D01*
X201209404Y-106952380D01*
X201304642Y-108047619D02*
X202066547Y-108047619D01*
X202257023Y-107904761D02*
X202399880Y-107952380D01*
X202637976Y-107952380D01*
X202733214Y-107904761D01*
X202780833Y-107857142D01*
X202828452Y-107761904D01*
X202828452Y-107666666D01*
X202780833Y-107571428D01*
X202733214Y-107523809D01*
X202637976Y-107476190D01*
X202447500Y-107428571D01*
X202352261Y-107380952D01*
X202304642Y-107333333D01*
X202257023Y-107238095D01*
X202257023Y-107142857D01*
X202304642Y-107047619D01*
X202352261Y-107000000D01*
X202447500Y-106952380D01*
X202685595Y-106952380D01*
X202828452Y-107000000D01*
X94152380Y-135600000D02*
X93152380Y-135600000D01*
X93152380Y-134933333D02*
X93152380Y-134742857D01*
X93200000Y-134647619D01*
X93295238Y-134552380D01*
X93485714Y-134504761D01*
X93819047Y-134504761D01*
X94009523Y-134552380D01*
X94104761Y-134647619D01*
X94152380Y-134742857D01*
X94152380Y-134933333D01*
X94104761Y-135028571D01*
X94009523Y-135123809D01*
X93819047Y-135171428D01*
X93485714Y-135171428D01*
X93295238Y-135123809D01*
X93200000Y-135028571D01*
X93152380Y-134933333D01*
X94152380Y-133552380D02*
X94152380Y-134123809D01*
X94152380Y-133838095D02*
X93152380Y-133838095D01*
X93295238Y-133933333D01*
X93390476Y-134028571D01*
X93438095Y-134123809D01*
X199835595Y-134452380D02*
X199835595Y-133452380D01*
X200502261Y-133452380D02*
X200692738Y-133452380D01*
X200787976Y-133500000D01*
X200883214Y-133595238D01*
X200930833Y-133785714D01*
X200930833Y-134119047D01*
X200883214Y-134309523D01*
X200787976Y-134404761D01*
X200692738Y-134452380D01*
X200502261Y-134452380D01*
X200407023Y-134404761D01*
X200311785Y-134309523D01*
X200264166Y-134119047D01*
X200264166Y-133785714D01*
X200311785Y-133595238D01*
X200407023Y-133500000D01*
X200502261Y-133452380D01*
X201883214Y-134452380D02*
X201311785Y-134452380D01*
X201597500Y-134452380D02*
X201597500Y-133452380D01*
X201502261Y-133595238D01*
X201407023Y-133690476D01*
X201311785Y-133738095D01*
X202216547Y-133452380D02*
X202835595Y-133452380D01*
X202502261Y-133833333D01*
X202645119Y-133833333D01*
X202740357Y-133880952D01*
X202787976Y-133928571D01*
X202835595Y-134023809D01*
X202835595Y-134261904D01*
X202787976Y-134357142D01*
X202740357Y-134404761D01*
X202645119Y-134452380D01*
X202359404Y-134452380D01*
X202264166Y-134404761D01*
X202216547Y-134357142D01*
X199835595Y-129452380D02*
X199835595Y-128452380D01*
X200502261Y-128452380D02*
X200692738Y-128452380D01*
X200787976Y-128500000D01*
X200883214Y-128595238D01*
X200930833Y-128785714D01*
X200930833Y-129119047D01*
X200883214Y-129309523D01*
X200787976Y-129404761D01*
X200692738Y-129452380D01*
X200502261Y-129452380D01*
X200407023Y-129404761D01*
X200311785Y-129309523D01*
X200264166Y-129119047D01*
X200264166Y-128785714D01*
X200311785Y-128595238D01*
X200407023Y-128500000D01*
X200502261Y-128452380D01*
X201883214Y-129452380D02*
X201311785Y-129452380D01*
X201597500Y-129452380D02*
X201597500Y-128452380D01*
X201502261Y-128595238D01*
X201407023Y-128690476D01*
X201311785Y-128738095D01*
X202835595Y-129452380D02*
X202264166Y-129452380D01*
X202549880Y-129452380D02*
X202549880Y-128452380D01*
X202454642Y-128595238D01*
X202359404Y-128690476D01*
X202264166Y-128738095D01*
X168552380Y-135537976D02*
X167552380Y-135537976D01*
X167552380Y-134871309D02*
X167552380Y-134680833D01*
X167600000Y-134585595D01*
X167695238Y-134490357D01*
X167885714Y-134442738D01*
X168219047Y-134442738D01*
X168409523Y-134490357D01*
X168504761Y-134585595D01*
X168552380Y-134680833D01*
X168552380Y-134871309D01*
X168504761Y-134966547D01*
X168409523Y-135061785D01*
X168219047Y-135109404D01*
X167885714Y-135109404D01*
X167695238Y-135061785D01*
X167600000Y-134966547D01*
X167552380Y-134871309D01*
X168552380Y-133490357D02*
X168552380Y-134061785D01*
X168552380Y-133776071D02*
X167552380Y-133776071D01*
X167695238Y-133871309D01*
X167790476Y-133966547D01*
X167838095Y-134061785D01*
X167885714Y-132633214D02*
X168552380Y-132633214D01*
X167504761Y-132871309D02*
X168219047Y-133109404D01*
X168219047Y-132490357D01*
D11*
X97357142Y-106407142D02*
X96385714Y-106407142D01*
X96271428Y-106464285D01*
X96214285Y-106521428D01*
X96157142Y-106635714D01*
X96157142Y-106864285D01*
X96214285Y-106978571D01*
X96271428Y-107035714D01*
X96385714Y-107092857D01*
X97357142Y-107092857D01*
X96214285Y-107607142D02*
X96157142Y-107778571D01*
X96157142Y-108064285D01*
X96214285Y-108178571D01*
X96271428Y-108235714D01*
X96385714Y-108292857D01*
X96500000Y-108292857D01*
X96614285Y-108235714D01*
X96671428Y-108178571D01*
X96728571Y-108064285D01*
X96785714Y-107835714D01*
X96842857Y-107721428D01*
X96900000Y-107664285D01*
X97014285Y-107607142D01*
X97128571Y-107607142D01*
X97242857Y-107664285D01*
X97300000Y-107721428D01*
X97357142Y-107835714D01*
X97357142Y-108121428D01*
X97300000Y-108292857D01*
X96785714Y-109207142D02*
X96728571Y-109378571D01*
X96671428Y-109435714D01*
X96557142Y-109492857D01*
X96385714Y-109492857D01*
X96271428Y-109435714D01*
X96214285Y-109378571D01*
X96157142Y-109264285D01*
X96157142Y-108807142D01*
X97357142Y-108807142D01*
X97357142Y-109207142D01*
X97300000Y-109321428D01*
X97242857Y-109378571D01*
X97128571Y-109435714D01*
X97014285Y-109435714D01*
X96900000Y-109378571D01*
X96842857Y-109321428D01*
X96785714Y-109207142D01*
X96785714Y-108807142D01*
X96042857Y-109721428D02*
X96042857Y-110635714D01*
X97242857Y-110864285D02*
X97300000Y-110921428D01*
X97357142Y-111035714D01*
X97357142Y-111321428D01*
X97300000Y-111435714D01*
X97242857Y-111492857D01*
X97128571Y-111550000D01*
X97014285Y-111550000D01*
X96842857Y-111492857D01*
X96157142Y-110807142D01*
X96157142Y-111550000D01*
D10*
%TO.C,U7*%
X190413095Y-89852380D02*
X190413095Y-90661904D01*
X190460714Y-90757142D01*
X190508333Y-90804761D01*
X190603571Y-90852380D01*
X190794047Y-90852380D01*
X190889285Y-90804761D01*
X190936904Y-90757142D01*
X190984523Y-90661904D01*
X190984523Y-89852380D01*
X191365476Y-89852380D02*
X192032142Y-89852380D01*
X191603571Y-90852380D01*
%TO.C,SW5*%
X101704761Y-136833333D02*
X101752380Y-136690476D01*
X101752380Y-136452380D01*
X101704761Y-136357142D01*
X101657142Y-136309523D01*
X101561904Y-136261904D01*
X101466666Y-136261904D01*
X101371428Y-136309523D01*
X101323809Y-136357142D01*
X101276190Y-136452380D01*
X101228571Y-136642857D01*
X101180952Y-136738095D01*
X101133333Y-136785714D01*
X101038095Y-136833333D01*
X100942857Y-136833333D01*
X100847619Y-136785714D01*
X100800000Y-136738095D01*
X100752380Y-136642857D01*
X100752380Y-136404761D01*
X100800000Y-136261904D01*
X100752380Y-135928571D02*
X101752380Y-135690476D01*
X101038095Y-135500000D01*
X101752380Y-135309523D01*
X100752380Y-135071428D01*
X100752380Y-134214285D02*
X100752380Y-134690476D01*
X101228571Y-134738095D01*
X101180952Y-134690476D01*
X101133333Y-134595238D01*
X101133333Y-134357142D01*
X101180952Y-134261904D01*
X101228571Y-134214285D01*
X101323809Y-134166666D01*
X101561904Y-134166666D01*
X101657142Y-134214285D01*
X101704761Y-134261904D01*
X101752380Y-134357142D01*
X101752380Y-134595238D01*
X101704761Y-134690476D01*
X101657142Y-134738095D01*
%TO.C,J3*%
X89852380Y-109333333D02*
X90566666Y-109333333D01*
X90709523Y-109380952D01*
X90804761Y-109476190D01*
X90852380Y-109619047D01*
X90852380Y-109714285D01*
X89852380Y-108952380D02*
X89852380Y-108333333D01*
X90233333Y-108666666D01*
X90233333Y-108523809D01*
X90280952Y-108428571D01*
X90328571Y-108380952D01*
X90423809Y-108333333D01*
X90661904Y-108333333D01*
X90757142Y-108380952D01*
X90804761Y-108428571D01*
X90852380Y-108523809D01*
X90852380Y-108809523D01*
X90804761Y-108904761D01*
X90757142Y-108952380D01*
%TO.C,U5*%
X190413095Y-118652380D02*
X190413095Y-119461904D01*
X190460714Y-119557142D01*
X190508333Y-119604761D01*
X190603571Y-119652380D01*
X190794047Y-119652380D01*
X190889285Y-119604761D01*
X190936904Y-119557142D01*
X190984523Y-119461904D01*
X190984523Y-118652380D01*
X191936904Y-118652380D02*
X191460714Y-118652380D01*
X191413095Y-119128571D01*
X191460714Y-119080952D01*
X191555952Y-119033333D01*
X191794047Y-119033333D01*
X191889285Y-119080952D01*
X191936904Y-119128571D01*
X191984523Y-119223809D01*
X191984523Y-119461904D01*
X191936904Y-119557142D01*
X191889285Y-119604761D01*
X191794047Y-119652380D01*
X191555952Y-119652380D01*
X191460714Y-119604761D01*
X191413095Y-119557142D01*
%TO.C,SW1*%
X110566666Y-140604761D02*
X110709523Y-140652380D01*
X110947619Y-140652380D01*
X111042857Y-140604761D01*
X111090476Y-140557142D01*
X111138095Y-140461904D01*
X111138095Y-140366666D01*
X111090476Y-140271428D01*
X111042857Y-140223809D01*
X110947619Y-140176190D01*
X110757142Y-140128571D01*
X110661904Y-140080952D01*
X110614285Y-140033333D01*
X110566666Y-139938095D01*
X110566666Y-139842857D01*
X110614285Y-139747619D01*
X110661904Y-139700000D01*
X110757142Y-139652380D01*
X110995238Y-139652380D01*
X111138095Y-139700000D01*
X111471428Y-139652380D02*
X111709523Y-140652380D01*
X111900000Y-139938095D01*
X112090476Y-140652380D01*
X112328571Y-139652380D01*
X113233333Y-140652380D02*
X112661904Y-140652380D01*
X112947619Y-140652380D02*
X112947619Y-139652380D01*
X112852380Y-139795238D01*
X112757142Y-139890476D01*
X112661904Y-139938095D01*
%TO.C,SW4*%
X123766666Y-140604761D02*
X123909523Y-140652380D01*
X124147619Y-140652380D01*
X124242857Y-140604761D01*
X124290476Y-140557142D01*
X124338095Y-140461904D01*
X124338095Y-140366666D01*
X124290476Y-140271428D01*
X124242857Y-140223809D01*
X124147619Y-140176190D01*
X123957142Y-140128571D01*
X123861904Y-140080952D01*
X123814285Y-140033333D01*
X123766666Y-139938095D01*
X123766666Y-139842857D01*
X123814285Y-139747619D01*
X123861904Y-139700000D01*
X123957142Y-139652380D01*
X124195238Y-139652380D01*
X124338095Y-139700000D01*
X124671428Y-139652380D02*
X124909523Y-140652380D01*
X125100000Y-139938095D01*
X125290476Y-140652380D01*
X125528571Y-139652380D01*
X126338095Y-139985714D02*
X126338095Y-140652380D01*
X126100000Y-139604761D02*
X125861904Y-140319047D01*
X126480952Y-140319047D01*
%TO.C,SW2*%
X114966666Y-140604761D02*
X115109523Y-140652380D01*
X115347619Y-140652380D01*
X115442857Y-140604761D01*
X115490476Y-140557142D01*
X115538095Y-140461904D01*
X115538095Y-140366666D01*
X115490476Y-140271428D01*
X115442857Y-140223809D01*
X115347619Y-140176190D01*
X115157142Y-140128571D01*
X115061904Y-140080952D01*
X115014285Y-140033333D01*
X114966666Y-139938095D01*
X114966666Y-139842857D01*
X115014285Y-139747619D01*
X115061904Y-139700000D01*
X115157142Y-139652380D01*
X115395238Y-139652380D01*
X115538095Y-139700000D01*
X115871428Y-139652380D02*
X116109523Y-140652380D01*
X116300000Y-139938095D01*
X116490476Y-140652380D01*
X116728571Y-139652380D01*
X117061904Y-139747619D02*
X117109523Y-139700000D01*
X117204761Y-139652380D01*
X117442857Y-139652380D01*
X117538095Y-139700000D01*
X117585714Y-139747619D01*
X117633333Y-139842857D01*
X117633333Y-139938095D01*
X117585714Y-140080952D01*
X117014285Y-140652380D01*
X117633333Y-140652380D01*
%TO.C,SW8*%
X202504761Y-68623333D02*
X202552380Y-68480476D01*
X202552380Y-68242380D01*
X202504761Y-68147142D01*
X202457142Y-68099523D01*
X202361904Y-68051904D01*
X202266666Y-68051904D01*
X202171428Y-68099523D01*
X202123809Y-68147142D01*
X202076190Y-68242380D01*
X202028571Y-68432857D01*
X201980952Y-68528095D01*
X201933333Y-68575714D01*
X201838095Y-68623333D01*
X201742857Y-68623333D01*
X201647619Y-68575714D01*
X201600000Y-68528095D01*
X201552380Y-68432857D01*
X201552380Y-68194761D01*
X201600000Y-68051904D01*
X201552380Y-67718571D02*
X202552380Y-67480476D01*
X201838095Y-67290000D01*
X202552380Y-67099523D01*
X201552380Y-66861428D01*
X201980952Y-66337619D02*
X201933333Y-66432857D01*
X201885714Y-66480476D01*
X201790476Y-66528095D01*
X201742857Y-66528095D01*
X201647619Y-66480476D01*
X201600000Y-66432857D01*
X201552380Y-66337619D01*
X201552380Y-66147142D01*
X201600000Y-66051904D01*
X201647619Y-66004285D01*
X201742857Y-65956666D01*
X201790476Y-65956666D01*
X201885714Y-66004285D01*
X201933333Y-66051904D01*
X201980952Y-66147142D01*
X201980952Y-66337619D01*
X202028571Y-66432857D01*
X202076190Y-66480476D01*
X202171428Y-66528095D01*
X202361904Y-66528095D01*
X202457142Y-66480476D01*
X202504761Y-66432857D01*
X202552380Y-66337619D01*
X202552380Y-66147142D01*
X202504761Y-66051904D01*
X202457142Y-66004285D01*
X202361904Y-65956666D01*
X202171428Y-65956666D01*
X202076190Y-66004285D01*
X202028571Y-66051904D01*
X201980952Y-66147142D01*
%TO.C,C2*%
X138433333Y-83457142D02*
X138385714Y-83504761D01*
X138242857Y-83552380D01*
X138147619Y-83552380D01*
X138004761Y-83504761D01*
X137909523Y-83409523D01*
X137861904Y-83314285D01*
X137814285Y-83123809D01*
X137814285Y-82980952D01*
X137861904Y-82790476D01*
X137909523Y-82695238D01*
X138004761Y-82600000D01*
X138147619Y-82552380D01*
X138242857Y-82552380D01*
X138385714Y-82600000D01*
X138433333Y-82647619D01*
X138814285Y-82647619D02*
X138861904Y-82600000D01*
X138957142Y-82552380D01*
X139195238Y-82552380D01*
X139290476Y-82600000D01*
X139338095Y-82647619D01*
X139385714Y-82742857D01*
X139385714Y-82838095D01*
X139338095Y-82980952D01*
X138766666Y-83552380D01*
X139385714Y-83552380D01*
%TO.C,C3*%
X144633333Y-114457142D02*
X144585714Y-114504761D01*
X144442857Y-114552380D01*
X144347619Y-114552380D01*
X144204761Y-114504761D01*
X144109523Y-114409523D01*
X144061904Y-114314285D01*
X144014285Y-114123809D01*
X144014285Y-113980952D01*
X144061904Y-113790476D01*
X144109523Y-113695238D01*
X144204761Y-113600000D01*
X144347619Y-113552380D01*
X144442857Y-113552380D01*
X144585714Y-113600000D01*
X144633333Y-113647619D01*
X144966666Y-113552380D02*
X145585714Y-113552380D01*
X145252380Y-113933333D01*
X145395238Y-113933333D01*
X145490476Y-113980952D01*
X145538095Y-114028571D01*
X145585714Y-114123809D01*
X145585714Y-114361904D01*
X145538095Y-114457142D01*
X145490476Y-114504761D01*
X145395238Y-114552380D01*
X145109523Y-114552380D01*
X145014285Y-114504761D01*
X144966666Y-114457142D01*
%TO.C,J8*%
X94144880Y-92533333D02*
X94859166Y-92533333D01*
X95002023Y-92580952D01*
X95097261Y-92676190D01*
X95144880Y-92819047D01*
X95144880Y-92914285D01*
X94573452Y-91914285D02*
X94525833Y-92009523D01*
X94478214Y-92057142D01*
X94382976Y-92104761D01*
X94335357Y-92104761D01*
X94240119Y-92057142D01*
X94192500Y-92009523D01*
X94144880Y-91914285D01*
X94144880Y-91723809D01*
X94192500Y-91628571D01*
X94240119Y-91580952D01*
X94335357Y-91533333D01*
X94382976Y-91533333D01*
X94478214Y-91580952D01*
X94525833Y-91628571D01*
X94573452Y-91723809D01*
X94573452Y-91914285D01*
X94621071Y-92009523D01*
X94668690Y-92057142D01*
X94763928Y-92104761D01*
X94954404Y-92104761D01*
X95049642Y-92057142D01*
X95097261Y-92009523D01*
X95144880Y-91914285D01*
X95144880Y-91723809D01*
X95097261Y-91628571D01*
X95049642Y-91580952D01*
X94954404Y-91533333D01*
X94763928Y-91533333D01*
X94668690Y-91580952D01*
X94621071Y-91628571D01*
X94573452Y-91723809D01*
%TO.C,C4*%
X136933333Y-114457142D02*
X136885714Y-114504761D01*
X136742857Y-114552380D01*
X136647619Y-114552380D01*
X136504761Y-114504761D01*
X136409523Y-114409523D01*
X136361904Y-114314285D01*
X136314285Y-114123809D01*
X136314285Y-113980952D01*
X136361904Y-113790476D01*
X136409523Y-113695238D01*
X136504761Y-113600000D01*
X136647619Y-113552380D01*
X136742857Y-113552380D01*
X136885714Y-113600000D01*
X136933333Y-113647619D01*
X137790476Y-113885714D02*
X137790476Y-114552380D01*
X137552380Y-113504761D02*
X137314285Y-114219047D01*
X137933333Y-114219047D01*
%TO.C,U8*%
X107538095Y-67752380D02*
X107538095Y-68561904D01*
X107585714Y-68657142D01*
X107633333Y-68704761D01*
X107728571Y-68752380D01*
X107919047Y-68752380D01*
X108014285Y-68704761D01*
X108061904Y-68657142D01*
X108109523Y-68561904D01*
X108109523Y-67752380D01*
X108728571Y-68180952D02*
X108633333Y-68133333D01*
X108585714Y-68085714D01*
X108538095Y-67990476D01*
X108538095Y-67942857D01*
X108585714Y-67847619D01*
X108633333Y-67800000D01*
X108728571Y-67752380D01*
X108919047Y-67752380D01*
X109014285Y-67800000D01*
X109061904Y-67847619D01*
X109109523Y-67942857D01*
X109109523Y-67990476D01*
X109061904Y-68085714D01*
X109014285Y-68133333D01*
X108919047Y-68180952D01*
X108728571Y-68180952D01*
X108633333Y-68228571D01*
X108585714Y-68276190D01*
X108538095Y-68371428D01*
X108538095Y-68561904D01*
X108585714Y-68657142D01*
X108633333Y-68704761D01*
X108728571Y-68752380D01*
X108919047Y-68752380D01*
X109014285Y-68704761D01*
X109061904Y-68657142D01*
X109109523Y-68561904D01*
X109109523Y-68371428D01*
X109061904Y-68276190D01*
X109014285Y-68228571D01*
X108919047Y-68180952D01*
%TO.C,J6*%
X89952380Y-123033333D02*
X90666666Y-123033333D01*
X90809523Y-123080952D01*
X90904761Y-123176190D01*
X90952380Y-123319047D01*
X90952380Y-123414285D01*
X89952380Y-122128571D02*
X89952380Y-122319047D01*
X90000000Y-122414285D01*
X90047619Y-122461904D01*
X90190476Y-122557142D01*
X90380952Y-122604761D01*
X90761904Y-122604761D01*
X90857142Y-122557142D01*
X90904761Y-122509523D01*
X90952380Y-122414285D01*
X90952380Y-122223809D01*
X90904761Y-122128571D01*
X90857142Y-122080952D01*
X90761904Y-122033333D01*
X90523809Y-122033333D01*
X90428571Y-122080952D01*
X90380952Y-122128571D01*
X90333333Y-122223809D01*
X90333333Y-122414285D01*
X90380952Y-122509523D01*
X90428571Y-122557142D01*
X90523809Y-122604761D01*
%TO.C,U4*%
X170038095Y-80702380D02*
X170038095Y-81511904D01*
X170085714Y-81607142D01*
X170133333Y-81654761D01*
X170228571Y-81702380D01*
X170419047Y-81702380D01*
X170514285Y-81654761D01*
X170561904Y-81607142D01*
X170609523Y-81511904D01*
X170609523Y-80702380D01*
X171514285Y-81035714D02*
X171514285Y-81702380D01*
X171276190Y-80654761D02*
X171038095Y-81369047D01*
X171657142Y-81369047D01*
%TO.C,U2*%
X145338095Y-99452380D02*
X145338095Y-100261904D01*
X145385714Y-100357142D01*
X145433333Y-100404761D01*
X145528571Y-100452380D01*
X145719047Y-100452380D01*
X145814285Y-100404761D01*
X145861904Y-100357142D01*
X145909523Y-100261904D01*
X145909523Y-99452380D01*
X146338095Y-99547619D02*
X146385714Y-99500000D01*
X146480952Y-99452380D01*
X146719047Y-99452380D01*
X146814285Y-99500000D01*
X146861904Y-99547619D01*
X146909523Y-99642857D01*
X146909523Y-99738095D01*
X146861904Y-99880952D01*
X146290476Y-100452380D01*
X146909523Y-100452380D01*
%TO.C,U1*%
X122613095Y-98252380D02*
X122613095Y-99061904D01*
X122660714Y-99157142D01*
X122708333Y-99204761D01*
X122803571Y-99252380D01*
X122994047Y-99252380D01*
X123089285Y-99204761D01*
X123136904Y-99157142D01*
X123184523Y-99061904D01*
X123184523Y-98252380D01*
X124184523Y-99252380D02*
X123613095Y-99252380D01*
X123898809Y-99252380D02*
X123898809Y-98252380D01*
X123803571Y-98395238D01*
X123708333Y-98490476D01*
X123613095Y-98538095D01*
%TO.C,SW6*%
X106304761Y-136833333D02*
X106352380Y-136690476D01*
X106352380Y-136452380D01*
X106304761Y-136357142D01*
X106257142Y-136309523D01*
X106161904Y-136261904D01*
X106066666Y-136261904D01*
X105971428Y-136309523D01*
X105923809Y-136357142D01*
X105876190Y-136452380D01*
X105828571Y-136642857D01*
X105780952Y-136738095D01*
X105733333Y-136785714D01*
X105638095Y-136833333D01*
X105542857Y-136833333D01*
X105447619Y-136785714D01*
X105400000Y-136738095D01*
X105352380Y-136642857D01*
X105352380Y-136404761D01*
X105400000Y-136261904D01*
X105352380Y-135928571D02*
X106352380Y-135690476D01*
X105638095Y-135500000D01*
X106352380Y-135309523D01*
X105352380Y-135071428D01*
X105352380Y-134261904D02*
X105352380Y-134452380D01*
X105400000Y-134547619D01*
X105447619Y-134595238D01*
X105590476Y-134690476D01*
X105780952Y-134738095D01*
X106161904Y-134738095D01*
X106257142Y-134690476D01*
X106304761Y-134642857D01*
X106352380Y-134547619D01*
X106352380Y-134357142D01*
X106304761Y-134261904D01*
X106257142Y-134214285D01*
X106161904Y-134166666D01*
X105923809Y-134166666D01*
X105828571Y-134214285D01*
X105780952Y-134261904D01*
X105733333Y-134357142D01*
X105733333Y-134547619D01*
X105780952Y-134642857D01*
X105828571Y-134690476D01*
X105923809Y-134738095D01*
%TO.C,J1*%
X95166666Y-65552380D02*
X95166666Y-66266666D01*
X95119047Y-66409523D01*
X95023809Y-66504761D01*
X94880952Y-66552380D01*
X94785714Y-66552380D01*
X96166666Y-66552380D02*
X95595238Y-66552380D01*
X95880952Y-66552380D02*
X95880952Y-65552380D01*
X95785714Y-65695238D01*
X95690476Y-65790476D01*
X95595238Y-65838095D01*
%TO.C,SW3*%
X119366666Y-140604761D02*
X119509523Y-140652380D01*
X119747619Y-140652380D01*
X119842857Y-140604761D01*
X119890476Y-140557142D01*
X119938095Y-140461904D01*
X119938095Y-140366666D01*
X119890476Y-140271428D01*
X119842857Y-140223809D01*
X119747619Y-140176190D01*
X119557142Y-140128571D01*
X119461904Y-140080952D01*
X119414285Y-140033333D01*
X119366666Y-139938095D01*
X119366666Y-139842857D01*
X119414285Y-139747619D01*
X119461904Y-139700000D01*
X119557142Y-139652380D01*
X119795238Y-139652380D01*
X119938095Y-139700000D01*
X120271428Y-139652380D02*
X120509523Y-140652380D01*
X120700000Y-139938095D01*
X120890476Y-140652380D01*
X121128571Y-139652380D01*
X121414285Y-139652380D02*
X122033333Y-139652380D01*
X121700000Y-140033333D01*
X121842857Y-140033333D01*
X121938095Y-140080952D01*
X121985714Y-140128571D01*
X122033333Y-140223809D01*
X122033333Y-140461904D01*
X121985714Y-140557142D01*
X121938095Y-140604761D01*
X121842857Y-140652380D01*
X121557142Y-140652380D01*
X121461904Y-140604761D01*
X121414285Y-140557142D01*
%TO.C,SW7*%
X202304761Y-79623333D02*
X202352380Y-79480476D01*
X202352380Y-79242380D01*
X202304761Y-79147142D01*
X202257142Y-79099523D01*
X202161904Y-79051904D01*
X202066666Y-79051904D01*
X201971428Y-79099523D01*
X201923809Y-79147142D01*
X201876190Y-79242380D01*
X201828571Y-79432857D01*
X201780952Y-79528095D01*
X201733333Y-79575714D01*
X201638095Y-79623333D01*
X201542857Y-79623333D01*
X201447619Y-79575714D01*
X201400000Y-79528095D01*
X201352380Y-79432857D01*
X201352380Y-79194761D01*
X201400000Y-79051904D01*
X201352380Y-78718571D02*
X202352380Y-78480476D01*
X201638095Y-78290000D01*
X202352380Y-78099523D01*
X201352380Y-77861428D01*
X201352380Y-77575714D02*
X201352380Y-76909047D01*
X202352380Y-77337619D01*
D12*
%TO.C,R18*%
X126510000Y-112117064D02*
X126510000Y-111662936D01*
X125040000Y-112117064D02*
X125040000Y-111662936D01*
%TO.C,D5*%
X101335000Y-104740000D02*
X98475000Y-104740000D01*
X101335000Y-106660000D02*
X101335000Y-104740000D01*
X98475000Y-106660000D02*
X101335000Y-106660000D01*
%TO.C,U7*%
X191175000Y-93775000D02*
X193375000Y-93775000D01*
X191175000Y-87005000D02*
X193375000Y-87005000D01*
X191175000Y-93775000D02*
X188975000Y-93775000D01*
X191175000Y-87005000D02*
X187575000Y-87005000D01*
%TO.C,R20*%
X124340000Y-127162936D02*
X124340000Y-127617064D01*
X125810000Y-127162936D02*
X125810000Y-127617064D01*
%TO.C,J2*%
X205730000Y-114910000D02*
X205730000Y-116240000D01*
X205730000Y-117510000D02*
X205730000Y-140430000D01*
X203070000Y-140430000D02*
X205730000Y-140430000D01*
X204400000Y-114910000D02*
X205730000Y-114910000D01*
X203070000Y-117510000D02*
X205730000Y-117510000D01*
X203070000Y-117510000D02*
X203070000Y-140430000D01*
%TO.C,D12*%
X107315000Y-102290000D02*
X107315000Y-105150000D01*
X109235000Y-105150000D02*
X109235000Y-102290000D01*
X107315000Y-105150000D02*
X109235000Y-105150000D01*
%TO.C,R5*%
X131740000Y-92962936D02*
X131740000Y-93417064D01*
X133210000Y-92962936D02*
X133210000Y-93417064D01*
%TO.C,SW5*%
X99325000Y-138650000D02*
X99325000Y-132530000D01*
X103025000Y-138650000D02*
X99325000Y-138650000D01*
X103025000Y-132530000D02*
X103025000Y-138650000D01*
X99325000Y-132530000D02*
X103025000Y-132530000D01*
%TO.C,J3*%
X92125000Y-104410000D02*
X90205000Y-104410000D01*
X86490000Y-113570000D02*
X86490000Y-104410000D01*
X88195000Y-113570000D02*
X86490000Y-113570000D01*
X90205000Y-113570000D02*
X92125000Y-113570000D01*
X86490000Y-104410000D02*
X88195000Y-104410000D01*
%TO.C,R16*%
X113610000Y-103062936D02*
X113610000Y-103517064D01*
X112140000Y-103062936D02*
X112140000Y-103517064D01*
%TO.C,C9*%
X193783767Y-77200000D02*
X193491233Y-77200000D01*
X193783767Y-76180000D02*
X193491233Y-76180000D01*
%TO.C,U5*%
X191175000Y-115805000D02*
X193375000Y-115805000D01*
X191175000Y-115805000D02*
X187575000Y-115805000D01*
X191175000Y-122575000D02*
X188975000Y-122575000D01*
X191175000Y-122575000D02*
X193375000Y-122575000D01*
%TO.C,R10*%
X99095276Y-122467500D02*
X99604724Y-122467500D01*
X99095276Y-123512500D02*
X99604724Y-123512500D01*
%TO.C,D6*%
X108415000Y-117930000D02*
X108415000Y-120790000D01*
X110335000Y-120790000D02*
X110335000Y-117930000D01*
X110335000Y-117930000D02*
X108415000Y-117930000D01*
%TO.C,J4*%
X203070000Y-111430000D02*
X205730000Y-111430000D01*
X205730000Y-88510000D02*
X205730000Y-111430000D01*
X204400000Y-85910000D02*
X205730000Y-85910000D01*
X205730000Y-85910000D02*
X205730000Y-87240000D01*
X203070000Y-88510000D02*
X203070000Y-111430000D01*
X203070000Y-88510000D02*
X205730000Y-88510000D01*
%TO.C,D3*%
X110010000Y-94610000D02*
X110010000Y-92690000D01*
X107150000Y-94610000D02*
X110010000Y-94610000D01*
X110010000Y-92690000D02*
X107150000Y-92690000D01*
%TO.C,SW1*%
X113925000Y-129790000D02*
X109825000Y-129790000D01*
X109825000Y-129790000D02*
X109825000Y-141390000D01*
X109825000Y-141390000D02*
X113925000Y-141390000D01*
X113925000Y-141390000D02*
X113925000Y-129790000D01*
%TO.C,R13*%
X115540000Y-127162936D02*
X115540000Y-127617064D01*
X117010000Y-127162936D02*
X117010000Y-127617064D01*
%TO.C,R7*%
X99120276Y-120867500D02*
X99629724Y-120867500D01*
X99120276Y-121912500D02*
X99629724Y-121912500D01*
%TO.C,SW4*%
X127125000Y-129790000D02*
X123025000Y-129790000D01*
X123025000Y-129790000D02*
X123025000Y-141390000D01*
X123025000Y-141390000D02*
X127125000Y-141390000D01*
X127125000Y-141390000D02*
X127125000Y-129790000D01*
%TO.C,SW2*%
X118325000Y-129790000D02*
X114225000Y-129790000D01*
X114225000Y-129790000D02*
X114225000Y-141390000D01*
X114225000Y-141390000D02*
X118325000Y-141390000D01*
X118325000Y-141390000D02*
X118325000Y-129790000D01*
%TO.C,J10*%
X199130000Y-128930000D02*
X199130000Y-123790000D01*
X199130000Y-123790000D02*
X196470000Y-123790000D01*
X199130000Y-128930000D02*
X196470000Y-128930000D01*
X199130000Y-131530000D02*
X197800000Y-131530000D01*
X199130000Y-130200000D02*
X199130000Y-131530000D01*
X196470000Y-128930000D02*
X196470000Y-123790000D01*
%TO.C,SW8*%
X200675000Y-64140000D02*
X203275000Y-64140000D01*
X198775000Y-70440000D02*
X198525000Y-70440000D01*
X205175000Y-64140000D02*
X205425000Y-64140000D01*
X198525000Y-64140000D02*
X198775000Y-64140000D01*
X198525000Y-70440000D02*
X198525000Y-64140000D01*
X205425000Y-70440000D02*
X205175000Y-70440000D01*
X205425000Y-64140000D02*
X205425000Y-70440000D01*
X203275000Y-70440000D02*
X200675000Y-70440000D01*
%TO.C,C2*%
X136229437Y-79680000D02*
X135165000Y-80744437D01*
X136229437Y-79680000D02*
X137515000Y-79680000D01*
X140422500Y-78652500D02*
X140422500Y-79440000D01*
X140920563Y-79680000D02*
X139635000Y-79680000D01*
X141985000Y-80744437D02*
X141985000Y-86500000D01*
X140920563Y-79680000D02*
X141985000Y-80744437D01*
X141985000Y-86500000D02*
X139635000Y-86500000D01*
X135165000Y-86500000D02*
X137515000Y-86500000D01*
X135165000Y-80744437D02*
X135165000Y-86500000D01*
X140816250Y-79046250D02*
X140028750Y-79046250D01*
%TO.C,R14*%
X122202064Y-114355000D02*
X121747936Y-114355000D01*
X122202064Y-115825000D02*
X121747936Y-115825000D01*
%TO.C,C8*%
X191865000Y-72006233D02*
X191865000Y-72298767D01*
X192885000Y-72006233D02*
X192885000Y-72298767D01*
%TO.C,Q2*%
X120725000Y-113390000D02*
X120725000Y-112390000D01*
X120725000Y-111390000D02*
X120725000Y-110340000D01*
X120725000Y-110340000D02*
X122575000Y-110340000D01*
X120745000Y-113400000D02*
X123175000Y-113400000D01*
%TO.C,D7*%
X92690000Y-136650000D02*
X92690000Y-139510000D01*
X92690000Y-139510000D02*
X94610000Y-139510000D01*
X94610000Y-139510000D02*
X94610000Y-136650000D01*
%TO.C,U3*%
X122525000Y-81820000D02*
X122525000Y-80320000D01*
X122525000Y-80320000D02*
X122795000Y-80320000D01*
X122795000Y-80320000D02*
X122795000Y-79220000D01*
X129425000Y-80320000D02*
X129155000Y-80320000D01*
X129155000Y-80320000D02*
X129155000Y-77490000D01*
X129425000Y-81820000D02*
X129425000Y-80320000D01*
%TO.C,D1*%
X100975000Y-82440000D02*
X100975000Y-79140000D01*
X100975000Y-82440000D02*
X95575000Y-82440000D01*
X100975000Y-79140000D02*
X95575000Y-79140000D01*
%TO.C,C3*%
X147145563Y-110690000D02*
X148210000Y-111754437D01*
X142454437Y-110690000D02*
X141390000Y-111754437D01*
X142454437Y-110690000D02*
X143740000Y-110690000D01*
X148210000Y-117510000D02*
X145860000Y-117510000D01*
X141390000Y-117510000D02*
X143740000Y-117510000D01*
X146647500Y-109662500D02*
X146647500Y-110450000D01*
X141390000Y-111754437D02*
X141390000Y-117510000D01*
X148210000Y-111754437D02*
X148210000Y-117510000D01*
X147145563Y-110690000D02*
X145860000Y-110690000D01*
X147041250Y-110056250D02*
X146253750Y-110056250D01*
%TO.C,R12*%
X112610000Y-127162936D02*
X112610000Y-127617064D01*
X111140000Y-127162936D02*
X111140000Y-127617064D01*
%TO.C,C7*%
X195085000Y-72006233D02*
X195085000Y-72298767D01*
X194065000Y-72006233D02*
X194065000Y-72298767D01*
%TO.C,J11*%
X147645000Y-140995000D02*
X147645000Y-138335000D01*
X129745000Y-139665000D02*
X129745000Y-138335000D01*
X129745000Y-138335000D02*
X131075000Y-138335000D01*
X132345000Y-140995000D02*
X147645000Y-140995000D01*
X132345000Y-138335000D02*
X147645000Y-138335000D01*
X132345000Y-140995000D02*
X132345000Y-138335000D01*
%TO.C,J8*%
X98792500Y-98550000D02*
X103052500Y-98550000D01*
X103052500Y-86230000D02*
X98792500Y-86230000D01*
X86332500Y-98550000D02*
X86332500Y-86230000D01*
X103772500Y-94140000D02*
X103772500Y-93140000D01*
X103272500Y-93640000D02*
X103772500Y-94140000D01*
X94692500Y-98550000D02*
X86332500Y-98550000D01*
X103052500Y-98550000D02*
X103052500Y-86230000D01*
X103772500Y-93140000D02*
X103272500Y-93640000D01*
X86332500Y-86230000D02*
X94692500Y-86230000D01*
%TO.C,C4*%
X139445563Y-110690000D02*
X140510000Y-111754437D01*
X140510000Y-111754437D02*
X140510000Y-117510000D01*
X139341250Y-110056250D02*
X138553750Y-110056250D01*
X139445563Y-110690000D02*
X138160000Y-110690000D01*
X138947500Y-109662500D02*
X138947500Y-110450000D01*
X134754437Y-110690000D02*
X136040000Y-110690000D01*
X134754437Y-110690000D02*
X133690000Y-111754437D01*
X140510000Y-117510000D02*
X138160000Y-117510000D01*
X133690000Y-117510000D02*
X136040000Y-117510000D01*
X133690000Y-111754437D02*
X133690000Y-117510000D01*
%TO.C,U8*%
X115175000Y-64015000D02*
X105925000Y-64015000D01*
X105925000Y-64015000D02*
X105925000Y-78165000D01*
X105925000Y-78165000D02*
X115175000Y-78165000D01*
X115175000Y-78165000D02*
X115175000Y-64015000D01*
%TO.C,R6*%
X129065000Y-92972936D02*
X129065000Y-93427064D01*
X130535000Y-92972936D02*
X130535000Y-93427064D01*
%TO.C,J6*%
X90220000Y-127270000D02*
X92140000Y-127270000D01*
X88210000Y-127270000D02*
X86505000Y-127270000D01*
X86505000Y-127270000D02*
X86505000Y-118110000D01*
X86505000Y-118110000D02*
X88210000Y-118110000D01*
X92140000Y-118110000D02*
X90220000Y-118110000D01*
%TO.C,R3*%
X99020276Y-107177500D02*
X99529724Y-107177500D01*
X99020276Y-108222500D02*
X99529724Y-108222500D01*
%TO.C,R11*%
X112310000Y-120017064D02*
X112310000Y-119562936D01*
X110840000Y-120017064D02*
X110840000Y-119562936D01*
%TO.C,R8*%
X99120276Y-126712500D02*
X99629724Y-126712500D01*
X99120276Y-125667500D02*
X99629724Y-125667500D01*
%TO.C,D4*%
X101410000Y-117930000D02*
X98550000Y-117930000D01*
X101410000Y-119850000D02*
X101410000Y-117930000D01*
X98550000Y-119850000D02*
X101410000Y-119850000D01*
%TO.C,U4*%
X179995000Y-92940000D02*
X178335000Y-92940000D01*
X161750000Y-61740000D02*
X180005000Y-61740000D01*
X180005000Y-68160000D02*
X180005000Y-61740000D01*
X161755000Y-92630000D02*
X161755000Y-92990000D01*
X161765000Y-68820000D02*
X161375000Y-68820000D01*
X161755000Y-92990000D02*
X163415000Y-92990000D01*
X161765000Y-68820000D02*
X161750000Y-61740000D01*
X179995000Y-92680000D02*
X179995000Y-92940000D01*
%TO.C,U2*%
X149510000Y-95900000D02*
X149510000Y-101910000D01*
X149510000Y-101910000D02*
X148250000Y-101910000D01*
X142690000Y-101910000D02*
X143950000Y-101910000D01*
X142690000Y-98150000D02*
X142690000Y-101910000D01*
%TO.C,Q1*%
X115675000Y-97450000D02*
X115025000Y-97450000D01*
X115675000Y-97450000D02*
X117350000Y-97450000D01*
X115675000Y-94330000D02*
X116325000Y-94330000D01*
X115675000Y-94330000D02*
X115025000Y-94330000D01*
%TO.C,R19*%
X119940000Y-127162936D02*
X119940000Y-127617064D01*
X121410000Y-127162936D02*
X121410000Y-127617064D01*
%TO.C,U6*%
X110565000Y-108880000D02*
X111040000Y-108880000D01*
X110565000Y-111625000D02*
X110565000Y-112100000D01*
X110565000Y-112100000D02*
X111040000Y-112100000D01*
X113785000Y-109355000D02*
X113785000Y-108880000D01*
X113785000Y-111625000D02*
X113785000Y-112100000D01*
X113785000Y-112100000D02*
X113310000Y-112100000D01*
X110565000Y-109355000D02*
X110565000Y-108880000D01*
%TO.C,U1*%
X123375000Y-101350000D02*
X121425000Y-101350000D01*
X123375000Y-101350000D02*
X125325000Y-101350000D01*
X123375000Y-96230000D02*
X119925000Y-96230000D01*
X123375000Y-96230000D02*
X125325000Y-96230000D01*
%TO.C,SW6*%
X107725000Y-138650000D02*
X104025000Y-138650000D01*
X104025000Y-138650000D02*
X104025000Y-132530000D01*
X107725000Y-132530000D02*
X107725000Y-138650000D01*
X104025000Y-132530000D02*
X107725000Y-132530000D01*
%TO.C,J1*%
X90982500Y-70640000D02*
X90982500Y-61840000D01*
X90982500Y-61840000D02*
X100182500Y-61840000D01*
X100182500Y-61840000D02*
X100182500Y-76540000D01*
X93682500Y-76540000D02*
X90982500Y-76540000D01*
X99332500Y-76740000D02*
X100382500Y-76740000D01*
X100382500Y-75690000D02*
X100382500Y-76740000D01*
X90982500Y-76540000D02*
X90982500Y-74640000D01*
X100182500Y-76540000D02*
X97582500Y-76540000D01*
%TO.C,Q3*%
X120725000Y-119790000D02*
X120725000Y-118790000D01*
X120725000Y-116740000D02*
X122575000Y-116740000D01*
X120745000Y-119800000D02*
X123175000Y-119800000D01*
X120725000Y-117790000D02*
X120725000Y-116740000D01*
%TO.C,SW3*%
X122725000Y-129790000D02*
X118625000Y-129790000D01*
X118625000Y-129790000D02*
X118625000Y-141390000D01*
X118625000Y-141390000D02*
X122725000Y-141390000D01*
X122725000Y-141390000D02*
X122725000Y-129790000D01*
%TO.C,J14*%
X143705000Y-67470000D02*
X142375000Y-67470000D01*
X143705000Y-66140000D02*
X143705000Y-67470000D01*
X141105000Y-67470000D02*
X120725000Y-67470000D01*
X143705000Y-62270000D02*
X120725000Y-62270000D01*
X143705000Y-62270000D02*
X143705000Y-64870000D01*
X120725000Y-62270000D02*
X120725000Y-67470000D01*
X141105000Y-64870000D02*
X141105000Y-67470000D01*
X143705000Y-64870000D02*
X141105000Y-64870000D01*
%TO.C,J5*%
X148945000Y-140970000D02*
X199865000Y-140970000D01*
X199865000Y-140970000D02*
X199865000Y-135770000D01*
X148945000Y-137100000D02*
X148945000Y-135770000D01*
X151545000Y-135770000D02*
X199865000Y-135770000D01*
X148945000Y-135770000D02*
X150275000Y-135770000D01*
X151545000Y-138370000D02*
X151545000Y-135770000D01*
X148945000Y-140970000D02*
X148945000Y-138370000D01*
X148945000Y-138370000D02*
X151545000Y-138370000D01*
%TO.C,R15*%
X121747936Y-109325000D02*
X122202064Y-109325000D01*
X121747936Y-107855000D02*
X122202064Y-107855000D01*
%TO.C,R9*%
X99107776Y-124067500D02*
X99617224Y-124067500D01*
X99107776Y-125112500D02*
X99617224Y-125112500D01*
%TO.C,R17*%
X105340000Y-103062936D02*
X105340000Y-103517064D01*
X106810000Y-103062936D02*
X106810000Y-103517064D01*
%TO.C,R4*%
X99020276Y-110177500D02*
X99529724Y-110177500D01*
X99020276Y-111222500D02*
X99529724Y-111222500D01*
%TO.C,J13*%
X199130000Y-103420000D02*
X196470000Y-103420000D01*
X199130000Y-103420000D02*
X199130000Y-98280000D01*
X199130000Y-104690000D02*
X199130000Y-106020000D01*
X199130000Y-106020000D02*
X197800000Y-106020000D01*
X196470000Y-103420000D02*
X196470000Y-98280000D01*
X199130000Y-98280000D02*
X196470000Y-98280000D01*
%TO.C,D8*%
X95640000Y-136650000D02*
X95640000Y-139510000D01*
X95640000Y-139510000D02*
X97560000Y-139510000D01*
X97560000Y-139510000D02*
X97560000Y-136650000D01*
%TO.C,SW7*%
X203275000Y-81440000D02*
X200675000Y-81440000D01*
X205425000Y-81440000D02*
X205175000Y-81440000D01*
X205425000Y-75140000D02*
X205425000Y-81440000D01*
X198775000Y-81440000D02*
X198525000Y-81440000D01*
X198525000Y-75140000D02*
X198775000Y-75140000D01*
X205175000Y-75140000D02*
X205425000Y-75140000D01*
X198525000Y-81440000D02*
X198525000Y-75140000D01*
X200675000Y-75140000D02*
X203275000Y-75140000D01*
%TO.C,D11*%
X111635000Y-105150000D02*
X111635000Y-102290000D01*
X109715000Y-102290000D02*
X109715000Y-105150000D01*
X109715000Y-105150000D02*
X111635000Y-105150000D01*
%TD*%
M02*
