%TF.GenerationSoftware,KiCad,Pcbnew,(6.0.5)*%
%TF.CreationDate,2024-01-23T17:13:34+09:00*%
%TF.ProjectId,ESP32_S2DevelopBoard,45535033-325f-4533-9244-6576656c6f70,rev?*%
%TF.SameCoordinates,Original*%
%TF.FileFunction,Soldermask,Bot*%
%TF.FilePolarity,Negative*%
%FSLAX46Y46*%
G04 Gerber Fmt 4.6, Leading zero omitted, Abs format (unit mm)*
G04 Created by KiCad (PCBNEW (6.0.5)) date 2024-01-23 17:13:34*
%MOMM*%
%LPD*%
G01*
G04 APERTURE LIST*
G04 Aperture macros list*
%AMRoundRect*
0 Rectangle with rounded corners*
0 $1 Rounding radius*
0 $2 $3 $4 $5 $6 $7 $8 $9 X,Y pos of 4 corners*
0 Add a 4 corners polygon primitive as box body*
4,1,4,$2,$3,$4,$5,$6,$7,$8,$9,$2,$3,0*
0 Add four circle primitives for the rounded corners*
1,1,$1+$1,$2,$3*
1,1,$1+$1,$4,$5*
1,1,$1+$1,$6,$7*
1,1,$1+$1,$8,$9*
0 Add four rect primitives between the rounded corners*
20,1,$1+$1,$2,$3,$4,$5,0*
20,1,$1+$1,$4,$5,$6,$7,0*
20,1,$1+$1,$6,$7,$8,$9,0*
20,1,$1+$1,$8,$9,$2,$3,0*%
G04 Aperture macros list end*
%ADD10R,1.700000X1.700000*%
%ADD11O,1.700000X1.700000*%
%ADD12C,0.650000*%
%ADD13O,1.600000X1.000000*%
%ADD14O,2.100000X1.000000*%
%ADD15C,1.500000*%
%ADD16C,1.700000*%
%ADD17C,3.500000*%
%ADD18RoundRect,0.425000X1.325000X-0.425000X1.325000X0.425000X-1.325000X0.425000X-1.325000X-0.425000X0*%
%ADD19R,3.500000X3.500000*%
%ADD20RoundRect,0.750000X-1.000000X0.750000X-1.000000X-0.750000X1.000000X-0.750000X1.000000X0.750000X0*%
%ADD21RoundRect,0.875000X-0.875000X0.875000X-0.875000X-0.875000X0.875000X-0.875000X0.875000X0.875000X0*%
G04 APERTURE END LIST*
D10*
%TO.C,J2*%
X204400000Y-116240000D03*
D11*
X204400000Y-118780000D03*
X204400000Y-121320000D03*
X204400000Y-123860000D03*
X204400000Y-126400000D03*
X204400000Y-128940000D03*
X204400000Y-131480000D03*
X204400000Y-134020000D03*
X204400000Y-136560000D03*
X204400000Y-139100000D03*
%TD*%
D12*
%TO.C,J3*%
X92880000Y-111880000D03*
X92880000Y-106100000D03*
D13*
X89200000Y-104670000D03*
D14*
X93380000Y-104670000D03*
D13*
X89200000Y-113310000D03*
D14*
X93380000Y-113310000D03*
%TD*%
D10*
%TO.C,J4*%
X204400000Y-87240000D03*
D11*
X204400000Y-89780000D03*
X204400000Y-92320000D03*
X204400000Y-94860000D03*
X204400000Y-97400000D03*
X204400000Y-99940000D03*
X204400000Y-102480000D03*
X204400000Y-105020000D03*
X204400000Y-107560000D03*
X204400000Y-110100000D03*
%TD*%
D15*
%TO.C,SW1*%
X111875000Y-133090000D03*
X111875000Y-135590000D03*
X111875000Y-138090000D03*
%TD*%
%TO.C,SW4*%
X125075000Y-133090000D03*
X125075000Y-135590000D03*
X125075000Y-138090000D03*
%TD*%
%TO.C,SW2*%
X116275000Y-133090000D03*
X116275000Y-135590000D03*
X116275000Y-138090000D03*
%TD*%
D10*
%TO.C,J10*%
X197800000Y-130200000D03*
D11*
X197800000Y-127660000D03*
X197800000Y-125120000D03*
%TD*%
D10*
%TO.C,J11*%
X131075000Y-139665000D03*
D11*
X133615000Y-139665000D03*
X136155000Y-139665000D03*
X138695000Y-139665000D03*
X141235000Y-139665000D03*
X143775000Y-139665000D03*
X146315000Y-139665000D03*
%TD*%
D10*
%TO.C,J8*%
X101452500Y-93640000D03*
D16*
X101452500Y-91140000D03*
X99452500Y-91140000D03*
X99452500Y-93640000D03*
D17*
X96742500Y-98410000D03*
X96742500Y-86370000D03*
%TD*%
D18*
%TO.C,U8*%
X111175000Y-65265000D03*
X111175000Y-71415000D03*
X113175000Y-73365000D03*
X111175000Y-77065000D03*
X113175000Y-67765000D03*
%TD*%
D12*
%TO.C,J6*%
X92895000Y-125580000D03*
X92895000Y-119800000D03*
D14*
X93395000Y-118370000D03*
X93395000Y-127010000D03*
D13*
X89215000Y-118370000D03*
X89215000Y-127010000D03*
%TD*%
D19*
%TO.C,J1*%
X95582500Y-75640000D03*
D20*
X95582500Y-69640000D03*
D21*
X90882500Y-72640000D03*
%TD*%
D15*
%TO.C,SW3*%
X120675000Y-133090000D03*
X120675000Y-135590000D03*
X120675000Y-138090000D03*
%TD*%
D10*
%TO.C,J14*%
X142375000Y-66140000D03*
D11*
X142375000Y-63600000D03*
X139835000Y-66140000D03*
X139835000Y-63600000D03*
X137295000Y-66140000D03*
X137295000Y-63600000D03*
X134755000Y-66140000D03*
X134755000Y-63600000D03*
X132215000Y-66140000D03*
X132215000Y-63600000D03*
X129675000Y-66140000D03*
X129675000Y-63600000D03*
X127135000Y-66140000D03*
X127135000Y-63600000D03*
X124595000Y-66140000D03*
X124595000Y-63600000D03*
X122055000Y-66140000D03*
X122055000Y-63600000D03*
%TD*%
D10*
%TO.C,J5*%
X150275000Y-137100000D03*
D11*
X150275000Y-139640000D03*
X152815000Y-137100000D03*
X152815000Y-139640000D03*
X155355000Y-137100000D03*
X155355000Y-139640000D03*
X157895000Y-137100000D03*
X157895000Y-139640000D03*
X160435000Y-137100000D03*
X160435000Y-139640000D03*
X162975000Y-137100000D03*
X162975000Y-139640000D03*
X165515000Y-137100000D03*
X165515000Y-139640000D03*
X168055000Y-137100000D03*
X168055000Y-139640000D03*
X170595000Y-137100000D03*
X170595000Y-139640000D03*
X173135000Y-137100000D03*
X173135000Y-139640000D03*
X175675000Y-137100000D03*
X175675000Y-139640000D03*
X178215000Y-137100000D03*
X178215000Y-139640000D03*
X180755000Y-137100000D03*
X180755000Y-139640000D03*
X183295000Y-137100000D03*
X183295000Y-139640000D03*
X185835000Y-137100000D03*
X185835000Y-139640000D03*
X188375000Y-137100000D03*
X188375000Y-139640000D03*
X190915000Y-137100000D03*
X190915000Y-139640000D03*
X193455000Y-137100000D03*
X193455000Y-139640000D03*
X195995000Y-137100000D03*
X195995000Y-139640000D03*
X198535000Y-137100000D03*
X198535000Y-139640000D03*
%TD*%
D10*
%TO.C,J13*%
X197800000Y-104690000D03*
D11*
X197800000Y-102150000D03*
X197800000Y-99610000D03*
%TD*%
M02*
